<svg width="24" height="24" viewBox="0 0 24 24" fill="none" xmlns="http://www.w3.org/2000/svg">
<path d="M9.00043 15.3943V13.8408M8.55557 9.8901C10.7566 8.94409 13.2434 8.94409 15.4444 9.8901M8.55557 9.8901C7.45953 10.3613 6.46702 11.048 5.63571 11.9103C4.79721 12.7803 4.13468 13.8075 3.68529 14.9341C3.23245 16.0672 2.99978 17.2779 3 18.5H21C21.0002 17.2779 20.7675 16.0672 20.3147 14.9341C19.8653 13.8075 19.2028 12.7803 18.3643 11.9103C17.533 11.048 16.5405 10.3613 15.4444 9.8901M8.55557 9.8901L5.367 5.5M15.4444 9.8901L18.633 5.5M14.9996 15.3943V13.8408" stroke="currentColor" stroke-width="1.5" stroke-linecap="round"/>
</svg>
