<svg width="24" height="24" viewBox="0 0 24 24" fill="none" xmlns="http://www.w3.org/2000/svg">
<path d="M14.6621 3.58301C16.0119 3.81656 17.3246 4.22904 18.5654 4.80957L18.7549 4.89844L18.8711 5.07227C20.9972 8.24732 22.0611 11.8491 21.6699 15.9912L21.6387 16.3223L21.373 16.5215C19.7403 17.7423 18.1497 18.4859 16.5889 18.9717L16.0762 19.1318L15.7598 18.6982C15.3798 18.1773 15.0445 17.6236 14.752 17.0459C12.939 17.507 11.0684 17.5052 9.24609 17.041C8.95421 17.6184 8.61782 18.172 8.2373 18.6953L7.9209 19.1309L7.4082 18.9707C5.84877 18.4848 4.26036 17.7405 2.62793 16.5215L2.36035 16.3223L2.33008 15.9902C1.99692 12.4189 2.66864 8.7827 5.12012 5.07812L5.23633 4.90234L5.42676 4.81348C6.66838 4.23094 7.98255 3.81672 9.33398 3.58301L9.85742 3.49316L10.1162 3.95703C10.2054 4.11679 10.3022 4.30358 10.3945 4.49316C11.4578 4.37333 12.5278 4.37407 13.6035 4.49414C13.6939 4.30586 13.7892 4.11938 13.8779 3.95898L14.1357 3.49219L14.6621 3.58301ZM9.00977 10.8877C8.61242 10.8878 8.1416 11.2844 8.1416 11.9805C8.14166 12.6707 8.62295 13.0712 9.00977 13.0713C9.4087 13.0713 9.87887 12.675 9.87793 11.9814V11.9688C9.88828 11.2919 9.41689 10.8877 9.00977 10.8877ZM14.9902 10.8877C14.5929 10.8877 14.1221 11.2843 14.1221 11.9805C14.1221 12.6709 14.6034 13.0713 14.9902 13.0713C15.3883 13.0712 15.8583 12.6757 15.8584 11.9805V11.9688C15.8687 11.292 15.3973 10.8878 14.9902 10.8877Z" stroke="currentColor" stroke-width="1.5"/>
</svg>
