<svg width="24" height="24" viewBox="0 0 24 24" fill="none" xmlns="http://www.w3.org/2000/svg">
<path fill-rule="evenodd" clip-rule="evenodd" d="M15.8571 3H8.14286C5.30254 3 3 5.30254 3 8.14286V15.8571C3 18.6975 5.30254 21 8.14286 21H15.8571C18.6975 21 21 18.6975 21 15.8571V8.14286C21 5.30254 18.6975 3 15.8571 3Z" stroke="currentColor" stroke-width="1.5" stroke-linecap="round"/>
<path fill-rule="evenodd" clip-rule="evenodd" d="M12 15.8571C9.86976 15.8571 8.14286 14.1302 8.14286 12C8.14286 9.86976 9.86976 8.14286 12 8.14286C14.1302 8.14286 15.8571 9.86976 15.8571 12C15.8571 13.023 15.4508 14.0041 14.7274 14.7274C14.0041 15.4508 13.023 15.8571 12 15.8571Z" stroke="currentColor" stroke-width="1.5" stroke-linecap="round"/>
<path d="M17.1429 7.5C16.7878 7.5 16.5 7.21218 16.5 6.85714C16.5 6.5021 16.7878 6.21429 17.1429 6.21429C17.4979 6.21429 17.7857 6.5021 17.7857 6.85714C17.7857 7.21218 17.4979 7.5 17.1429 7.5Z" stroke="currentColor" stroke-width="1.5" stroke-linecap="round"/>
</svg>
