<svg width="24" height="24" viewBox="0 0 24 24" fill="none" xmlns="http://www.w3.org/2000/svg">
<path d="M8.8337 9.47107C8.81596 13.9286 13.0139 16.2815 15.1155 15.7942M12.6339 21C16.5807 20.9992 20.0519 18.3508 21.1495 14.5029C22.2471 10.6551 20.7069 6.53407 17.371 4.39319C14.0352 2.2523 9.70673 2.60693 6.75239 5.26318C3.79805 7.91942 2.92904 12.2378 4.62052 15.8572L2.5 21L8.06352 19.7143C9.44287 20.5581 11.0234 21.0027 12.6339 21ZM10.1524 10.7992C9.4312 10.7928 8.85107 10.1954 8.85525 9.46343C8.85943 8.73144 9.44635 8.14089 10.1675 8.14299C10.8887 8.1451 11.4723 8.73908 11.4723 9.47107C11.4688 10.2076 10.8781 10.8021 10.1524 10.7992ZM13.7955 14.466C13.7914 15.0082 14.1099 15.4993 14.6022 15.7098C15.0945 15.9202 15.6632 15.8085 16.0425 15.4268C16.4219 15.0451 16.5369 14.4689 16.3338 13.9674C16.1307 13.466 15.6496 13.1384 15.1155 13.1379C14.3898 13.1351 13.799 13.7295 13.7955 14.466Z" stroke="currentColor" stroke-width="1.5" stroke-linecap="round" stroke-linejoin="round"/>
</svg>
