<svg width="24" height="24" viewBox="0 0 24 24" fill="none" xmlns="http://www.w3.org/2000/svg">
<path fill-rule="evenodd" clip-rule="evenodd" d="M17.668 19.9968C19.9724 20.0926 21.91 18.04 22 15.4078V8.59223C21.91 5.95999 19.9724 3.90738 17.668 4.00322H6.332C4.02763 3.90738 2.08998 5.95999 2 8.59223V15.4078C2.08998 18.04 4.02763 20.0926 6.332 19.9968H17.668Z" stroke="currentColor" stroke-width="1.5" stroke-linecap="round" stroke-linejoin="round"/>
<path fill-rule="evenodd" clip-rule="evenodd" d="M11.508 8.77275L14.669 11.2266C14.8738 11.3632 14.9997 11.6137 14.9997 11.8846C14.9997 12.1555 14.8738 12.4061 14.669 12.5427L11.508 15.2273C10.908 15.6922 10 15.2958 10 14.5693V9.42849C10 8.70535 10.909 8.3078 11.508 8.77275Z" stroke="currentColor" stroke-width="1.5" stroke-linecap="round" stroke-linejoin="round"/>
</svg>
