<svg width="24" height="24" viewBox="0 0 24 24" fill="none" xmlns="http://www.w3.org/2000/svg">
<path d="M5.58579 6.41421L6.11612 5.88388L6.11612 5.88388L5.58579 6.41421ZM10.5858 20.4142L11.1161 19.8839L10.5858 20.4142ZM7.00002 10.03L7.75002 10.0331V10.03L7.00002 10.03ZM7.45302 11.479L8.07182 11.0552L8.06771 11.0493L7.45302 11.479ZM9.28602 12.454L9.28043 13.204H9.28602V12.454ZM14.714 12.454V13.204H14.7253L14.7366 13.2037L14.714 12.454ZM17 10.03L16.25 10.03V10.0407L16.2503 10.0513L17 10.03ZM12.75 12.455C12.75 12.0408 12.4142 11.705 12 11.705C11.5858 11.705 11.25 12.0408 11.25 12.455L12 12.455L12.75 12.455ZM5 5H5.75C5.75 4.30964 6.30964 3.75 7 3.75V3V2.25C5.48122 2.25 4.25 3.48122 4.25 5H5ZM7 3V3.75C7.69036 3.75 8.25 4.30964 8.25 5H9H9.75C9.75 3.48122 8.51878 2.25 7 2.25V3ZM9 5H8.25C8.25 5.69036 7.69036 6.25 7 6.25V7V7.75C8.51878 7.75 9.75 6.51878 9.75 5H9ZM7 7V6.25C6.66848 6.25 6.35054 6.1183 6.11612 5.88388L5.58579 6.41421L5.05546 6.94454C5.57118 7.46027 6.27065 7.75 7 7.75V7ZM5.58579 6.41421L6.11612 5.88388C5.8817 5.64946 5.75 5.33152 5.75 5H5H4.25C4.25 5.72935 4.53973 6.42882 5.05546 6.94454L5.58579 6.41421ZM15 5H15.75C15.75 4.30964 16.3096 3.75 17 3.75V3V2.25C15.4812 2.25 14.25 3.48122 14.25 5H15ZM17 3V3.75C17.6904 3.75 18.25 4.30964 18.25 5H19H19.75C19.75 3.48122 18.5188 2.25 17 2.25V3ZM19 5H18.25C18.25 5.69036 17.6904 6.25 17 6.25V7V7.75C18.5188 7.75 19.75 6.51878 19.75 5H19ZM17 7V6.25C16.3096 6.25 15.75 5.69036 15.75 5H15H14.25C14.25 6.51878 15.4812 7.75 17 7.75V7ZM10 19H10.75C10.75 18.3096 11.3096 17.75 12 17.75V17V16.25C10.4812 16.25 9.25 17.4812 9.25 19H10ZM12 17V17.75C12.6904 17.75 13.25 18.3096 13.25 19H14H14.75C14.75 17.4812 13.5188 16.25 12 16.25V17ZM14 19H13.25C13.25 19.6904 12.6904 20.25 12 20.25V21V21.75C13.5188 21.75 14.75 20.5188 14.75 19H14ZM12 21V20.25C11.6685 20.25 11.3505 20.1183 11.1161 19.8839L10.5858 20.4142L10.0555 20.9445C10.5712 21.4603 11.2707 21.75 12 21.75V21ZM10.5858 20.4142L11.1161 19.8839C10.8817 19.6495 10.75 19.3315 10.75 19H10H9.25C9.25 19.7293 9.53973 20.4288 10.0555 20.9445L10.5858 20.4142ZM7 7L6.25 7.00001L6.25002 10.03L7.00002 10.03L7.75002 10.03L7.75 6.99999L7 7ZM7.00002 10.03L6.25003 10.0269C6.24727 10.6999 6.45276 11.3572 6.83833 11.9087L7.45302 11.479L8.06771 11.0493C7.8595 10.7514 7.74852 10.3965 7.75002 10.0331L7.00002 10.03ZM7.45302 11.479L6.83425 11.9028C7.3876 12.7107 8.30124 13.1967 9.28043 13.204L9.28602 12.454L9.29161 11.704C8.80333 11.7004 8.34773 11.458 8.07179 11.0552L7.45302 11.479ZM9.28602 12.454V13.204H14.714V12.454V11.704H9.28602V12.454ZM14.714 12.454L14.7366 13.2037C16.4503 13.152 17.7985 11.7224 17.7497 10.0087L17 10.03L16.2503 10.0513C16.2756 10.938 15.578 11.6776 14.6914 11.7043L14.714 12.454ZM17 10.03L17.75 10.03L17.75 6.99999L17 7L16.25 7.00001L16.25 10.03L17 10.03ZM12 17L12.75 17L12.75 12.455L12 12.455L11.25 12.455L11.25 17L12 17Z" fill="#202027"/>
</svg>
