<svg width="24" height="24" viewBox="0 0 24 24" fill="none" xmlns="http://www.w3.org/2000/svg">
<path d="M18.4286 15.8571V16.6071C19.4345 16.6071 20.25 17.4226 20.25 18.4286H21H21.75C21.75 16.5942 20.2629 15.1071 18.4286 15.1071V15.8571ZM21 18.4286H20.25C20.25 19.4345 19.4345 20.25 18.4286 20.25V21V21.75C20.2629 21.75 21.75 20.2629 21.75 18.4286H21ZM18.4286 21V20.25C17.4226 20.25 16.6071 19.4345 16.6071 18.4286H15.8571H15.1071C15.1071 20.2629 16.5942 21.75 18.4286 21.75V21ZM15.8571 18.4286H16.6071V5.57143H15.8571H15.1071V18.4286H15.8571ZM15.8571 5.57143H16.6071C16.6071 4.56548 17.4226 3.75 18.4286 3.75V3V2.25C16.5942 2.25 15.1071 3.73705 15.1071 5.57143H15.8571ZM18.4286 3V3.75C19.4345 3.75 20.25 4.56548 20.25 5.57143H21H21.75C21.75 3.73705 20.2629 2.25 18.4286 2.25V3ZM21 5.57143H20.25C20.25 6.57738 19.4345 7.39286 18.4286 7.39286V8.14286V8.89286C20.2629 8.89286 21.75 7.4058 21.75 5.57143H21ZM18.4286 8.14286V7.39286H15.8571V8.14286V8.89286H18.4286V8.14286ZM15.8571 8.14286H15.1071V15.8571H15.8571H16.6071V8.14286H15.8571ZM15.8571 15.8571V16.6071H18.4286V15.8571V15.1071H15.8571V15.8571ZM8.14286 8.14286V7.39286H5.57143V8.14286V8.89286H8.14286V8.14286ZM5.57143 8.14286V7.39286C4.56548 7.39286 3.75 6.57738 3.75 5.57143H3H2.25C2.25 7.4058 3.73705 8.89286 5.57143 8.89286V8.14286ZM3 5.57143H3.75C3.75 4.56548 4.56548 3.75 5.57143 3.75V3V2.25C3.73705 2.25 2.25 3.73705 2.25 5.57143H3ZM5.57143 3V3.75C6.57738 3.75 7.39286 4.56548 7.39286 5.57143H8.14286H8.89286C8.89286 3.73705 7.4058 2.25 5.57143 2.25V3ZM8.14286 5.57143H7.39286V8.14286H8.14286H8.89286V5.57143H8.14286ZM8.14286 8.14286V8.89286H15.8571V8.14286V7.39286H8.14286V8.14286ZM8.14286 8.14286H7.39286V15.8571H8.14286H8.89286V8.14286H8.14286ZM8.14286 15.8571H7.39286V18.4286H8.14286H8.89286V15.8571H8.14286ZM8.14286 18.4286H7.39286C7.39286 19.4345 6.57738 20.25 5.57143 20.25V21V21.75C7.4058 21.75 8.89286 20.2629 8.89286 18.4286H8.14286ZM5.57143 21V20.25C4.56548 20.25 3.75 19.4345 3.75 18.4286H3H2.25C2.25 20.2629 3.73705 21.75 5.57143 21.75V21ZM3 18.4286H3.75C3.75 17.4226 4.56548 16.6071 5.57143 16.6071V15.8571V15.1071C3.73705 15.1071 2.25 16.5942 2.25 18.4286H3ZM5.57143 15.8571V16.6071H8.14286V15.8571V15.1071H5.57143V15.8571ZM8.14286 15.8571V16.6071H15.8571V15.8571V15.1071H8.14286V15.8571Z" fill="#202027"/>
</svg>
