<svg width="24" height="24" viewBox="0 0 24 24" fill="none" xmlns="http://www.w3.org/2000/svg">
<path d="M12 17.0625V11.4375M19.2 17.4C18.2059 17.4 17.4 18.2059 17.4 19.2C17.4 20.1941 18.2059 21 19.2 21C20.1941 21 21 20.1941 21 19.2C21 18.2059 20.1941 17.4 19.2 17.4ZM19.2 17.4L19.2 12.225C19.2 11.7279 18.7971 11.325 18.3 11.325H5.7C5.20294 11.325 4.8 11.7279 4.8 12.225L4.8 17.4M4.8 17.4C3.80589 17.4 3 18.2059 3 19.2C3 20.1941 3.80589 21 4.8 21C5.79411 21 6.6 20.1941 6.6 19.2C6.6 18.2059 5.79411 17.4 4.8 17.4ZM12 21C11.0059 21 10.2 20.1941 10.2 19.2C10.2 18.2059 11.0059 17.4 12 17.4C12.9941 17.4 13.8 18.2059 13.8 19.2C13.8 20.1941 12.9941 21 12 21ZM6.375 7.5H17.625C18.2463 7.5 18.75 6.99632 18.75 6.375V4.125C18.75 3.50368 18.2463 3 17.625 3H6.375C5.75368 3 5.25 3.50368 5.25 4.125V6.375C5.25 6.99632 5.75368 7.5 6.375 7.5Z" stroke="currentColor" stroke-width="1.5" stroke-linecap="round"/>
</svg>
