<svg width="24" height="24" viewBox="0 0 24 24" fill="none" xmlns="http://www.w3.org/2000/svg">
<path d="M17.5294 8.08824C17.5294 11.1745 15.0275 13.6765 11.9412 13.6765M17.5294 8.08824C17.5294 5.00194 15.0275 2.5 11.9412 2.5M17.5294 8.08824H6.35294M11.9412 13.6765C8.85488 13.6765 6.35294 11.1745 6.35294 8.08824M11.9412 13.6765C13.1757 13.6765 14.1765 11.1745 14.1765 8.08824C14.1765 5.00194 13.1757 2.5 11.9412 2.5M11.9412 13.6765C10.7067 13.6765 9.70588 11.1745 9.70588 8.08824C9.70588 5.00194 10.7067 2.5 11.9412 2.5M6.35294 8.08824C6.35294 5.00194 8.85488 2.5 11.9412 2.5M14.1765 19.2647C14.1765 20.4992 13.1757 21.5 11.9412 21.5C10.7067 21.5 9.70588 20.4992 9.70588 19.2647M14.1765 19.2647C14.1765 18.0302 13.1757 17.0294 11.9412 17.0294C10.7067 17.0294 9.70588 18.0302 9.70588 19.2647M14.1765 19.2647H20.8823M9.70588 19.2647H3" stroke="currentColor" stroke-width="1.5" stroke-linecap="round" stroke-linejoin="round"/>
</svg>
