<svg width="24" height="24" viewBox="0 0 24 24" fill="none" xmlns="http://www.w3.org/2000/svg">
<path d="M18.2572 5.4C18.5213 4.91219 18.5113 4.33419 18.2304 3.85462C17.9495 3.37504 17.4336 3.0554 16.8513 3H7.14872C6.56633 3.0554 6.05051 3.37504 5.76957 3.85462C5.48864 4.33419 5.47863 4.91219 5.74281 5.4M8.78723 10.2V10.8C8.78723 12.4569 10.2256 13.8 12 13.8C13.7743 13.8 15.2128 12.4569 15.2128 10.8V10.2M3.01454 8.0124L3.99637 18.8124C4.08028 20.0255 5.14546 20.9763 6.44706 21H17.5542C18.8553 20.9757 19.9198 20.0251 20.0036 18.8124L20.9855 8.0124C21.0611 7.35656 20.8394 6.70109 20.3741 6.20479C19.9087 5.7085 19.2422 5.41666 18.536 5.4H5.46396C4.75777 5.41666 4.09127 5.7085 3.62594 6.20479C3.1606 6.70109 2.9389 7.35656 3.01454 8.0124Z" stroke="currentColor" stroke-width="1.5" stroke-linecap="round" stroke-linejoin="round"/>
</svg>
