<svg width="24" height="24" viewBox="0 0 24 24" fill="none" xmlns="http://www.w3.org/2000/svg">
<path d="M14.1951 7.6116L14.852 6.2148C15.4292 4.9968 16.2122 3 14.7865 3H9.21996C7.79299 3 8.57975 4.9968 9.1544 6.2148L9.79718 7.5828M14.1951 7.6116L14.1064 7.8M14.1951 7.6116C15.2301 7.4235 16.2261 7.08198 17.1455 6.6M14.1951 7.6116C12.7413 7.87177 11.2469 7.86198 9.79718 7.5828M14.1064 7.8C14.7286 7.77182 15.3439 7.93265 15.8599 8.2584C17.7901 9.90699 19.3566 11.8918 20.4712 14.1012C20.9056 14.9182 21.078 15.835 20.9675 16.7412C20.8348 19.0511 18.8496 20.8918 16.3741 21H7.63229C5.15623 20.895 3.16798 19.0562 3.03254 16.746C2.92203 15.8398 3.09435 14.923 3.52877 14.106C4.64476 11.8944 6.21347 9.90786 8.14652 8.2584C8.66255 7.93265 9.2778 7.77182 9.90003 7.8M14.1064 7.8H9.90003M9.90003 7.8L9.79718 7.5828M9.79718 7.5828C8.77124 7.39428 7.78146 7.06299 6.86095 6.6M12.0326 17.5223C11.902 17.2613 11.6317 17.0709 11.3046 17.037C11.0276 17.0083 10.7564 16.9542 10.4985 16.8764C10.3828 16.8409 10.2743 16.8023 10.1739 16.7609L10.3408 16.3468C10.4586 16.3946 10.5801 16.4385 10.7044 16.4781L10.7096 16.4797L10.7148 16.4813C11.1138 16.6013 11.5064 16.6621 11.8817 16.6621C12.2583 16.6621 12.5314 16.6162 12.7412 16.5176L12.7537 16.5117L12.7659 16.5053C13.0838 16.3394 13.266 16.0541 13.266 15.7226C13.266 15.3546 13.048 15.0492 12.6675 14.8842C12.4763 14.7995 12.2045 14.7187 11.8131 14.6301C11.4116 14.5377 11.0743 14.4396 10.8127 14.3392C10.6214 14.2605 10.4556 14.1348 10.3061 13.9552C10.1775 13.7949 10.1122 13.5537 10.1122 13.2383C10.1122 12.8577 10.23 12.5436 10.4723 12.2779C10.6881 12.045 10.9944 11.8869 11.4055 11.7982C11.7104 11.7324 11.9483 11.5343 12.0553 11.2784C12.1762 11.5378 12.4335 11.7306 12.7535 11.7771C13.0209 11.8159 13.2665 11.8776 13.4872 11.9613L13.3336 12.3671C12.9168 12.2148 12.5066 12.1379 12.1099 12.1379C10.7922 12.1379 10.7255 12.9652 10.7255 13.1311C10.7255 13.4906 10.9388 13.792 11.3108 13.9582L11.3212 13.9629L11.3318 13.9672C11.5196 14.0435 11.7863 14.117 12.1711 14.1987C12.5689 14.2805 12.9006 14.3742 13.1613 14.4782L13.1666 14.4803L13.172 14.4823C13.3656 14.5557 13.5316 14.6781 13.6796 14.8566L13.682 14.8594L13.6844 14.8622C13.8137 15.0144 13.8793 15.2498 13.8793 15.5617C13.8793 15.9219 13.7647 16.2267 13.5289 16.4937C13.3245 16.7253 13.039 16.8856 12.656 16.9838C12.3602 17.0596 12.1308 17.2653 12.0326 17.5223Z" stroke="currentColor" stroke-width="1.5" stroke-linecap="round" stroke-linejoin="round"/>
</svg>
