<svg width="24" height="24" viewBox="0 0 24 24" fill="none" xmlns="http://www.w3.org/2000/svg">
<path d="M12.0672 3C9.94135 3.00529 8.22102 4.61552 8.22103 6.6V6.6648M8.22103 6.6648V7.8M8.22103 6.6648C8.64752 6.61677 9.07695 6.59512 9.50651 6.6H14.5019C14.9314 6.59512 15.3609 6.61677 15.7874 6.6648M8.22488 6.6648C6.32366 6.9024 5.44696 7.9044 4.37486 11.4L3.08938 16.2C2.44664 19.8 5.38525 21 8.21717 21H15.7835C18.6116 21 21.5515 19.8 20.9113 16.2L19.6258 11.4C18.5589 7.9056 17.677 6.9036 15.7797 6.6648M8.22103 10.944V12M11.9386 3C14.0645 3.00529 15.7848 4.61552 15.7848 6.6L15.7848 7.8M15.7848 10.9452V12" stroke="currentColor" stroke-width="1.5" stroke-linecap="round" stroke-linejoin="round"/>
</svg>
