<svg width="24" height="24" viewBox="0 0 24 24" fill="none" xmlns="http://www.w3.org/2000/svg">
<path d="M15.8544 8.53846C15.8544 10.0225 15.1196 11.3938 13.9269 12.1358C12.7341 12.8778 11.2646 12.8778 10.0718 12.1358C8.87907 11.3938 8.1443 10.0225 8.1443 8.53846M3.01964 8.96354L3.50152 15.8866C3.66813 18.7368 5.84613 20.9665 8.49639 21H15.5023C18.1531 20.9672 20.3318 18.7374 20.4985 15.8866L20.9804 8.96354C21.1045 7.44501 20.6363 5.93935 19.6881 4.80792C18.74 3.6765 17.3975 3.02145 15.9829 3H8.0158C6.6014 3.02184 5.25927 3.67705 4.31142 4.80842C3.36357 5.9398 2.89554 7.44524 3.01964 8.96354Z" stroke="currentColor" stroke-width="1.5" stroke-linecap="round" stroke-linejoin="round"/>
</svg>
