<svg width="24" height="24" viewBox="0 0 24 24" fill="none" xmlns="http://www.w3.org/2000/svg">
<path d="M8.74956 6.61237H20.3887C20.9756 6.62638 21.5113 6.98183 21.795 7.54541C22.0786 8.10898 22.0673 8.7955 21.7652 9.34746L18.0687 14.766C17.7837 15.3068 17.2582 15.6409 16.6886 15.6433H9.55429C9.12243 15.6379 8.71024 15.4445 8.4084 15.1058C8.10656 14.7671 7.93981 14.3107 7.94483 13.8371L8.74956 6.61237ZM8.74956 6.61237L7.97901 3.15224C7.95902 3.06309 7.88625 3.00031 7.80253 3H4.72714M5.36834 8.01735H2M5.36951 11.0272H4.27301M9.55433 19.7073C9.5388 20.4349 8.99049 21.0123 8.32688 20.9998C7.66327 20.9873 7.13333 20.3897 7.14054 19.6619C7.14775 18.9342 7.68941 18.3493 8.35311 18.3526C9.02528 18.3647 9.56219 18.9702 9.55433 19.7073ZM15.9898 19.7073C15.9743 20.4341 15.4272 21.0111 14.7643 20.9998C14.1014 20.9886 13.5709 20.3932 13.576 19.6662C13.581 18.9393 14.1197 18.3528 14.7827 18.3526C15.1066 18.3567 15.4157 18.5017 15.6421 18.7558C15.8685 19.0098 15.9935 19.3521 15.9898 19.7073Z" stroke="currentColor" stroke-width="1.5" stroke-linecap="round" stroke-linejoin="round"/>
</svg>
