<svg width="24" height="24" viewBox="0 0 24 24" fill="none" xmlns="http://www.w3.org/2000/svg">
<path d="M5.45021 6.43959H18.0357C19.534 6.43959 20.7738 6.3197 20.987 7.4946C21.0211 7.75426 20.9878 8.01814 20.8902 8.26188L20.0976 10.5529L18.6605 14.0429C17.542 16.2152 17.3252 16.5773 15.6774 16.5773H8.43335C7.6452 16.5805 6.88807 16.2771 6.32859 15.7338C5.7691 15.1906 5.45313 14.4521 5.45021 13.6808V6.43959ZM5.45021 6.43959V3.71934C5.44617 3.3195 5.11272 2.99801 4.70412 3.00001H3M8.22025 19.897C8.22372 20.3405 7.95342 20.7422 7.53574 20.9142C7.11807 21.0863 6.63557 20.9947 6.3139 20.6823C5.99222 20.37 5.89494 19.8985 6.06755 19.4885C6.24016 19.0784 6.64855 18.8108 7.10173 18.8108C7.71696 18.8088 8.21755 19.2949 8.22025 19.897ZM14.9313 19.897C14.9347 20.3405 14.6644 20.7422 14.2468 20.9142C13.8291 21.0863 13.3466 20.9947 13.0249 20.6823C12.7032 20.37 12.606 19.8985 12.7786 19.4885C12.9512 19.0784 13.3596 18.8108 13.8127 18.8108C14.428 18.8088 14.9286 19.2949 14.9313 19.897Z" stroke="currentColor" stroke-width="1.5" stroke-linecap="round" stroke-linejoin="round"/>
</svg>
