<svg width="24" height="24" viewBox="0 0 24 24" fill="none" xmlns="http://www.w3.org/2000/svg">
<path d="M7.19176 6.60101H19.3207C19.9258 6.60132 20.484 6.95028 20.782 7.51459C21.0801 8.0789 21.072 8.77138 20.7608 9.3275L16.9122 14.729C16.6088 15.2713 16.0622 15.6033 15.4721 15.6036H8.0318C7.10391 15.6036 6.35172 14.7974 6.35172 13.8031L7.19176 6.60101ZM7.19176 6.60101L6.38896 3.15176C6.36749 3.06203 6.29179 2.99946 6.20535 3H3M8.03027 19.6548C8.02895 20.3988 7.46529 21.0009 6.77102 21C6.07675 20.9991 5.51452 20.3954 5.51496 19.6513C5.5154 18.9073 6.07834 18.3044 6.77262 18.3044C7.10649 18.3047 7.42656 18.4472 7.66241 18.7004C7.89827 18.9537 8.03059 19.297 8.03027 19.6548ZM14.7378 19.6547C14.7365 20.3988 14.1728 21.0009 13.4786 21C12.7843 20.999 12.2221 20.3953 12.2225 19.6513C12.2229 18.9073 12.7859 18.3043 13.4802 18.3043C13.814 18.3047 14.1341 18.4471 14.37 18.7004C14.6058 18.9536 14.7381 19.2969 14.7378 19.6547Z" stroke="currentColor" stroke-width="1.5" stroke-linecap="round" stroke-linejoin="round"/>
</svg>
