<svg width="24" height="24" viewBox="0 0 24 24" fill="none" xmlns="http://www.w3.org/2000/svg">
<path d="M21 9.78913H3M13.125 13.3813H3M17.625 13.3813H16.5M3 7.02651V16.9735C3.00204 17.513 3.24028 18.0297 3.66228 18.4098C4.08427 18.7898 4.65543 19.0022 5.25 19H18.75C19.3446 19.0022 19.9157 18.7898 20.3377 18.4098C20.7597 18.0297 20.998 17.513 21 16.9735V7.02651C20.998 6.48699 20.7597 5.97032 20.3377 5.59025C19.9157 5.21017 19.3446 4.99785 18.75 5.00002H5.25C4.65543 4.99785 4.08427 5.21017 3.66228 5.59025C3.24028 5.97032 3.00204 6.48699 3 7.02651Z" stroke="currentColor" stroke-width="1.5" stroke-linecap="round" stroke-linejoin="round"/>
</svg>
