<svg width="24" height="24" viewBox="0 0 24 24" fill="none" xmlns="http://www.w3.org/2000/svg">
<path d="M19 20.2995C17.9127 20.7611 16.7307 21 15.5347 21C14.3386 21 13.1566 20.7611 12.0693 20.2995C10.9326 19.9361 9.72442 19.8053 8.52791 19.9162C7.3314 20.027 6.17507 20.3768 5.13861 20.9414C5.88079 20.7035 6.53504 20.2758 7.02566 19.7079C7.51628 19.1399 7.82319 18.4549 7.91089 17.7321V8.10401C7.91821 6.97937 8.324 5.88805 9.06594 4.9977C9.80788 4.10734 10.8449 3.4672 12.0178 3.1756C13.1906 2.884 14.4344 2.95707 15.5581 3.38359C16.6817 3.81011 17.6231 4.56649 18.2376 5.53654M14.703 13.239H5" stroke="currentColor" stroke-width="1.5" stroke-linecap="round" stroke-linejoin="round"/>
</svg>
