<svg width="24" height="24" viewBox="0 0 24 24" fill="none" xmlns="http://www.w3.org/2000/svg">
<path d="M15.375 15.852C14.8508 16.0923 14.2809 16.2167 13.7042 16.2167C13.1275 16.2167 12.5576 16.0923 12.0334 15.852C11.4854 15.6628 10.9028 15.5947 10.326 15.6524C9.74907 15.7101 9.19155 15.8922 8.69183 16.1862C9.04966 16.0623 9.36511 15.8397 9.60166 15.544C9.8382 15.2483 9.98618 14.8917 10.0285 14.5154V9.50301C10.032 8.91751 10.2276 8.34937 10.5854 7.88585C10.9431 7.42233 11.4431 7.08907 12.0086 6.93727C12.5741 6.78546 13.1737 6.8235 13.7155 7.04555C14.2573 7.26759 14.7111 7.66137 15.0074 8.16637M13.3032 12.1763H8.625M21 12C21 16.9706 16.9706 21 12 21C7.02944 21 3 16.9706 3 12C3 7.02944 7.02944 3 12 3C16.9706 3 21 7.02944 21 12Z" stroke="currentColor" stroke-width="1.5" stroke-linecap="round" stroke-linejoin="round"/>
</svg>
