<svg width="24" height="24" viewBox="0 0 24 24" fill="none" xmlns="http://www.w3.org/2000/svg">
<path d="M14.8125 8.83435C14.2678 8.21166 13.5776 7.79047 12.8285 7.62357C12.0794 7.45668 11.3047 7.55151 10.6016 7.89619C9.89857 8.24087 9.29836 8.82004 8.87628 9.56109C8.4542 10.3021 8.22905 11.1721 8.22905 12.0618C8.22905 12.9515 8.4542 13.8215 8.87628 14.5625C9.29836 15.3036 9.89857 15.8828 10.6016 16.2274C11.3047 16.5721 12.0794 16.6669 12.8285 16.5C13.5776 16.3332 14.2678 15.912 14.8125 15.2893M12.1014 10.7708H6.9375M6.9375 13.3528H12.1014M21 12C21 16.9706 16.9706 21 12 21C7.02944 21 3 16.9706 3 12C3 7.02944 7.02944 3 12 3C16.9706 3 21 7.02944 21 12Z" stroke="currentColor" stroke-width="1.5" stroke-linecap="round" stroke-linejoin="round"/>
</svg>
