<svg width="24" height="24" viewBox="0 0 24 24" fill="none" xmlns="http://www.w3.org/2000/svg">
<path d="M13.935 10.0473C14.0704 10.4388 14.4976 10.6463 14.889 10.5108C15.2804 10.3754 15.488 9.94827 15.3525 9.55682L14.6438 9.80208L13.935 10.0473ZM13.125 8.65625L13.158 7.90697C13.147 7.90649 13.136 7.90625 13.125 7.90625V8.65625ZM10.875 12.0937V12.8437V12.0937ZM13.125 15.5312V16.2812V15.5312ZM10.875 15.5312L10.842 16.2805C10.853 16.281 10.864 16.2812 10.875 16.2812V15.5312ZM10.065 14.1402C9.92956 13.7487 9.50243 13.5412 9.11099 13.6767C8.71955 13.8121 8.51203 14.2392 8.64748 14.6307L9.35625 14.3854L10.065 14.1402ZM12.75 6.9375C12.75 6.52329 12.4142 6.1875 12 6.1875C11.5858 6.1875 11.25 6.52329 11.25 6.9375H12H12.75ZM11.25 8.65625C11.25 9.07046 11.5858 9.40625 12 9.40625C12.4142 9.40625 12.75 9.07046 12.75 8.65625H12H11.25ZM12.75 15.5312C12.75 15.117 12.4142 14.7812 12 14.7812C11.5858 14.7812 11.25 15.117 11.25 15.5312H12H12.75ZM11.25 17.25C11.25 17.6642 11.5858 18 12 18C12.4142 18 12.75 17.6642 12.75 17.25H12H11.25ZM14.6438 9.80208L15.3525 9.55682C15.1924 9.09401 14.8991 8.6884 14.5084 8.39357L14.0567 8.99229L13.6049 9.591C13.7555 9.70458 13.8712 9.86303 13.935 10.0473L14.6438 9.80208ZM14.0567 8.99229L14.5084 8.39357C14.1174 8.09861 13.6471 7.92849 13.158 7.90697L13.125 8.65625L13.092 9.40552C13.2759 9.41361 13.4546 9.47755 13.6049 9.591L14.0567 8.99229ZM13.125 8.65625V7.90625H10.875V8.65625V9.40625H13.125V8.65625ZM10.875 8.65625V7.90625C10.224 7.90625 9.6026 8.16976 9.14658 8.63422L9.68176 9.15966L10.2169 9.6851C10.3938 9.50491 10.6308 9.40625 10.875 9.40625V8.65625ZM9.68176 9.15966L9.14658 8.63422C8.69103 9.09821 8.4375 9.72464 8.4375 10.375H9.1875H9.9375C9.9375 10.1137 10.0396 9.86576 10.2169 9.6851L9.68176 9.15966ZM9.1875 10.375H8.4375C8.4375 11.0254 8.69103 11.6518 9.14658 12.1158L9.68176 11.5903L10.2169 11.0649C10.0396 10.8842 9.9375 10.6363 9.9375 10.375H9.1875ZM9.68176 11.5903L9.14658 12.1158C9.6026 12.5802 10.224 12.8437 10.875 12.8437V12.0937V11.3437C10.6308 11.3437 10.3938 11.2451 10.2169 11.0649L9.68176 11.5903ZM10.875 12.0937V12.8437H13.125V12.0937V11.3437H10.875V12.0937ZM13.125 12.0937V12.8437C13.3692 12.8437 13.6062 12.9424 13.7831 13.1226L14.3182 12.5972L14.8534 12.0717C14.3974 11.6073 13.776 11.3437 13.125 11.3437V12.0937ZM14.3182 12.5972L13.7831 13.1226C13.9604 13.3033 14.0625 13.5512 14.0625 13.8125H14.8125H15.5625C15.5625 13.1621 15.309 12.5357 14.8534 12.0717L14.3182 12.5972ZM14.8125 13.8125H14.0625C14.0625 14.0738 13.9604 14.3217 13.7831 14.5024L14.3182 15.0278L14.8534 15.5533C15.309 15.0893 15.5625 14.4629 15.5625 13.8125H14.8125ZM14.3182 15.0278L13.7831 14.5024C13.6061 14.6826 13.3692 14.7812 13.125 14.7812V15.5312V16.2812C13.776 16.2812 14.3974 16.0177 14.8534 15.5533L14.3182 15.0278ZM13.125 15.5312V14.7812H10.875V15.5312V16.2812H13.125V15.5312ZM10.875 15.5312L10.908 14.782C10.7241 14.7739 10.5454 14.7099 10.3951 14.5965L9.94335 15.1952L9.49164 15.7939C9.88259 16.0889 10.3529 16.259 10.842 16.2805L10.875 15.5312ZM9.94335 15.1952L10.3951 14.5965C10.2445 14.4829 10.1288 14.3245 10.065 14.1402L9.35625 14.3854L8.64748 14.6307C8.80763 15.0935 9.10086 15.4991 9.49164 15.7939L9.94335 15.1952ZM12 6.9375H11.25V8.65625H12H12.75V6.9375H12ZM12 15.5312H11.25V17.25H12H12.75V15.5312H12ZM21 12H20.25C20.25 16.5563 16.5563 20.25 12 20.25V21V21.75C17.3848 21.75 21.75 17.3848 21.75 12H21ZM12 21V20.25C7.44365 20.25 3.75 16.5563 3.75 12H3H2.25C2.25 17.3848 6.61522 21.75 12 21.75V21ZM3 12H3.75C3.75 7.44365 7.44365 3.75 12 3.75V3V2.25C6.61522 2.25 2.25 6.61522 2.25 12H3ZM12 3V3.75C16.5563 3.75 20.25 7.44365 20.25 12H21H21.75C21.75 6.61522 17.3848 2.25 12 2.25V3Z" fill="#202027"/>
</svg>
