<svg width="24" height="24" viewBox="0 0 24 24" fill="none" xmlns="http://www.w3.org/2000/svg">
<path d="M8.625 8.26807H13.6732C14.1753 8.26807 14.6568 8.46752 15.0118 8.82253C15.3668 9.17755 15.5663 9.65906 15.5663 10.1611C15.5663 10.6632 15.3668 11.1447 15.0118 11.4997C14.6568 11.8548 14.1753 12.0542 13.6732 12.0542M13.6732 12.0542C14.1753 12.0542 14.6568 12.2537 15.0118 12.6087C15.3668 12.9637 15.5663 13.4452 15.5663 13.9473C15.5663 14.4493 15.3668 14.9309 15.0118 15.2859C14.6568 15.6409 14.1753 15.8403 13.6732 15.8403H8.625M13.6732 12.0542H9.88704M9.88704 8.26807V15.8403M10.5181 6.375V8.26807M13.0422 6.375V8.26807M10.5181 15.8403V17.7334M13.0422 15.8403V17.7334M21 12C21 16.9706 16.9706 21 12 21C7.02944 21 3 16.9706 3 12C3 7.02944 7.02944 3 12 3C16.9706 3 21 7.02944 21 12Z" stroke="currentColor" stroke-width="1.5" stroke-linecap="round" stroke-linejoin="round"/>
</svg>
