<svg width="24" height="24" viewBox="0 0 24 24" fill="none" xmlns="http://www.w3.org/2000/svg">
<path d="M8.625 15.375L15.375 8.625M9.14428 9.14001L9.13102 9.12661M14.8729 14.9275L14.8596 14.9141M8.17768 4.86312L7.22339 4.92124C5.98454 4.99668 4.99668 5.98454 4.92124 7.22339L4.86312 8.17768C4.82978 8.72509 4.61418 9.2456 4.25067 9.65625L3.61699 10.3721C2.79434 11.3015 2.79434 12.6985 3.61699 13.6279L4.25067 14.3437C4.61418 14.7544 4.82978 15.2749 4.86312 15.8223L4.92124 16.7766C4.99668 18.0155 5.98454 19.0033 7.22339 19.0788L8.17768 19.1369C8.72509 19.1702 9.2456 19.3858 9.65625 19.7493L10.3721 20.383C11.3015 21.2057 12.6985 21.2057 13.6279 20.383L14.3437 19.7493C14.7544 19.3858 15.2749 19.1702 15.8223 19.1369L16.7766 19.0788C18.0155 19.0033 19.0033 18.0155 19.0788 16.7766L19.1369 15.8223C19.1702 15.2749 19.3858 14.7544 19.7493 14.3437L20.383 13.6279C21.2057 12.6985 21.2057 11.3015 20.383 10.3721L19.7493 9.65625C19.3858 9.2456 19.1702 8.72509 19.1369 8.17768L19.0788 7.22339C19.0033 5.98454 18.0155 4.99668 16.7766 4.92124L15.8223 4.86312C15.2749 4.82978 14.7544 4.61418 14.3437 4.25067L13.6279 3.61699C12.6985 2.79434 11.3015 2.79434 10.3721 3.61699L9.65625 4.25067C9.2456 4.61418 8.72509 4.82978 8.17768 4.86312Z" stroke="currentColor" stroke-width="1.5" stroke-linecap="round"/>
</svg>
