<svg width="24" height="24" viewBox="0 0 24 24" fill="none" xmlns="http://www.w3.org/2000/svg">
<path d="M12.1636 21V7.98186M10.6402 7.20089C10.8023 7.23706 10.9731 7.19273 11.0897 7.0767C11.2064 6.96067 11.2509 6.79077 11.2146 6.62967C11.0692 6.0388 10.5333 4.06026 9.98316 3.51313C9.2977 2.83148 8.18207 2.82864 7.5 3.50692C6.81798 4.18515 6.82073 5.29458 7.50625 5.97628C8.06544 6.53236 10.0461 7.05626 10.6402 7.20089ZM12.3039 6.62962C12.2675 6.79079 12.3121 6.96062 12.4288 7.07665C12.5454 7.19268 12.7163 7.23694 12.8783 7.20085C13.4725 7.0562 15.4621 6.52336 16.0122 5.97623C16.6977 5.29458 16.7006 4.18516 16.0185 3.50688C15.3365 2.82864 14.2208 2.83139 13.5353 3.51309C12.9761 4.06917 12.4493 6.03877 12.3039 6.62962ZM3.65455 12.5382H20.3455C20.707 12.5382 21 12.2468 21 11.8873V8.63277C21 8.27328 20.707 7.98186 20.3455 7.98186H3.65455C3.29305 7.98186 3 8.27328 3 8.63277V11.8873C3 12.2468 3.29305 12.5382 3.65455 12.5382ZM19.3636 12.5382V20.3491C19.3636 20.7086 19.0706 21 18.7091 21H5.29091C4.92941 21 4.63636 20.7086 4.63636 20.3491V12.5382H19.3636Z" stroke="currentColor" stroke-width="1.5" stroke-linecap="round" stroke-linejoin="round"/>
</svg>
