<svg width="24" height="24" viewBox="0 0 24 24" fill="none" xmlns="http://www.w3.org/2000/svg">
<path d="M9.03416 8.52185C9.03416 10.09 10.3623 11.3612 12.0007 11.3612C13.6391 11.3612 14.9672 10.09 14.9672 8.52185L14.9582 7.80554M9.03416 8.52185L9.04702 7.80554M9.03416 8.52185L8.83228 9.29231C8.58826 10.1868 7.90326 10.9109 6.99745 11.2319C6.09163 11.5528 5.07914 11.4302 4.28541 10.9034M4.28541 10.9034L4.21468 17.5089C4.20643 18.1669 4.47374 18.8006 4.95693 19.2686C5.44013 19.7367 6.09899 20 6.78644 20H9.42893M4.28541 10.9034C3.24975 10.2116 2.77655 8.97376 3.10111 7.80554L4.17482 5.03877C4.35378 4.42611 4.93622 4.00184 5.60086 4H18.3992C19.0639 4.00184 19.6463 4.42611 19.8253 5.03877L20.899 7.80677C21.2232 8.97434 20.7506 10.2114 19.716 10.9034M9.42893 20L9.42893 16.3077C9.42893 15.628 10.0046 15.0769 10.7148 15.0769H13.2866C13.9967 15.0769 14.5724 15.628 14.5724 16.3077V20M9.42893 20H14.5724M19.716 10.9034C18.9219 11.4285 17.91 11.5497 17.0052 11.2281C16.1004 10.9065 15.4165 10.1826 15.173 9.28862L14.9711 8.52185M19.716 10.9034L19.7828 17.5089C19.7911 18.1669 19.5238 18.8006 19.0406 19.2686C18.5574 19.7367 17.8985 20 17.2111 20H14.5724" stroke="currentColor" stroke-width="1.5" stroke-linecap="round" stroke-linejoin="round"/>
</svg>
