<svg width="24" height="24" viewBox="0 0 24 24" fill="none" xmlns="http://www.w3.org/2000/svg">
<path d="M3 8C3 5.79086 4.7269 4 6.85714 4H17.1429C19.2731 4 21 5.79086 21 8V16C21 18.2091 19.2731 20 17.1429 20H6.85714C4.7269 20 3 18.2091 3 16V8Z" stroke="currentColor" stroke-width="1.5"/>
<path d="M13.2857 12C13.2857 10.8954 14.1492 10 15.2143 10H19.0714C20.1365 10 21 10.8954 21 12C21 13.1046 20.1365 14 19.0714 14H15.2143C14.1492 14 13.2857 13.1046 13.2857 12Z" stroke="currentColor" stroke-width="1.5"/>
</svg>
