<svg width="24" height="24" viewBox="0 0 24 24" fill="none" xmlns="http://www.w3.org/2000/svg">
<path d="M18.25 9.6C18.25 7.61178 16.5711 6 14.5 6H5.75C3.67893 6 2 7.61178 2 9.6V14.4C2 16.3882 3.67893 18 5.75 18H14.5C16.5711 18 18.25 16.3882 18.25 14.4M18.25 9.6V14.4M18.25 9.6H20.75C21.4404 9.6 22 10.1373 22 10.8V13.2C22 13.8627 21.4404 14.4 20.75 14.4H18.25M5.75 14.4V9.6M10.125 14.4V9.6M14.5 14.4V9.6" stroke="currentColor" stroke-width="1.5" stroke-linecap="round" stroke-linejoin="round"/>
</svg>
