<svg width="24" height="24" viewBox="0 0 24 24" fill="none" xmlns="http://www.w3.org/2000/svg">
<path d="M18.25 9.4H20.75C21.4404 9.4 22 9.98203 22 10.7V13.3C22 14.018 21.4404 14.6 20.75 14.6H18.25M18.25 9.4V14.6M18.25 9.4C18.25 7.24609 16.5711 5.5 14.5 5.5M18.25 14.6C18.25 16.7539 16.5711 18.5 14.5 18.5M5.75 18.5C3.67893 18.5 2 16.7539 2 14.6V9.4C2 7.24609 3.67893 5.5 5.75 5.5M10.295 8.1L8.25 12H12L9.955 15.9" stroke="currentColor" stroke-width="1.5" stroke-linecap="round" stroke-linejoin="round"/>
</svg>
