<svg width="24" height="24" viewBox="0 0 24 24" fill="none" xmlns="http://www.w3.org/2000/svg">
<path d="M11.942 12L17.48 7.91613C17.8075 7.67073 18 7.28761 18 6.88101C18 6.47441 17.8075 6.09129 17.48 5.84589L13.9466 3.24039C13.5585 2.95973 13.043 2.92179 12.6173 3.14258C12.1916 3.36337 11.9297 3.80448 11.942 4.28002V19.72C11.9297 20.1955 12.1916 20.6366 12.6173 20.8574C13.043 21.0782 13.5585 21.0403 13.9466 20.7596L17.48 18.1541C17.8075 17.9087 18 17.5256 18 17.119C18 16.7124 17.8075 16.3293 17.48 16.0839L11.942 12ZM11.942 12L5 8.1606M11.942 12L5 15.8394" stroke="currentColor" stroke-width="1.5" stroke-linecap="round" stroke-linejoin="round"/>
</svg>
