<svg width="24" height="24" viewBox="0 0 24 24" fill="none" xmlns="http://www.w3.org/2000/svg">
<path d="M8.21227 13.62C7.0103 12.5081 6.32484 10.9304 6.32484 9.27567C6.32484 7.62098 7.0103 6.04325 8.21227 4.93136M15.7873 13.62C16.9893 12.5081 17.6748 10.9304 17.6748 9.27567C17.6748 7.62098 16.9893 6.04325 15.7873 4.93136M18.6277 15.5514C21.1241 11.7547 21.1241 6.79669 18.6277 3M5.37193 15.5501C2.87602 11.7537 2.87602 6.79641 5.37193 3M10.1057 9.7572C10.1057 8.69054 10.9538 7.82584 12.0001 7.82584C13.0463 7.82584 13.8944 8.69054 13.8944 9.7572C13.8944 10.8239 13.0463 11.6886 12.0001 11.6886C11.4976 11.6886 11.0158 11.4851 10.6605 11.1229C10.3053 10.7607 10.1057 10.2694 10.1057 9.7572ZM16.5751 19.0194L12.9677 14.9159C12.7191 14.6395 12.3682 14.4822 12.0004 14.4822C11.6327 14.4822 11.2817 14.6395 11.0332 14.9159L7.42461 19.0194C7.11842 19.3859 7.05635 19.9033 7.26689 20.3342C7.47742 20.7651 7.9199 21.0263 8.39127 20.9979H15.6084C16.0798 21.0263 16.5222 20.7651 16.7328 20.3342C16.9433 19.9033 16.8812 19.3859 16.5751 19.0194Z" stroke="currentColor" stroke-width="1.5" stroke-linecap="round" stroke-linejoin="round"/>
</svg>
