<svg width="24" height="24" viewBox="0 0 24 24" fill="none" xmlns="http://www.w3.org/2000/svg">
<path d="M15.9999 14.0006H18.0004M11.001 14.0006H13.0003M6.00087 14.0006H8.00015M5.99958 17.0002H8.00015M10.9997 17.0002H17.9992M6.99986 21C4.7908 21 3 19.2092 3 17.0001V6.99986C3 4.7908 4.7908 3 6.99986 3H17.0001C19.2092 3 21 4.7908 21 6.99986V17.0001C21 19.2092 19.2092 21 17.0001 21H6.99986ZM5.99958 8.00009V9.99938C5.99958 10.5518 6.44742 10.9997 6.99987 10.9997H17.0002C17.2654 10.9997 17.5199 10.8943 17.7075 10.7067C17.8951 10.5191 18.0004 10.2647 18.0004 9.99938V8.00009C18.0004 7.44765 17.5526 6.99981 17.0002 6.99981H6.99987C6.44742 6.99981 5.99958 7.44765 5.99958 8.00009Z" stroke="currentColor" stroke-width="1.5" stroke-linecap="round" stroke-linejoin="round"/>
</svg>
