<svg width="24" height="24" viewBox="0 0 24 24" fill="none" xmlns="http://www.w3.org/2000/svg">
<path d="M9 6.50052V5.49996C9.00317 4.96632 9.21571 4.45582 9.59086 4.08076C9.96601 3.7057 10.473 3.49681 11.0004 3.50004H12.9996C13.527 3.49681 14.034 3.7057 14.4091 4.08076C14.7843 4.45582 14.9968 4.96632 15 5.49996V6.50052M3 10.5003V16.5001C3.01322 18.7221 4.80373 20.5127 6.9996 20.4999H16.9992C18.0539 20.5064 19.068 20.0886 19.8183 19.3385C20.5686 18.5884 20.9937 17.5674 21 16.5001V10.5003C20.9868 8.27833 19.1963 6.48771 17.0004 6.50049H6.9996C4.80373 6.48771 3.01322 8.27833 3 10.5003ZM12 16.5001C10.367 16.4807 9.05695 15.1288 9.06969 13.4764C9.08243 11.8239 10.4132 10.4929 12.0463 10.4993C13.6793 10.5057 14.9999 11.8471 15 13.4996C14.9956 14.3001 14.6769 15.066 14.1143 15.6287C13.5517 16.1915 12.7911 16.5049 12 16.5001Z" stroke="currentColor" stroke-width="1.5" stroke-linecap="round" stroke-linejoin="round"/>
</svg>
