<svg width="24" height="24" viewBox="0 0 24 24" fill="none" xmlns="http://www.w3.org/2000/svg">
<path d="M3.00009 14.9481C6.1687 15.3343 8.66569 17.8314 9.05189 21M3.1968 12C7.83618 12.4993 11.5007 16.1639 12 20.8033M3.00009 18.4286C4.34695 18.5916 5.40848 19.6531 5.57149 21M15.4611 21C16.9383 20.9918 18.3517 20.3972 19.3904 19.3469C20.4292 18.2966 21.0081 16.8766 20.9999 15.3994V8.60057C21.0081 7.12338 20.4292 5.70344 19.3904 4.65313C18.3517 3.60281 16.9383 3.00816 15.4611 3H8.53889C7.06172 3.00816 5.64829 3.60281 4.60956 4.65313C3.57083 5.70344 2.99188 7.12338 3.00009 8.60057" stroke="currentColor" stroke-width="1.5" stroke-linecap="round"/>
</svg>
