<svg width="24" height="24" viewBox="0 0 24 24" fill="none" xmlns="http://www.w3.org/2000/svg">
<path d="M8.66667 3.81818V2M8.66667 22V20.1818M14.7273 3.81818V2M2 8.66667H3.81818M2 14.7273H3.81818M20.1818 8.66667H22M20.1818 14.7273H22M14.7273 22V20.1818M8.36364 19.2727H15.6364C17.6447 19.2727 19.2727 17.6447 19.2727 15.6364V8.36364C19.2727 6.35533 17.6447 4.72727 15.6364 4.72727H8.36364C6.35533 4.72727 4.72727 6.35533 4.72727 8.36364V15.6364C4.72727 17.6447 6.35533 19.2727 8.36364 19.2727ZM9.57576 9.57576H14.4242V14.4242H9.57576V9.57576Z" stroke="currentColor" stroke-width="1.5" stroke-linecap="round" stroke-linejoin="round"/>
</svg>
