<svg width="24" height="24" viewBox="0 0 24 24" fill="none" xmlns="http://www.w3.org/2000/svg">
<path d="M3 5.57113C3 5.05691 3.49243 4.56583 4.41429 4.14289C5.61906 3.64702 6.88919 3.32791 8.18529 3.19544C9.2516 3.06345 10.3251 2.99819 11.3996 3.00004H12.5991C13.6736 2.99819 14.7471 3.06345 15.8134 3.19544C17.11 3.32779 18.3805 3.6469 19.5857 4.14289C20.5076 4.56583 21 5.05691 21 5.57113M3 5.57113C3 6.25247 3.88457 6.90681 5.46086 7.38889C7.39512 7.91815 9.39441 8.17176 11.3996 8.14222H12.5991C14.6047 8.17188 16.6045 7.91827 18.5391 7.38889C20.1154 6.90681 21 6.25375 21 5.57113M3 5.57113V11.9989M21 5.57113V11.9989M3 11.9989C3 12.6802 3.88457 13.3345 5.46086 13.8166C7.39512 14.3459 9.39441 14.5995 11.3996 14.5699H12.5991C14.6047 14.5996 16.6045 14.346 18.5391 13.8166C20.1154 13.3345 21 12.6815 21 11.9989M3 11.9989V18.4266C3 19.1079 3.88457 19.7623 5.46086 20.2443C7.39512 20.7736 9.39441 21.0272 11.3996 20.9977H12.5991C14.6047 21.0273 16.6045 20.7737 18.5391 20.2443C20.1154 19.7623 21 19.1079 21 18.4266V11.9989" stroke="currentColor" stroke-width="1.5" stroke-linecap="round" stroke-linejoin="round"/>
</svg>
