<svg width="24" height="24" viewBox="0 0 24 24" fill="none" xmlns="http://www.w3.org/2000/svg">
<path d="M6.85714 12C6.85714 9.15968 9.15968 6.85714 12 6.85714M21 12C21 16.9706 16.9706 21 12 21C7.02944 21 3 16.9706 3 12C3 7.02944 7.02944 3 12 3C14.3869 3 16.6761 3.94821 18.364 5.63604C20.0518 7.32387 21 9.61305 21 12ZM13.2857 12C13.2857 12.7101 12.7101 13.2857 12 13.2857C11.2899 13.2857 10.7143 12.7101 10.7143 12C10.7143 11.2899 11.2899 10.7143 12 10.7143C12.7101 10.7143 13.2857 11.2899 13.2857 12Z" stroke="currentColor" stroke-width="1.5" stroke-linecap="round" stroke-linejoin="round"/>
</svg>
