<svg width="24" height="24" viewBox="0 0 24 24" fill="none" xmlns="http://www.w3.org/2000/svg">
<path d="M8.00025 9.96712V9.21703L7.98831 9.21722L8.00025 9.96712ZM4.0005 14.0317H4.7506L4.75041 14.0199L4.0005 14.0317ZM4.0005 16.9354L4.7505 16.9473V16.9354H4.0005ZM8.00025 21L7.9883 21.75H8.00025V21ZM15.9997 21V21.7501L16.0117 21.7499L15.9997 21ZM19.9995 16.9354H19.2494L19.2496 16.9473L19.9995 16.9354ZM19.9995 14.0317L19.2495 14.0199V14.0317H19.9995ZM15.9997 9.96712L16.0117 9.21712H15.9997V9.96712ZM11.2499 9.96713C11.2499 10.3813 11.5857 10.7171 11.9999 10.7171C12.4142 10.7171 12.7499 10.3813 12.7499 9.96713H11.9999H11.2499ZM10.8572 5.90363L11.0424 5.17686L11.0334 5.17458L11.0244 5.17251L10.8572 5.90363ZM9.43782 5.7585V6.5085H9.4457L9.45358 6.50834L9.43782 5.7585ZM8.17881 3C8.17881 2.58579 7.84302 2.25 7.42881 2.25C7.01459 2.25 6.67881 2.58579 6.67881 3H7.42881H8.17881ZM8.39298 16.9365C8.39298 17.3507 8.72877 17.6865 9.14298 17.6865C9.5572 17.6865 9.89298 17.3507 9.89298 16.9365H9.14298H8.39298ZM9.89298 13.4524C9.89298 13.0382 9.5572 12.7024 9.14298 12.7024C8.72877 12.7024 8.39298 13.0382 8.39298 13.4524H9.14298H9.89298ZM10.8572 15.945C11.2714 15.945 11.6072 15.6092 11.6072 15.195C11.6072 14.7808 11.2714 14.445 10.8572 14.445V15.195V15.945ZM7.42881 14.445C7.01459 14.445 6.67881 14.7808 6.67881 15.195C6.67881 15.6092 7.01459 15.945 7.42881 15.945V15.195V14.445ZM13.751 14.0884C13.4604 14.3836 13.4642 14.8584 13.7594 15.149C14.0546 15.4396 14.5295 15.4358 14.82 15.1406L14.2855 14.6145L13.751 14.0884ZM15.9628 13.9796C16.2534 13.6844 16.2496 13.2096 15.9544 12.919C15.6592 12.6284 15.1844 12.6322 14.8938 12.9274L15.4283 13.4535L15.9628 13.9796ZM14.8938 16.4149C14.6032 16.7101 14.607 17.1849 14.9022 17.4755C15.1974 17.7661 15.6722 17.7623 15.9628 17.4671L15.4283 16.941L14.8938 16.4149ZM17.1056 16.3061C17.3962 16.0109 17.3924 15.5361 17.0972 15.2455C16.802 14.9549 16.3272 14.9587 16.0366 15.2539L16.5711 15.78L17.1056 16.3061ZM8.00025 9.96712L7.98831 9.21722C5.34092 9.25939 3.20887 11.409 3.2506 14.0436L4.0005 14.0317L4.75041 14.0199C4.72215 12.2356 6.17083 10.7464 8.0122 10.717L8.00025 9.96712ZM4.0005 14.0317H3.2505V16.9354H4.0005H4.7505V14.0317H4.0005ZM4.0005 16.9354L3.2506 16.9235C3.20887 19.5581 5.34092 21.7077 7.98831 21.7499L8.00025 21L8.0122 20.2501C6.17083 20.2208 4.72215 18.7315 4.75041 16.9473L4.0005 16.9354ZM8.00025 21V21.75H15.9997V21V20.25H8.00025V21ZM15.9997 21L16.0117 21.7499C18.6591 21.7077 20.7911 19.5581 20.7494 16.9235L19.9995 16.9354L19.2496 16.9473C19.2778 18.7315 17.8292 20.2208 15.9878 20.2501L15.9997 21ZM19.9995 16.9354H20.7495V14.0317H19.9995H19.2495V16.9354H19.9995ZM19.9995 14.0317L20.7494 14.0436C20.7911 11.409 18.6591 9.25939 16.0117 9.21722L15.9997 9.96712L15.9878 10.717C17.8292 10.7464 19.2778 12.2356 19.2496 14.0199L19.9995 14.0317ZM15.9997 9.96712V9.21712H8.00025V9.96712V10.7171H15.9997V9.96712ZM11.9999 9.96713H12.7499C12.7499 9.58419 12.7698 9.20912 12.7786 8.74762C12.7868 8.31462 12.7832 7.84487 12.725 7.39983C12.6675 6.95946 12.5498 6.4863 12.291 6.07818C12.0175 5.64691 11.6055 5.32039 11.0424 5.17686L10.8572 5.90363L10.6719 6.63039C10.8459 6.67474 10.9453 6.75701 11.0243 6.88153C11.1179 7.02919 11.1939 7.25881 11.2377 7.59427C11.2809 7.92506 11.2867 8.30418 11.2788 8.7192C11.2715 9.1057 11.2499 9.57775 11.2499 9.96713H11.9999ZM10.8572 5.90363L11.0244 5.17251C10.4992 5.05237 9.96096 4.99734 9.42206 5.00867L9.43782 5.7585L9.45358 6.50834C9.8695 6.49959 10.2848 6.54207 10.6899 6.63474L10.8572 5.90363ZM9.43782 5.7585V5.0085C8.92903 5.0085 8.65166 4.91903 8.50399 4.8346C8.37426 4.76043 8.30277 4.66733 8.2526 4.5351C8.19445 4.3818 8.16605 4.17478 8.1619 3.89453C8.15988 3.75781 8.16353 3.61697 8.1683 3.46505C8.17288 3.319 8.17881 3.15548 8.17881 3H7.42881H6.67881C6.67881 3.12577 6.67402 3.25939 6.66904 3.418C6.66424 3.57075 6.65948 3.7421 6.66207 3.91672C6.66713 4.25916 6.70002 4.67145 6.85013 5.06715C7.00824 5.48392 7.29201 5.86951 7.75946 6.13678C8.20897 6.39378 8.77069 6.5085 9.43782 6.5085V5.7585ZM9.14298 16.9365H9.89298V15.195H9.14298H8.39298V16.9365H9.14298ZM9.14298 15.195H9.89298V13.4524H9.14298H8.39298V15.195H9.14298ZM9.14298 15.195V15.945H10.8572V15.195V14.445H9.14298V15.195ZM9.14298 15.195V14.445H7.42881V15.195V15.945H9.14298V15.195ZM14.2855 14.6145L14.82 15.1406L15.9628 13.9796L15.4283 13.4535L14.8938 12.9274L13.751 14.0884L14.2855 14.6145ZM15.4283 16.941L15.9628 17.4671L17.1056 16.3061L16.5711 15.78L16.0366 15.2539L14.8938 16.4149L15.4283 16.941Z" fill="#202027"/>
</svg>
