<svg width="24" height="24" viewBox="0 0 24 24" fill="none" xmlns="http://www.w3.org/2000/svg">
<path d="M10.375 9.5V8.75C9.96079 8.75 9.625 9.08579 9.625 9.5H10.375ZM10.375 14.5H9.625C9.625 14.9142 9.96079 15.25 10.375 15.25V14.5ZM17.037 9.50005V10.25C17.047 10.25 17.057 10.2498 17.067 10.2494L17.037 9.50005ZM16.062 9.50005V8.75005C15.6478 8.75005 15.312 9.08584 15.312 9.50005H16.062ZM16.062 12.192H15.312C15.312 12.6063 15.6478 12.942 16.062 12.942V12.192ZM17.037 12.192L17.067 11.4426C17.057 11.4422 17.047 11.442 17.037 11.442V12.192ZM18.5 10.846L19.2493 10.8785C19.2502 10.8569 19.2502 10.8352 19.2493 10.8136L18.5 10.846ZM7 5.75C7.41421 5.75 7.75 5.41421 7.75 5C7.75 4.58579 7.41421 4.25 7 4.25V5V5.75ZM2.25 9C2.25 9.41421 2.58579 9.75 3 9.75C3.41421 9.75 3.75 9.41421 3.75 9H3H2.25ZM17 4.25C16.5858 4.25 16.25 4.58579 16.25 5C16.25 5.41421 16.5858 5.75 17 5.75V5V4.25ZM20.25 9C20.25 9.41421 20.5858 9.75 21 9.75C21.4142 9.75 21.75 9.41421 21.75 9H21H20.25ZM17 18.25C16.5858 18.25 16.25 18.5858 16.25 19C16.25 19.4142 16.5858 19.75 17 19.75V19V18.25ZM21.75 15C21.75 14.5858 21.4142 14.25 21 14.25C20.5858 14.25 20.25 14.5858 20.25 15H21H21.75ZM7 19.75C7.41421 19.75 7.75 19.4142 7.75 19C7.75 18.5858 7.41421 18.25 7 18.25V19V19.75ZM3.75 15C3.75 14.5858 3.41421 14.25 3 14.25C2.58579 14.25 2.25 14.5858 2.25 15H3H3.75ZM15.313 14.5C15.313 14.9142 15.6488 15.25 16.063 15.25C16.4772 15.25 16.813 14.9142 16.813 14.5H16.063H15.313ZM16.063 12.192L16.5787 11.6475L15.313 10.4487V12.192H16.063ZM17.9843 15.0445C18.285 15.3294 18.7597 15.3165 19.0445 15.0157C19.3294 14.715 19.3165 14.2403 19.0157 13.9555L18.5 14.5L17.9843 15.0445ZM4.75 14.5C4.75 14.9142 5.08579 15.25 5.5 15.25C5.91421 15.25 6.25 14.9142 6.25 14.5H5.5H4.75ZM6.25 9.5C6.25 9.08579 5.91421 8.75 5.5 8.75C5.08579 8.75 4.75 9.08579 4.75 9.5H5.5H6.25ZM8 14.5C8 14.9142 8.33579 15.25 8.75 15.25C9.16421 15.25 9.5 14.9142 9.5 14.5H8.75H8ZM9.5 9.5C9.5 9.08579 9.16421 8.75 8.75 8.75C8.33579 8.75 8 9.08579 8 9.5H8.75H9.5ZM12 9.5V8.75H10.375V9.5V10.25H12V9.5ZM10.375 9.5H9.625V14.5H10.375H11.125V9.5H10.375ZM10.375 14.5V15.25H12V14.5V13.75H10.375V14.5ZM12 14.5V15.25C13.7949 15.25 15.25 13.7949 15.25 12H14.5H13.75C13.75 12.9665 12.9665 13.75 12 13.75V14.5ZM14.5 12H15.25C15.25 10.2051 13.7949 8.75 12 8.75V9.5V10.25C12.9665 10.25 13.75 11.0335 13.75 12H14.5ZM17.037 9.50005V8.75005H16.062V9.50005V10.25H17.037V9.50005ZM16.062 9.50005H15.312V12.192H16.062H16.812V9.50005H16.062ZM16.062 12.192V12.942H17.037V12.192V11.442H16.062V12.192ZM17.037 12.192L17.007 12.9414C18.1951 12.989 19.1979 12.0665 19.2493 10.8785L18.5 10.846L17.7507 10.8136C17.735 11.1759 17.4293 11.4572 17.067 11.4426L17.037 12.192ZM18.5 10.846L19.2493 10.8136C19.1979 9.62563 18.1951 8.70309 17.007 8.75065L17.037 9.50005L17.067 10.2494C17.4293 10.2349 17.735 10.5162 17.7507 10.8785L18.5 10.846ZM7 5V4.25C4.37665 4.25 2.25 6.37665 2.25 9H3H3.75C3.75 7.20507 5.20507 5.75 7 5.75V5ZM17 5V5.75C18.7949 5.75 20.25 7.20507 20.25 9H21H21.75C21.75 6.37665 19.6234 4.25 17 4.25V5ZM17 19V19.75C19.6234 19.75 21.75 17.6234 21.75 15H21H20.25C20.25 16.7949 18.7949 18.25 17 18.25V19ZM7 19V18.25C5.20507 18.25 3.75 16.7949 3.75 15H3H2.25C2.25 17.6234 4.37665 19.75 7 19.75V19ZM16.063 14.5H16.813V12.192H16.063H15.313V14.5H16.063ZM16.063 12.192L15.5473 12.7365L17.9843 15.0445L18.5 14.5L19.0157 13.9555L16.5787 11.6475L16.063 12.192ZM5.5 14.5H6.25V12H5.5H4.75V14.5H5.5ZM5.5 12H6.25V9.5H5.5H4.75V12H5.5ZM5.5 12V12.75H8.75V12V11.25H5.5V12ZM8.75 14.5H9.5V12H8.75H8V14.5H8.75ZM8.75 12H9.5V9.5H8.75H8V12H8.75Z" fill="#202027"/>
</svg>
