<svg width="24" height="24" viewBox="0 0 24 24" fill="none" xmlns="http://www.w3.org/2000/svg">
<path d="M14.9497 21.1044L15.6924 20.9995C15.6874 20.9642 15.6799 20.9292 15.6699 20.895L14.9497 21.1044ZM13.9154 22.5102L13.802 21.7688C13.7863 21.7712 13.7706 21.7741 13.7551 21.7775L13.9154 22.5102ZM12 22.9295L11.8396 22.1968C11.806 22.2042 11.7729 22.2139 11.7406 22.2258L12 22.9295ZM10.7883 22.6565L10.2536 23.1824L10.7883 22.6565ZM10.5254 21.4302L9.82144 21.1715L10.5254 21.4302ZM11.5166 20.6746L11.575 21.4224C11.6092 21.4197 11.6431 21.4147 11.6766 21.4074L11.5166 20.6746ZM13.4309 20.2565L13.5909 20.9892C13.6064 20.9858 13.6218 20.9819 13.6371 20.9776L13.4309 20.2565ZM19.25 11.3964C19.25 11.8106 19.5858 12.1464 20 12.1464C20.4142 12.1464 20.75 11.8106 20.75 11.3964H20H19.25ZM3.25 11.3964C3.25 11.8106 3.58579 12.1464 4 12.1464C4.41421 12.1464 4.75 11.8106 4.75 11.3964H4H3.25ZM20.75 14.8641C20.7512 14.4499 20.4165 14.1131 20.0023 14.1118C19.588 14.1106 19.2513 14.4454 19.25 14.8596L20 14.8618L20.75 14.8641ZM13.7489 21.7855C13.3449 21.8768 13.0914 22.2784 13.1827 22.6824C13.2741 23.0864 13.6757 23.3399 14.0797 23.2486L13.9143 22.517L13.7489 21.7855ZM14.9497 21.1044L14.2071 21.2092C14.2461 21.4856 14.057 21.7298 13.802 21.7688L13.9154 22.5102L14.0289 23.2515C15.1101 23.0861 15.8442 22.0754 15.6924 20.9995L14.9497 21.1044ZM13.9154 22.5102L13.7551 21.7775L11.8396 22.1968L12 22.9295L12.1604 23.6621L14.0758 23.2428L13.9154 22.5102ZM12 22.9295L11.7406 22.2258C11.5967 22.2788 11.4341 22.2435 11.3231 22.1306L10.7883 22.6565L10.2536 23.1824C10.7759 23.7134 11.5592 23.8913 12.2594 23.6332L12 22.9295ZM10.7883 22.6565L11.3231 22.1306C11.2108 22.0164 11.1725 21.8436 11.2294 21.6888L10.5254 21.4302L9.82144 21.1715C9.56551 21.8679 9.73248 22.6525 10.2536 23.1824L10.7883 22.6565ZM10.5254 21.4302L11.2294 21.6888C11.2859 21.535 11.4229 21.4342 11.575 21.4224L11.5166 20.6746L11.4582 19.9269C10.7145 19.985 10.0777 20.474 9.82144 21.1715L10.5254 21.4302ZM11.5166 20.6746L11.6766 21.4074L13.5909 20.9892L13.4309 20.2565L13.2708 19.5238L11.3565 19.9419L11.5166 20.6746ZM13.4309 20.2565L13.6371 20.9776C13.8846 20.9068 14.1524 21.0484 14.2296 21.3137L14.9497 21.1044L15.6699 20.895C15.3657 19.8488 14.2784 19.234 13.2246 19.5354L13.4309 20.2565ZM6.28571 17.1628V16.4128C5.44511 16.4128 4.75 15.7219 4.75 14.8525H4H3.25C3.25 16.5351 4.60159 17.9128 6.28571 17.9128V17.1628ZM4 14.8525H4.75V11.3871H4H3.25V14.8525H4ZM4 11.3871H4.75C4.75 10.5178 5.44511 9.82677 6.28571 9.82677V9.07677V8.32677C4.60159 8.32677 3.25 9.7045 3.25 11.3871H4ZM6.28571 9.07677V9.82677C7.12632 9.82677 7.82143 10.5178 7.82143 11.3871H8.57143H9.32143C9.32143 9.7045 7.96984 8.32677 6.28571 8.32677V9.07677ZM8.57143 11.3871H7.82143V14.8525H8.57143H9.32143V11.3871H8.57143ZM8.57143 14.8525H7.82143C7.82143 15.7219 7.12632 16.4128 6.28571 16.4128V17.1628V17.9128C7.96984 17.9128 9.32143 16.5351 9.32143 14.8525H8.57143ZM17.7143 17.1628V16.4128C16.8737 16.4128 16.1786 15.7219 16.1786 14.8525H15.4286H14.6786C14.6786 16.5351 16.0302 17.9128 17.7143 17.9128V17.1628ZM15.4286 14.8525H16.1786V11.3871H15.4286H14.6786V14.8525H15.4286ZM15.4286 11.3871H16.1786C16.1786 10.5178 16.8737 9.82677 17.7143 9.82677V9.07677V8.32677C16.0302 8.32677 14.6786 9.7045 14.6786 11.3871H15.4286ZM17.7143 9.07677V9.82677C18.5549 9.82677 19.25 10.5178 19.25 11.3871H20H20.75C20.75 9.7045 19.3984 8.32677 17.7143 8.32677V9.07677ZM20 11.3871H19.25V14.8525H20H20.75V11.3871H20ZM20 14.8525H19.25C19.25 15.7219 18.5549 16.4128 17.7143 16.4128V17.1628V17.9128C19.3984 17.9128 20.75 16.5351 20.75 14.8525H20ZM20 11.3964H20.75V9.08607H20H19.25V11.3964H20ZM20 9.08607H20.75C20.75 4.21363 16.84 0.25 12 0.25V1V1.75C15.9965 1.75 19.25 5.02688 19.25 9.08607H20ZM12 1V0.25C7.15996 0.25 3.25 4.21363 3.25 9.08607H4H4.75C4.75 5.02688 8.00348 1.75 12 1.75V1ZM4 9.08607H3.25V11.3964H4H4.75V9.08607H4ZM20 14.8618L19.25 14.8596C19.24 18.1902 16.9511 21.0615 13.7489 21.7855L13.9143 22.517L14.0797 23.2486C17.974 22.3681 20.7379 18.8836 20.75 14.8641L20 14.8618Z" fill="#202027"/>
</svg>
