<svg width="24" height="24" viewBox="0 0 24 24" fill="none" xmlns="http://www.w3.org/2000/svg">
<path d="M21 10.7143V8.14286C21 5.30254 18.6975 3 15.8571 3H8.14286C5.30254 3 3 5.30254 3 8.14286V15.8571C2.99852 16.9647 3.35627 18.043 4.01958 18.93M21 10.7143V15.8571C21 18.6975 18.6975 21 15.8571 21H8.14286C6.51838 21.001 4.98922 20.2333 4.01958 18.93M21 10.7143L14.9571 16.1927C14.6927 16.4369 14.338 16.5591 13.9793 16.5295C13.6205 16.4999 13.2906 16.3213 13.0697 16.0371L10.4867 12.7187C10.2373 12.3999 9.85226 12.2171 9.44753 12.2255C9.0428 12.2338 8.66564 12.4323 8.42957 12.7611L4.01958 18.93M15.8571 7.5C15.8571 7.85504 16.145 8.14286 16.5 8.14286C16.855 8.14286 17.1429 7.85504 17.1429 7.5C17.1429 7.14496 16.855 6.85714 16.5 6.85714C16.145 6.85714 15.8571 7.14496 15.8571 7.5Z" stroke="currentColor" stroke-width="1.5" stroke-linecap="round" stroke-linejoin="round"/>
</svg>
