<svg width="24" height="24" viewBox="0 0 24 24" fill="none" xmlns="http://www.w3.org/2000/svg">
<path d="M6 9.50002V14.5M11.15 9.50002H9.5C9.15515 9.4865 8.81908 9.61066 8.56585 9.84514C8.31261 10.0796 8.16301 10.4052 8.15 10.75C8.16301 11.0949 8.31261 11.4204 8.56585 11.6549C8.81908 11.8894 9.15515 12.0135 9.5 12H9.8C10.1448 11.9865 10.4809 12.1107 10.7342 12.3451C10.9874 12.5796 11.137 12.9052 11.15 13.25C11.137 13.5949 10.9874 13.9204 10.7342 14.1549C10.4809 14.3894 10.1448 14.5135 9.8 14.5H8.15M17 5H7C4.79086 5 3 6.79086 3 9V15C3 17.2091 4.79086 19 7 19H17C19.2091 19 21 17.2091 21 15V9C21 6.79086 19.2091 5 17 5ZM12.858 12C12.8777 13.4003 14.0287 14.5195 15.429 14.5C15.6772 14.5014 15.9243 14.4677 16.163 14.4C17.2421 14.0994 17.9916 13.1202 18 12C17.9803 10.5998 16.8293 9.48056 15.429 9.50002C15.1808 9.49868 14.9337 9.53234 14.695 9.60002C13.6155 9.90031 12.8665 10.8795 12.858 12Z" stroke="currentColor" stroke-width="1.5" stroke-linecap="round" stroke-linejoin="round"/>
</svg>
