<svg width="24" height="24" viewBox="0 0 24 24" fill="none" xmlns="http://www.w3.org/2000/svg">
<path d="M6 6C6 4.34315 7.34315 3 9 3H15C16.6569 3 18 4.34315 18 6V18C18 19.6569 16.6569 21 15 21H9C7.34315 21 6 19.6569 6 18V6Z" stroke="currentColor" stroke-width="1.5" stroke-linecap="round"/>
<path d="M12 18.5C11.8665 18.5 11.7409 18.448 11.6465 18.3536C11.552 18.2591 11.5 18.1336 11.5 18C11.5 17.9008 11.5291 17.8047 11.5843 17.7222C11.6394 17.6397 11.717 17.576 11.8087 17.5381C11.8696 17.5128 11.934 17.5 12 17.5C12.0327 17.5 12.0655 17.5032 12.0975 17.5096C12.1949 17.529 12.2834 17.5763 12.3536 17.6464C12.4237 17.7166 12.471 17.8051 12.4904 17.9025C12.5098 17.9998 12.4999 18.0997 12.4619 18.1913C12.424 18.283 12.3603 18.3606 12.2778 18.4157C12.1953 18.4709 12.0992 18.5 12 18.5Z" stroke="currentColor" stroke-width="1.5" stroke-linecap="round"/>
</svg>
