<svg width="24" height="24" viewBox="0 0 24 24" fill="none" xmlns="http://www.w3.org/2000/svg">
<path d="M12.169 20.9997L12.1631 20.2497L12.1572 20.2497L12.169 20.9997ZM9.56453 19.3107L8.87505 19.6059L9.56453 19.3107ZM10.1401 16.2604L10.6746 16.7866L10.1401 16.2604ZM14.9108 18.2141L14.1608 18.2142L14.1608 18.2201L14.9108 18.2141ZM14.1168 20.1748L14.6513 20.7009L14.1168 20.1748ZM10.7126 3.75358C11.1268 3.75358 11.4626 3.41779 11.4626 3.00358C11.4626 2.58937 11.1268 2.25358 10.7126 2.25358V3.00358V3.75358ZM3 2.25358C2.58579 2.25358 2.25 2.58937 2.25 3.00358C2.25 3.41779 2.58579 3.75358 3 3.75358V3.00358V2.25358ZM10.7126 7.60987C11.1268 7.60987 11.4626 7.27408 11.4626 6.85987C11.4626 6.44565 11.1268 6.10987 10.7126 6.10987V6.85987V7.60987ZM3 6.10987C2.58579 6.10987 2.25 6.44565 2.25 6.85987C2.25 7.27408 2.58579 7.60987 3 7.60987V6.85987V6.10987ZM8.14171 11.4662C8.55593 11.4662 8.89171 11.1304 8.89171 10.7162C8.89171 10.3019 8.55593 9.96615 8.14171 9.96615V10.7162V11.4662ZM3 9.96615C2.58579 9.96615 2.25 10.3019 2.25 10.7162C2.25 11.1304 2.58579 11.4662 3 11.4662V10.7162V9.96615ZM14.1595 18.2141C14.1595 18.6283 14.4953 18.9641 14.9095 18.9641C15.3237 18.9641 15.6595 18.6283 15.6595 18.2141H14.9095H14.1595ZM14.9095 5.57444H15.6595V5.55414L15.6584 5.53387L14.9095 5.57444ZM15.6213 3.71534L15.0909 3.18501V3.18501L15.6213 3.71534ZM17.4804 3.00358L17.4398 3.75248L17.46 3.75358H17.4804V3.00358ZM18.965 3.00358V3.75359L18.9685 3.75357L18.965 3.00358ZM21.0014 4.92644L20.2525 4.96591V4.96591L21.0014 4.92644ZM19.1784 7.05268L19.1031 6.30646L19.0998 6.30681L19.1784 7.05268ZM12.169 20.9997L12.1572 20.2497C11.3311 20.2627 10.5792 19.7751 10.254 19.0156L9.56453 19.3107L8.87505 19.6059C9.43981 20.9251 10.7459 21.7721 12.1807 21.7496L12.169 20.9997ZM9.56453 19.3107L10.254 19.0156C9.92886 18.2561 10.095 17.3754 10.6746 16.7866L10.1401 16.2604L9.60558 15.7343C8.59894 16.757 8.3103 18.2867 8.87505 19.6059L9.56453 19.3107ZM10.1401 16.2604L10.6746 16.7866C11.2542 16.1978 12.1321 16.0177 12.8967 16.3308L13.1809 15.6367L13.4651 14.9427C12.1372 14.3988 10.6122 14.7116 9.60558 15.7343L10.1401 16.2604ZM13.1809 15.6367L12.8967 16.3308C13.6612 16.6439 14.1607 17.388 14.1608 18.2142L14.9108 18.2141L15.6608 18.214C15.6606 16.779 14.7931 15.4865 13.4651 14.9427L13.1809 15.6367ZM14.9108 18.2141L14.1608 18.2201C14.165 18.7541 13.9569 19.268 13.5823 19.6486L14.1168 20.1748L14.6513 20.7009C15.305 20.0367 15.6682 19.1401 15.6608 18.2082L14.9108 18.2141ZM14.1168 20.1748L13.5823 19.6486C13.2076 20.0293 12.6971 20.2455 12.1631 20.2497L12.169 20.9997L12.1749 21.7496C13.1068 21.7423 13.9976 21.365 14.6513 20.7009L14.1168 20.1748ZM10.7126 3.00358V2.25358H3V3.00358V3.75358H10.7126V3.00358ZM10.7126 6.85987V6.10987H3V6.85987V7.60987H10.7126V6.85987ZM8.14171 10.7162V9.96615H3V10.7162V11.4662H8.14171V10.7162ZM14.9095 18.2141H15.6595V7.50258H14.9095H14.1595V18.2141H14.9095ZM14.9095 7.50258H15.6595V5.57444H14.9095H14.1595V7.50258H14.9095ZM14.9095 5.57444L15.6584 5.53387C15.6324 5.05391 15.8117 4.58555 16.1516 4.24567L15.6213 3.71534L15.0909 3.18501C14.4498 3.82614 14.1115 4.70965 14.1606 5.61501L14.9095 5.57444ZM15.6213 3.71534L16.1516 4.24567C16.4915 3.9058 16.9598 3.72648 17.4398 3.75248L17.4804 3.00358L17.5209 2.25468C16.6156 2.20563 15.7321 2.54388 15.0909 3.18501L15.6213 3.71534ZM17.4804 3.00358V3.75358H18.965V3.00358V2.25358H17.4804V3.00358ZM18.965 3.00358L18.9685 3.75357C19.6515 3.75036 20.2165 4.28394 20.2525 4.96591L21.0014 4.92644L21.7504 4.88697C21.6723 3.40563 20.4449 2.24661 18.9615 2.25359L18.965 3.00358ZM21.0014 4.92644L20.2525 4.96591C20.2884 5.64787 19.7825 6.23789 19.1031 6.30647L19.1784 7.05268L19.2537 7.79889C20.7296 7.64992 21.8285 6.3683 21.7504 4.88697L21.0014 4.92644ZM19.1784 7.05268L19.0998 6.30681L14.8309 6.75671L14.9095 7.50258L14.9881 8.24845L19.257 7.79855L19.1784 7.05268Z" fill="#202027"/>
</svg>
