<svg width="24" height="24" viewBox="0 0 24 24" fill="none" xmlns="http://www.w3.org/2000/svg">
<path d="M5.38738 20L5.37102 20.7498C5.38192 20.7501 5.39283 20.7501 5.40373 20.7498L5.38738 20ZM5.38738 15.048L5.40373 14.2982C5.39283 14.2979 5.38192 14.2979 5.37102 14.2982L5.38738 15.048ZM18.5984 18.5874L18.5924 17.8374L18.5865 17.8375L18.5984 18.5874ZM16.3169 17.085L17.0081 16.7938L16.3169 17.085ZM16.8226 14.3726L16.2845 13.8501L16.8226 14.3726ZM19.4871 13.8203L19.7757 13.128L19.4871 13.8203ZM20.9999 16.1143H20.2499L20.25 16.1191L20.9999 16.1143ZM7.03774 17.5234C7.03774 17.9376 7.37353 18.2734 7.78774 18.2734C8.20195 18.2734 8.53774 17.9376 8.53774 17.5234H7.78774H7.03774ZM21 8H21.75H21ZM5.38738 20L5.40373 19.2502C4.49494 19.2304 3.75 18.4735 3.75 17.524H3H2.25C2.25 19.2686 3.62635 20.7118 5.37102 20.7498L5.38738 20ZM3 17.524H3.75C3.75 16.5745 4.49494 15.8176 5.40373 15.7978L5.38738 15.048L5.37102 14.2982C3.62635 14.3362 2.25 15.7794 2.25 17.524H3ZM5.38738 15.048L5.37102 15.7978C6.27981 15.8176 7.02475 16.5745 7.02475 17.524H7.77475H8.52475C8.52475 15.7794 7.1484 14.3362 5.40373 14.2982L5.38738 15.048ZM7.77475 17.524H7.02475C7.02475 18.4735 6.27981 19.2304 5.37102 19.2502L5.38738 20L5.40373 20.7498C7.1484 20.7118 8.52475 19.2686 8.52475 17.524H7.77475ZM18.5984 18.5874L18.5865 17.8375C17.9072 17.8483 17.2808 17.4411 17.0081 16.7938L16.3169 17.085L15.6258 17.3762C16.1321 18.578 17.3088 19.358 18.6104 19.3373L18.5984 18.5874ZM16.3169 17.085L17.0081 16.7938C16.7347 16.1449 16.8764 15.3938 17.3606 14.8951L16.8226 14.3726L16.2845 13.8501C15.3781 14.7836 15.1202 16.1762 15.6258 17.3762L16.3169 17.085ZM16.8226 14.3726L17.3606 14.8951C17.843 14.3983 18.5686 14.2499 19.1985 14.5125L19.4871 13.8203L19.7757 13.128C18.5731 12.6266 17.1929 12.9147 16.2845 13.8501L16.8226 14.3726ZM19.4871 13.8203L19.1985 14.5125C19.8304 14.776 20.2508 15.4057 20.2499 16.1133L20.9999 16.1143L21.7499 16.1152C21.7516 14.8118 20.9765 13.6286 19.7757 13.128L19.4871 13.8203ZM20.9999 16.1143L20.25 16.1191C20.2561 17.0717 19.5038 17.8301 18.5924 17.8374L18.5984 18.5874L18.6044 19.3374C20.3643 19.3233 21.7613 17.8683 21.7499 16.1094L20.9999 16.1143ZM7.78774 17.5234H8.53774V8H7.78774H7.03774V17.5234H7.78774ZM7.78774 8H8.53774V6.28572H7.78774H7.03774V8H7.78774ZM7.78774 6.28572H8.53774C8.53774 5.42694 9.22065 4.75 10.0395 4.75V4V3.25C8.37113 3.25 7.03774 4.61976 7.03774 6.28572H7.78774ZM10.0395 4V4.75H18.7482V4V3.25H10.0395V4ZM18.7482 4V4.75C19.567 4.75 20.25 5.42694 20.25 6.28572H21H21.75C21.75 4.61976 20.4166 3.25 18.7482 3.25V4ZM21 6.28572H20.25V8H21H21.75V6.28572H21ZM7.78774 8V8.75H21V8V7.25H7.78774V8ZM21 8L20.25 8L20.2499 16.1143H20.9999H21.7499L21.75 8H21Z" fill="#202027"/>
</svg>
