<svg width="24" height="24" viewBox="0 0 24 24" fill="none" xmlns="http://www.w3.org/2000/svg">
<path d="M8.14286 5.57143C8.14286 6.99159 6.99159 8.14286 5.57143 8.14286M8.14286 5.57143C8.14286 4.88944 7.87194 4.23539 7.3897 3.75315C6.90747 3.27092 6.25341 3 5.57143 3C4.15127 3 3 4.15127 3 5.57143C3 6.99159 4.15127 8.14286 5.57143 8.14286M8.14286 5.57143H15.8571M5.57143 8.14286V15.8571M18.4286 8.14286C19.8487 8.14286 21 6.99159 21 5.57143C21 4.15127 19.8487 3 18.4286 3C17.0084 3 15.8571 4.15127 15.8571 5.57143M18.4286 8.14286C17.0084 8.14286 15.8571 6.99159 15.8571 5.57143M18.4286 8.14286V15.8571M8.14286 18.4286C8.14286 19.8487 6.99159 21 5.57143 21C4.15127 21 3 19.8487 3 18.4286C3 17.0084 4.15127 15.8571 5.57143 15.8571M8.14286 18.4286C8.14286 17.7466 7.87194 17.0925 7.3897 16.6103C6.90747 16.1281 6.25341 15.8571 5.57143 15.8571M8.14286 18.4286H15.8571M15.8571 18.4286C15.8571 19.8487 17.0084 21 18.4286 21C19.8487 21 21 19.8487 21 18.4286C21 17.0084 19.8487 15.8571 18.4286 15.8571M15.8571 18.4286C15.8571 17.0084 17.0084 15.8571 18.4286 15.8571" stroke="currentColor" stroke-width="1.5" stroke-linecap="round" stroke-linejoin="round"/>
</svg>
