<svg width="24" height="24" viewBox="0 0 24 24" fill="none" xmlns="http://www.w3.org/2000/svg">
<path d="M17.1426 12.5058H14.5712M17.1426 16.2597H14.5712M6.89968 8.97846L14.8181 4M8.78555 16.2597C9.58135 16.2722 10.3061 15.8229 10.6197 15.1226C10.9333 14.4223 10.7736 13.61 10.2155 13.0668C9.65736 12.5236 8.8116 12.3573 8.075 12.6459C7.33841 12.9346 6.85716 13.6208 6.85706 14.3827C6.8485 15.4107 7.71173 16.2509 8.78555 16.2597ZM8.53899 20H15.461C18.5545 19.9662 21.0339 17.5386 20.9996 14.5772V14.16C21.0339 11.1986 18.5545 8.77103 15.461 8.73723H8.53899C7.98263 8.7383 7.42975 8.82132 6.89977 8.98338C4.56306 9.7145 2.9871 11.8067 3.00035 14.16V14.5772C2.96608 17.5386 5.44551 19.9662 8.53899 20Z" stroke="currentColor" stroke-width="1.5" stroke-linecap="round" stroke-linejoin="round"/>
</svg>
