<svg width="24" height="24" viewBox="0 0 24 24" fill="none" xmlns="http://www.w3.org/2000/svg">
<path d="M4.00123 7.1148H4.75123C4.75123 7.10881 4.75116 7.10282 4.75102 7.09684L4.00123 7.1148ZM4.00123 13.2852L4.75102 13.3032C4.75116 13.2972 4.75123 13.2912 4.75123 13.2852H4.00123ZM7.72295 17.4L7.70224 18.1497C7.70914 18.1499 7.71604 18.15 7.72295 18.15V17.4ZM16.2759 17.4V18.15C16.2827 18.15 16.2896 18.1499 16.2964 18.1497L16.2759 17.4ZM19.9988 13.2852H19.2488C19.2488 13.2912 19.2488 13.2972 19.249 13.3032L19.9988 13.2852ZM19.9988 7.1148L19.249 7.09684C19.2488 7.10282 19.2488 7.10881 19.2488 7.1148H19.9988ZM16.2771 3L16.2978 2.25029C16.2909 2.2501 16.284 2.25 16.2771 2.25V3ZM7.72295 3V2.25C7.71604 2.25 7.70914 2.2501 7.70225 2.25029L7.72295 3ZM6.28662 20.25C5.8724 20.25 5.53662 20.5858 5.53662 21C5.53662 21.4142 5.8724 21.75 6.28662 21.75V21V20.25ZM17.7134 21.75C18.1276 21.75 18.4634 21.4142 18.4634 21C18.4634 20.5858 18.1276 20.25 17.7134 20.25V21V21.75ZM12.4886 11.8811C12.1957 12.174 12.1958 12.6489 12.4887 12.9417C12.7816 13.2346 13.2565 13.2346 13.5493 12.9417L13.019 12.4114L12.4886 11.8811ZM15.59 9.83994L16.1204 10.3702L16.6506 9.83994L16.1204 9.30965L15.59 9.83994ZM13.5493 6.73822C13.2565 6.4453 12.7816 6.44527 12.4887 6.73814C12.1958 7.03101 12.1957 7.50588 12.4886 7.7988L13.019 7.26851L13.5493 6.73822ZM8.73392 9.08994C8.31971 9.08994 7.98392 9.42572 7.98392 9.83994C7.98392 10.2541 8.31971 10.5899 8.73392 10.5899V9.83994V9.08994ZM4.00123 7.1148H3.25123V13.2852H4.00123H4.75123V7.1148H4.00123ZM4.00123 13.2852L3.25145 13.2672C3.18932 15.8606 5.14614 18.0791 7.70224 18.1497L7.72295 17.4L7.74365 16.6503C6.08136 16.6044 4.70701 15.14 4.75102 13.3032L4.00123 13.2852ZM7.72295 17.4V18.15H16.2759V17.4V16.65H7.72295V17.4ZM16.2759 17.4L16.2964 18.1497C18.853 18.0799 20.8107 15.8611 20.7486 13.2672L19.9988 13.2852L19.249 13.3032C19.293 15.1403 17.9181 16.6049 16.2554 16.6503L16.2759 17.4ZM19.9988 13.2852H20.7488V7.1148H19.9988H19.2488V13.2852H19.9988ZM19.9988 7.1148L20.7486 7.13276C20.8107 4.53945 18.8539 2.32086 16.2978 2.25029L16.2771 3L16.2564 3.74971C17.9186 3.79561 19.293 5.26004 19.249 7.09684L19.9988 7.1148ZM16.2771 3V2.25H7.72295V3V3.75H16.2771V3ZM7.72295 3L7.70225 2.25029C5.14614 2.32086 3.18932 4.53945 3.25145 7.13276L4.00123 7.1148L4.75102 7.09684C4.70701 5.26004 6.08136 3.79561 7.74365 3.74971L7.72295 3ZM6.28662 21V21.75H17.7134V21V20.25H6.28662V21ZM13.019 12.4114L13.5493 12.9417L16.1204 10.3702L15.59 9.83994L15.0596 9.30965L12.4886 11.8811L13.019 12.4114ZM15.59 9.83994L16.1204 9.30965L13.5493 6.73822L13.019 7.26851L12.4886 7.7988L15.0596 10.3702L15.59 9.83994ZM15.59 9.83994V9.08994H8.73392V9.83994V10.5899H15.59V9.83994Z" fill="#202027"/>
</svg>
