<svg width="24" height="24" viewBox="0 0 24 24" fill="none" xmlns="http://www.w3.org/2000/svg">
<path d="M8.78562 3.59478C12.9299 2.01016 17.6108 3.68237 19.8128 7.53419C22.0149 11.386 21.081 16.268 17.6128 19.0352C14.1446 21.8024 9.177 21.629 5.91013 18.6268C2.64326 15.6245 2.052 10.6893 4.51724 7.0004C5.50598 5.52064 6.91129 4.36725 8.55548 3.68606L8.78562 3.59478ZM8.78562 3.59478C12.2697 4.92692 14.5709 8.27021 14.5711 12.0002M9.42845 12.0002C9.42843 10.7735 10.295 9.7176 11.4982 9.4783C12.7013 9.239 13.906 9.88294 14.3754 11.0163C14.8448 12.1497 14.4482 13.4567 13.4281 14.1382C13.3896 14.1639 13.3506 14.1888 13.3111 14.2128M9.42845 12.0002C9.42814 12.9243 9.92376 13.7775 10.7267 14.235C11.5296 14.6925 12.5162 14.684 13.3111 14.2128M9.42845 12.0002C9.42863 15.7302 11.7298 19.0735 15.2139 20.4056M13.3111 14.2128C16.526 12.3423 18.259 8.68688 17.6721 5.01412M20.8862 13.4144C17.9916 15.7671 13.9455 16.0903 10.7141 14.2269M6.32872 18.9837C5.74269 15.3121 7.47497 11.6581 10.6884 9.78764M3.11329 10.586C6.00793 8.2333 10.054 7.91011 13.2854 9.7735" stroke="currentColor" stroke-width="1.5" stroke-linecap="round" stroke-linejoin="round"/>
</svg>
