<svg width="24" height="24" viewBox="0 0 24 24" fill="none" xmlns="http://www.w3.org/2000/svg">
<path d="M17 6.57143H17.75C17.75 6.15721 17.4142 5.82143 17 5.82143V6.57143ZM7 6.57143V5.82143C6.58579 5.82143 6.25 6.15721 6.25 6.57143H7ZM7 14.2857H6.25C6.25 14.6999 6.58579 15.0357 7 15.0357V14.2857ZM17 14.2857V15.0357C17.4142 15.0357 17.75 14.6999 17.75 14.2857H17ZM12.75 16.8571C12.75 16.4429 12.4142 16.1071 12 16.1071C11.5858 16.1071 11.25 16.4429 11.25 16.8571H12H12.75ZM11.25 22C11.25 22.4142 11.5858 22.75 12 22.75C12.4142 22.75 12.75 22.4142 12.75 22H12H11.25ZM13.75 6.57143C13.75 6.98564 14.0858 7.32143 14.5 7.32143C14.9142 7.32143 15.25 6.98564 15.25 6.57143H14.5H13.75ZM14.5 4H15.25V3.25H14.5V4ZM9.5 4V3.25H8.75V4H9.5ZM8.75 6.57143C8.75 6.98564 9.08579 7.32143 9.5 7.32143C9.91421 7.32143 10.25 6.98564 10.25 6.57143H9.5H8.75ZM14 14.2857C14 13.8715 13.6642 13.5357 13.25 13.5357C12.8358 13.5357 12.5 13.8715 12.5 14.2857H13.25H14ZM13.25 16.8571V17.6071H14V16.8571H13.25ZM10.75 16.8571H10V17.6071H10.75V16.8571ZM11.5 14.2857C11.5 13.8715 11.1642 13.5357 10.75 13.5357C10.3358 13.5357 10 13.8715 10 14.2857H10.75H11.5ZM17 6.57143V5.82143H7V6.57143V7.32143H17V6.57143ZM7 6.57143H6.25V14.2857H7H7.75V6.57143H7ZM7 14.2857V15.0357H17V14.2857V13.5357H7V14.2857ZM17 14.2857H17.75V6.57143H17H16.25V14.2857H17ZM12 16.8571H11.25V22H12H12.75V16.8571H12ZM14.5 6.57143H15.25V4H14.5H13.75V6.57143H14.5ZM14.5 4V3.25H9.5V4V4.75H14.5V4ZM9.5 4H8.75V6.57143H9.5H10.25V4H9.5ZM13.25 14.2857H12.5V16.8571H13.25H14V14.2857H13.25ZM13.25 16.8571V16.1071H10.75V16.8571V17.6071H13.25V16.8571ZM10.75 16.8571H11.5V14.2857H10.75H10V16.8571H10.75Z" fill="#202027"/>
</svg>
