<svg width="24" height="24" viewBox="0 0 24 24" fill="none" xmlns="http://www.w3.org/2000/svg">
<path d="M6.9996 14.4456H12M15.9996 16.3374L17.94 17.5614C18.5558 17.9506 19.3316 17.9716 19.9671 17.6163C20.6025 17.261 20.9979 16.5852 21 15.8505V13.0419C20.9979 12.3072 20.6025 11.6314 19.9671 11.2761C19.3316 10.9208 18.5558 10.9418 17.94 11.3309L15.9996 12.5537V12.4323C15.9993 11.3597 15.5776 10.3312 14.8274 9.57343C14.0771 8.81565 13.06 8.39077 12 8.39238H6.9996C4.79427 8.3897 3.00397 10.1959 3 12.4274V16.4637C3.00331 18.6958 4.7938 20.5027 6.9996 20.5H12C14.2058 20.5027 15.9963 18.6958 15.9996 16.4637V12.5586M12.6 3.50004H9.4284C7.30808 3.49063 5.58152 5.22198 5.5716 7.36753V8.6571" stroke="currentColor" stroke-width="1.5" stroke-linecap="round" stroke-linejoin="round"/>
</svg>
