<svg width="24" height="24" viewBox="0 0 24 24" fill="none" xmlns="http://www.w3.org/2000/svg">
<path d="M4.12086 16.1964L4.07284 16.9449C4.08882 16.9459 4.10484 16.9464 4.12086 16.9464V16.1964ZM2.00416 13.8307L2.75277 13.8763C2.7537 13.8611 2.75416 13.8459 2.75416 13.8307H2.00416ZM2.00416 10.1693H2.75416C2.75416 10.1541 2.7537 10.1389 2.75277 10.1237L2.00416 10.1693ZM4.12086 7.80358V7.05358C4.10484 7.05358 4.08882 7.05409 4.07284 7.05512L4.12086 7.80358ZM5.70053 7.80358V8.55359L5.70519 8.55356L5.70053 7.80358ZM6.98598 7.32057L6.50006 6.74922L6.49431 6.75421L6.98598 7.32057ZM9.1898 5.44626L8.72967 4.854C8.72093 4.86079 8.71234 4.86777 8.70391 4.87494L9.1898 5.44626ZM11.526 5.26507L11.8884 4.60846V4.60846L11.526 5.26507ZM12.5905 7.32338L11.8458 7.23436C11.8423 7.2639 11.8405 7.29363 11.8405 7.32338H12.5905ZM12.5905 16.6766H11.8405C11.8405 16.7064 11.8423 16.7361 11.8458 16.7656L12.5905 16.6766ZM11.526 18.7349L11.8884 19.3915H11.8884L11.526 18.7349ZM9.1898 18.5537L8.70427 19.1254C8.71259 19.1324 8.72105 19.1393 8.72967 19.146L9.1898 18.5537ZM6.98312 16.6794L6.49142 17.2458L6.49759 17.2511L6.98312 16.6794ZM5.69768 16.1964L5.70233 15.4464H5.69768V16.1964ZM15.7603 14.2824C15.4654 14.5732 15.462 15.0481 15.7528 15.343C16.0437 15.638 16.5185 15.6413 16.8135 15.3505L16.2869 14.8165L15.7603 14.2824ZM22.5266 9.71775C22.8215 9.42693 22.8249 8.95207 22.5341 8.65711C22.2433 8.36215 21.7684 8.35879 21.4734 8.6496L22 9.18368L22.5266 9.71775ZM21.4734 15.3505C21.7684 15.6413 22.2433 15.638 22.5341 15.343C22.8249 15.0481 22.8215 14.5732 22.5266 14.2824L22 14.8165L21.4734 15.3505ZM16.8135 8.6496C16.5185 8.35879 16.0437 8.36215 15.7528 8.65711C15.462 8.95207 15.4654 9.42693 15.7603 9.71775L16.2869 9.18368L16.8135 8.6496ZM4.12086 16.1964L4.16889 15.448C3.32578 15.3939 2.70359 14.6825 2.75277 13.8763L2.00416 13.8307L1.25556 13.785C1.15483 15.4359 2.42464 16.8391 4.07284 16.9449L4.12086 16.1964ZM2.00416 13.8307H2.75416V10.1693H2.00416H1.25416V13.8307H2.00416ZM2.00416 10.1693L2.75277 10.1237C2.70359 9.31751 3.32578 8.60614 4.16889 8.55204L4.12086 7.80358L4.07284 7.05512C2.42464 7.16088 1.15483 8.56414 1.25556 10.215L2.00416 10.1693ZM4.12086 7.80358V8.55358H5.70053V7.80358V7.05358H4.12086V7.80358ZM5.70053 7.80358L5.70519 8.55356C6.35656 8.54952 6.98612 8.31363 7.47765 7.88692L6.98598 7.32057L6.49431 6.75421C6.27503 6.94457 5.99157 7.05176 5.69588 7.05359L5.70053 7.80358ZM6.98598 7.32057L7.47187 7.89189L9.6757 6.01758L9.1898 5.44626L8.70391 4.87494L6.50008 6.74925L6.98598 7.32057ZM9.1898 5.44626L9.64994 6.03852C10.0826 5.7024 10.681 5.65532 11.1636 5.92168L11.526 5.26507L11.8884 4.60846C10.8824 4.05318 9.63696 4.14911 8.72967 4.854L9.1898 5.44626ZM11.526 5.26507L11.1636 5.92168C11.6443 6.18703 11.9089 6.70661 11.8458 7.23436L12.5905 7.32338L13.3352 7.41241C13.4718 6.26976 12.8962 5.16475 11.8884 4.60846L11.526 5.26507ZM12.5905 7.32338H11.8405V16.6766H12.5905H13.3405V7.32338H12.5905ZM12.5905 16.6766L11.8458 16.7656C11.9089 17.2934 11.6443 17.813 11.1636 18.0783L11.526 18.7349L11.8884 19.3915C12.8962 18.8353 13.4718 17.7302 13.3352 16.5876L12.5905 16.6766ZM11.526 18.7349L11.1636 18.0783C10.681 18.3447 10.0826 18.2976 9.64994 17.9615L9.1898 18.5537L8.72967 19.146C9.63696 19.8509 10.8824 19.9468 11.8884 19.3915L11.526 18.7349ZM9.1898 18.5537L9.67533 17.9821L7.46865 16.1078L6.98312 16.6794L6.49759 17.2511L8.70427 19.1254L9.1898 18.5537ZM6.98312 16.6794L7.47479 16.1131C6.98326 15.6864 6.35371 15.4505 5.70233 15.4464L5.69768 16.1964L5.69302 16.9464C5.98871 16.9482 6.27217 17.0554 6.49145 17.2458L6.98312 16.6794ZM5.69768 16.1964V15.4464H4.12086V16.1964V16.9464H5.69768V16.1964ZM16.2869 14.8165L16.8135 15.3505L19.67 12.5341L19.1435 12.0001L18.6169 11.466L15.7603 14.2824L16.2869 14.8165ZM19.1435 12.0001L19.67 12.5341L22.5266 9.71775L22 9.18368L21.4734 8.6496L18.6169 11.466L19.1435 12.0001ZM19.1435 12.0001L18.6169 12.5341L21.4734 15.3505L22 14.8165L22.5266 14.2824L19.67 11.466L19.1435 12.0001ZM19.1435 12.0001L19.67 11.466L16.8135 8.6496L16.2869 9.18368L15.7603 9.71775L18.6169 12.5341L19.1435 12.0001Z" fill="#202027"/>
</svg>
