<svg width="24" height="24" viewBox="0 0 24 24" fill="none" xmlns="http://www.w3.org/2000/svg">
<path fill-rule="evenodd" clip-rule="evenodd" d="M8.99986 16.1964C7.82528 16.1165 6.93325 15.0592 7.00393 13.8307V10.1693C6.93325 8.94083 7.82528 7.88351 8.99986 7.80358H10.4894C10.9359 7.80064 11.3664 7.6291 11.7015 7.32057L13.7796 5.44626C14.4113 4.92575 15.2807 4.85425 15.9825 5.26507C16.6843 5.67589 17.0804 6.48818 16.9863 7.32338V16.6766C17.0804 17.5118 16.6843 18.3241 15.9825 18.7349C15.2807 19.1457 14.4113 19.0742 13.7796 18.5537L11.6988 16.6794C11.3637 16.3709 10.9332 16.1994 10.4867 16.1964H8.99986Z" stroke="currentColor" stroke-width="1.5" stroke-linecap="round" stroke-linejoin="round"/>
</svg>
