<svg width="24" height="24" viewBox="0 0 24 24" fill="none" xmlns="http://www.w3.org/2000/svg">
<path d="M18.1844 7.16008C20.6052 9.94181 20.6052 14.0597 18.1844 16.8414M6.11113 16.1964C4.8712 16.1165 3.92953 15.0592 4.00414 13.8307V10.1693C3.92953 8.94083 4.8712 7.88351 6.11113 7.80358H7.68356C8.15492 7.80064 8.60933 7.6291 8.96311 7.32057L11.1568 5.44626C11.8237 4.92575 12.7414 4.85425 13.4823 5.26507C14.2231 5.67589 14.6413 6.48818 14.5419 7.32338V16.6766C14.6413 17.5118 14.2231 18.3241 13.4823 18.7349C12.7414 19.1457 11.8237 19.0742 11.1568 18.5537L8.96026 16.6794C8.60649 16.3709 8.15207 16.1994 7.68071 16.1964H6.11113Z" stroke="currentColor" stroke-width="1.5" stroke-linecap="round" stroke-linejoin="round"/>
</svg>
