<svg width="24" height="24" viewBox="0 0 24 24" fill="none" xmlns="http://www.w3.org/2000/svg">
<path d="M19.4198 5.54629C22.1934 9.36815 22.1934 14.6334 19.4198 18.4552M16.0415 7.16009C18.3526 9.94181 18.3526 14.0597 16.0415 16.8414M4.51545 16.1964C3.33171 16.1165 2.43273 15.0592 2.50396 13.8307V10.1693C2.43273 8.94083 3.33171 7.88351 4.51545 7.80358H6.0166C6.4666 7.80064 6.90041 7.6291 7.23815 7.32057L9.33244 5.44626C9.9691 4.92575 10.8452 4.85425 11.5525 5.26507C12.2598 5.67589 12.659 6.48818 12.5641 7.32338V16.6766C12.659 17.5118 12.2598 18.3241 11.5525 18.7349C10.8452 19.1457 9.9691 19.0742 9.33244 18.5537L7.23544 16.6794C6.8977 16.3709 6.46388 16.1994 6.01389 16.1964H4.51545Z" stroke="currentColor" stroke-width="1.5" stroke-linecap="round" stroke-linejoin="round"/>
</svg>
