<svg width="24" height="24" viewBox="0 0 24 24" fill="" xmlns="http://www.w3.org/2000/svg">
<path d="M10.7143 5.35051H21M5.99186 5.35051H3M10.7143 18.6298H21M5.99186 18.6298H3M13.2857 11.9902H3M18.0081 11.9902H21M10.3157 6.66863C10.963 5.69475 10.8003 4.3932 9.93334 3.60903C9.06638 2.82486 7.75659 2.79455 6.85438 3.5378C5.95217 4.28104 5.72962 5.57368 6.33123 6.57645C6.93284 7.57922 8.17717 7.9897 9.25632 7.54139C9.68757 7.36123 10.0561 7.05762 10.3157 6.66863ZM10.3157 19.9467C10.963 18.9728 10.8003 17.6712 9.93334 16.8871C9.06638 16.1029 7.75659 16.0726 6.85438 16.8158C5.95217 17.5591 5.72962 18.8517 6.33123 19.8545C6.93284 20.8573 8.17717 21.2677 9.25632 20.8194C9.68757 20.6393 10.0561 20.3357 10.3157 19.9467ZM13.6843 13.307C13.037 12.3331 13.1997 11.0316 14.0667 10.2474C14.9336 9.46321 16.2434 9.4329 17.1456 10.1761C18.0478 10.9194 18.2704 12.212 17.6688 13.2148C17.0672 14.2176 15.8228 14.6281 14.7437 14.1797C14.3124 13.9996 13.9439 13.696 13.6843 13.307Z" stroke="currentColor" stroke-width="1.5" stroke-linecap="round" stroke-linejoin="round"/>
</svg>
