<svg width="24" height="24" viewBox="0 0 24 24" fill="none" xmlns="http://www.w3.org/2000/svg">
<path d="M16.0833 13.1429L16.7735 12.8493C16.6558 12.5725 16.3841 12.3929 16.0833 12.3929C15.7826 12.3929 15.5109 12.5725 15.3932 12.8493L16.0833 13.1429ZM14.2272 17.5063L13.537 17.2127L13.537 17.2128L14.2272 17.5063ZM17.9395 17.5063L18.6297 17.2128L18.6296 17.2127L17.9395 17.5063ZM13.1667 3.25C12.7525 3.25 12.4167 3.58579 12.4167 4C12.4167 4.41421 12.7525 4.75 13.1667 4.75V4V3.25ZM19 4L19.5248 4.53577L20.8374 3.25H19V4ZM13.1667 9.71429L12.6418 9.17852L11.3293 10.4643H13.1667V9.71429ZM19 10.4643C19.4142 10.4643 19.75 10.1285 19.75 9.71429C19.75 9.30007 19.4142 8.96429 19 8.96429V9.71429V10.4643ZM12.4765 19.7065C12.3144 20.0877 12.492 20.5281 12.8732 20.6902C13.2543 20.8523 13.6947 20.6747 13.8568 20.2935L13.1667 20L12.4765 19.7065ZM18.3098 20.2935C18.4719 20.6747 18.9123 20.8523 19.2935 20.6902C19.6747 20.5281 19.8523 20.0877 19.6902 19.7065L19 20L18.3098 20.2935ZM12.1818 16.192C12.435 15.8641 12.3744 15.3932 12.0465 15.14C11.7186 14.8869 11.2476 14.9475 10.9945 15.2754L11.5882 15.7337L12.1818 16.192ZM8.29467 20L7.70107 20.4584L8.29477 21.2272L8.88834 20.4583L8.29467 20ZM9.04467 4C9.04467 3.58579 8.70888 3.25 8.29467 3.25C7.88045 3.25 7.54467 3.58579 7.54467 4H8.29467H9.04467ZM5.5936 15.2753C5.34043 14.9475 4.86943 14.8869 4.54159 15.1401C4.21375 15.3933 4.15323 15.8643 4.4064 16.1921L5 15.7337L5.5936 15.2753ZM16.0833 13.1429L15.3932 12.8493L13.537 17.2127L14.2272 17.5063L14.9173 17.7999L16.7735 13.4364L16.0833 13.1429ZM14.2272 17.5063V18.2563H17.9395V17.5063V16.7563H14.2272V17.5063ZM17.9395 17.5063L18.6296 17.2127L16.7735 12.8493L16.0833 13.1429L15.3932 13.4364L17.2493 17.7999L17.9395 17.5063ZM13.1667 4V4.75H19V4V3.25H13.1667V4ZM19 4L18.4752 3.46423L12.6418 9.17852L13.1667 9.71429L13.6915 10.2501L19.5248 4.53577L19 4ZM13.1667 9.71429V10.4643H19V9.71429V8.96429H13.1667V9.71429ZM13.1667 20L13.8568 20.2935L14.9173 17.7998L14.2272 17.5063L13.537 17.2128L12.4765 19.7065L13.1667 20ZM19 20L19.6902 19.7065L18.6297 17.2128L17.9395 17.5063L17.2493 17.7998L18.3098 20.2935L19 20ZM11.5882 15.7337L10.9945 15.2754L7.70099 19.5417L8.29467 20L8.88834 20.4583L12.1818 16.192L11.5882 15.7337ZM8.29467 20H9.04467V4H8.29467H7.54467V20H8.29467ZM8.29467 20L8.88826 19.5416L5.5936 15.2753L5 15.7337L4.4064 16.1921L7.70107 20.4584L8.29467 20Z" fill="currentColor"/>
</svg>
