<svg width="24" height="24" viewBox="0 0 24 24" fill="none" xmlns="http://www.w3.org/2000/svg">
<path d="M16.0833 4L16.7735 3.70642C16.6558 3.42966 16.3841 3.25 16.0833 3.25C15.7826 3.25 15.5109 3.42966 15.3932 3.70642L16.0833 4ZM14.2272 8.36343L13.537 8.06984L13.537 8.06992L14.2272 8.36343ZM17.9395 8.36343L18.6297 8.06992L18.6296 8.06984L17.9395 8.36343ZM18.3098 11.1507C18.4719 11.5318 18.9123 11.7094 19.2935 11.5473C19.6747 11.3852 19.8523 10.9448 19.6902 10.5636L19 10.8571L18.3098 11.1507ZM12.4765 10.5636C12.3144 10.9448 12.492 11.3852 12.8732 11.5473C13.2543 11.7094 13.6947 11.5318 13.8568 11.1507L13.1667 10.8571L12.4765 10.5636ZM12.1818 16.192C12.435 15.8641 12.3744 15.3932 12.0465 15.14C11.7186 14.8869 11.2476 14.9475 10.9945 15.2754L11.5882 15.7337L12.1818 16.192ZM8.29467 20L7.70107 20.4584L8.29477 21.2272L8.88834 20.4583L8.29467 20ZM9.04467 4C9.04467 3.58579 8.70888 3.25 8.29467 3.25C7.88045 3.25 7.54467 3.58579 7.54467 4H8.29467H9.04467ZM5.5936 15.2753C5.34043 14.9475 4.86943 14.8869 4.54159 15.1401C4.21375 15.3933 4.15323 15.8643 4.4064 16.1921L5 15.7337L5.5936 15.2753ZM13.1667 13.5357C12.7525 13.5357 12.4167 13.8715 12.4167 14.2857C12.4167 14.6999 12.7525 15.0357 13.1667 15.0357V14.2857V13.5357ZM19 14.2857L19.5248 14.8215L20.8374 13.5357H19V14.2857ZM13.1667 20L12.6418 19.4642L11.3293 20.75H13.1667V20ZM19 20.75C19.4142 20.75 19.75 20.4142 19.75 20C19.75 19.5858 19.4142 19.25 19 19.25V20V20.75ZM16.0833 4L15.3932 3.70642L13.537 8.06984L14.2272 8.36343L14.9173 8.65701L16.7735 4.29358L16.0833 4ZM14.2272 8.36343V9.11343H17.9395V8.36343V7.61343H14.2272V8.36343ZM17.9395 8.36343L18.6296 8.06984L16.7735 3.70642L16.0833 4L15.3932 4.29358L17.2493 8.65701L17.9395 8.36343ZM19 10.8571L19.6902 10.5636L18.6297 8.06992L17.9395 8.36343L17.2493 8.65694L18.3098 11.1507L19 10.8571ZM13.1667 10.8571L13.8568 11.1507L14.9173 8.65694L14.2272 8.36343L13.537 8.06992L12.4765 10.5636L13.1667 10.8571ZM11.5882 15.7337L10.9945 15.2754L7.70099 19.5417L8.29467 20L8.88834 20.4583L12.1818 16.192L11.5882 15.7337ZM8.29467 20H9.04467V4H8.29467H7.54467V20H8.29467ZM8.29467 20L8.88826 19.5416L5.5936 15.2753L5 15.7337L4.4064 16.1921L7.70107 20.4584L8.29467 20ZM13.1667 14.2857V15.0357H19V14.2857V13.5357H13.1667V14.2857ZM19 14.2857L18.4752 13.7499L12.6418 19.4642L13.1667 20L13.6915 20.5358L19.5248 14.8215L19 14.2857ZM13.1667 20V20.75H19V20V19.25H13.1667V20Z" fill="currentColor"/>
</svg>
