<svg width="24" height="24" viewBox="0 0 24 24" fill="none" xmlns="http://www.w3.org/2000/svg">
<path d="M5.54467 5.4712V16.3534C5.54739 16.7937 5.72514 17.2147 6.03871 17.5237C6.35227 17.8327 6.77589 18.0042 7.2161 18.0004H20.1143C20.5545 18.0042 20.9782 17.8327 21.2917 17.5237C21.6053 17.2147 21.783 16.7937 21.7858 16.3534V7.11433C21.783 6.67412 21.6053 6.25307 21.2917 5.94409C20.9782 5.6351 20.5545 5.46357 20.1143 5.46734H14.2104M5.54596 5.46734V4.64706C5.54868 4.20751 5.7259 3.78706 6.03863 3.47818C6.35136 3.16931 6.77398 2.99732 7.21352 3.00006H12.5415C12.9817 2.9963 13.4053 3.16783 13.7189 3.47681C14.0325 3.7858 14.2102 4.20684 14.2129 4.64706V5.4712M5.54853 5.47119H14.2104M18.7412 18.0004V19.2861C18.7477 19.7349 18.5754 20.1678 18.2623 20.4893C17.9493 20.8108 17.5211 20.9946 17.0723 21H4.17153C3.72324 20.9953 3.29521 20.8125 2.98172 20.492C2.66822 20.1715 2.49497 19.7396 2.50011 19.2913V9.7089C2.49497 9.2606 2.66822 8.82865 2.98172 8.50816C3.29521 8.18767 3.72324 8.00493 4.17153 8.00019H5.54467" stroke="currentColor" stroke-width="1.5" stroke-linecap="round"/>
</svg>
