<svg width="24" height="24" viewBox="0 0 24 24" fill="none" xmlns="http://www.w3.org/2000/svg">
<path d="M7.50931 12.6749C7.11681 12.513 6.69644 12.4299 6.27203 12.4303C4.46806 12.4298 3.00421 13.8943 3.00001 15.7038C2.99581 17.5132 4.45284 18.9845 6.25679 18.9925C8.06074 19.0004 9.53055 17.5419 9.54213 15.7324C9.54238 15.4945 9.51725 15.2573 9.46717 15.0247M7.50931 12.6749L8.99744 10.0124M7.50931 12.6749L5.99917 15.0247H9.46717M8.99744 10.0124H14.994M8.99744 10.0124L10.4826 12.5526L11.9957 15.0247M8.99744 10.0124L7.45332 7.00494H4.99975M14.994 10.0124L16.2342 12.7892M14.994 10.0124L11.9957 15.0247M14.994 10.0124L12.9951 5H10.9963M16.2342 12.7892C16.6939 12.552 17.2035 12.4286 17.7204 12.4293C19.3803 12.4271 20.7793 13.6709 20.9766 15.3241C21.1738 16.9772 20.1068 18.517 18.4933 18.9077C16.8797 19.2985 15.2299 18.4166 14.6534 16.8553C14.077 15.2939 14.7562 13.5469 16.2342 12.7892ZM16.2342 12.7892L17.3106 15.0548M11.9957 15.0247H9.46717" stroke="currentColor" stroke-width="1.5" stroke-linecap="round" stroke-linejoin="round"/>
</svg>
