<svg width="24" height="24" viewBox="0 0 24 24" fill="none" xmlns="http://www.w3.org/2000/svg">
<path d="M6.90871 18.4781V19.738C6.93719 20.4013 6.45006 20.9642 5.81846 20.9978C5.1864 20.9648 4.6986 20.4017 4.72706 19.738V18.2538M4.72706 18.2538C4.94394 18.4 5.19617 18.4778 5.4539 18.4781H18.545C18.8027 18.4778 19.0549 18.3999 19.2718 18.2538M4.72706 18.2538C4.26486 17.9299 3.99107 17.3817 4.00022 16.7983V10.4391M4.00022 10.4391L4.00022 4.6798C4.00029 4.36479 4.0791 4.05531 4.22879 3.78231C4.4741 3.30929 4.94215 3.01069 5.45504 3H18.545C19.0578 3.01069 19.5259 3.30929 19.7712 3.78231C19.9209 4.05531 19.9997 4.36479 19.9998 4.6798V10.4391M4.00022 10.4391H19.9998M17.0913 18.4781V19.738C17.0509 20.1737 17.2496 20.5957 17.6038 20.8267C17.9579 21.0578 18.4063 21.0578 18.7605 20.8267C19.1146 20.5957 19.3133 20.1737 19.2729 19.738V18.2538C19.7351 17.9299 20.0089 17.3817 19.9998 16.7983V10.4391M6.66643 14.2786H7.55555M16.4444 14.2786H17.3336" stroke="currentColor" stroke-width="1.5" stroke-linecap="round" stroke-linejoin="round"/>
</svg>
