<svg width="24" height="24" viewBox="0 0 24 24" fill="none" xmlns="http://www.w3.org/2000/svg">
<path d="M9.21661 16.4687C9.21955 17.2879 8.73813 18.0282 7.99713 18.3437C7.25613 18.6593 6.40175 18.488 5.83292 17.9098C5.2641 17.3316 5.09305 16.4605 5.39965 15.7034C5.70624 14.9462 6.43 14.4523 7.23297 14.4523C7.7581 14.4513 8.26211 14.6632 8.63411 15.0413C9.00611 15.4195 9.21564 15.9329 9.21661 16.4687ZM9.21661 16.4687L14.9918 16.4687M18.9591 16.4687C18.962 17.2879 18.4806 18.0282 17.7396 18.3437C16.9986 18.6593 16.1442 18.488 15.5754 17.9098C15.0066 17.3316 14.8355 16.4605 15.1421 15.7034C15.4487 14.9462 16.1725 14.4523 16.9755 14.4523C17.5006 14.4513 18.0046 14.6632 18.3766 15.0413C18.7486 15.4195 18.9581 15.9329 18.9591 16.4687ZM18.9591 16.4687L21.0082 16.4687C21.2693 16.4707 21.5205 16.3668 21.7065 16.1798C21.8925 15.9928 21.9981 15.7381 22 15.4716V12.9201M4.18182 10.3685L4.87909 8.48008C5.57636 6.71689 6.41545 5.5 8.31 5.5H10.2255M4.18182 10.3685H2.99182C2.7307 10.3665 2.47951 10.4705 2.2935 10.6574C2.1075 10.8444 2.00192 11.0992 2 11.3656V12.9201M4.18182 10.3685L10.2255 10.3685M10.2255 5.5H13.9582C15.8527 5.5 16.6918 6.71689 17.3891 8.48008L18.0864 10.3685M10.2255 5.5V10.3685M2 12.9201V15.4716C2.00192 15.7381 2.1075 15.9928 2.2935 16.1798C2.47951 16.3668 2.7307 16.4707 2.99182 16.4687H5.24909M2 12.9201H3.81182M10.2255 10.3685L18.0864 10.3685M18.0864 10.3685H21.0091C21.5525 10.3649 21.996 10.8112 22 11.3656V12.9201M22 12.9201H20.1118" stroke="currentColor" stroke-width="1.5" stroke-linecap="round" stroke-linejoin="round"/>
</svg>
