<svg width="24" height="24" viewBox="0 0 24 24" fill="none" xmlns="http://www.w3.org/2000/svg">
<path d="M19.3641 10.249L18.5951 8.214C17.8251 6.312 16.8991 5 14.8071 5H9.19413C7.10013 5 6.17513 6.312 5.40613 8.214L4.63613 10.25M19.3641 10.249C19.9371 10.2559 20.4635 10.5661 20.7471 11.064C20.914 11.3476 21.0014 11.6709 21.0001 12V14.624C21.0076 15.2367 20.6983 15.8098 20.1821 16.14C19.9367 16.2929 19.6533 16.3739 19.3641 16.374H4.63613C4.34696 16.3739 4.06359 16.2929 3.81813 16.14M19.3641 10.249L4.63613 10.25M3.81813 16.14C3.30195 15.8098 2.99269 15.2367 3.00013 14.624V12C2.99905 11.6713 3.08644 11.3483 3.25313 11.065C3.53677 10.5671 4.06314 10.2569 4.63613 10.25M3.81813 16.14L3.81814 17.687C3.79511 18.3882 4.34406 18.9756 5.04514 19C5.74622 18.9761 6.29561 18.3891 6.27314 17.688V16.375M17.7281 16.374V17.687C17.6989 18.1443 17.9263 18.5798 18.3181 18.8173C18.71 19.0548 19.2013 19.0548 19.5931 18.8173C19.985 18.5798 20.2123 18.1443 20.1831 17.687V16.14M6.00014 13.5H7.00014M17.0001 13.5H18.0001" stroke="currentColor" stroke-width="1.5" stroke-linecap="round" stroke-linejoin="round"/>
</svg>
