<svg width="24" height="24" viewBox="0 0 24 24" fill="none" xmlns="http://www.w3.org/2000/svg">
<path d="M11.9996 21C16.9704 21 21 16.9707 21 12.0003C21.0001 11.5701 20.9696 11.1405 20.9087 10.7146M11.9996 21C11.9996 16.7393 13.2853 11.3575 19.7142 10.7146M11.9996 21C11.9996 16.7393 10.7138 11.3574 4.28492 10.7146M11.9996 21C7.19603 20.9995 3.23948 17.2271 3.01041 12.4294C2.78133 7.63174 6.36048 3.49971 11.1421 3.04158C15.9238 2.58345 20.2225 5.96077 20.9087 10.7146M19.7142 10.7146H20.9087M19.7142 10.7146L4.28492 10.7146M4.28492 10.7146H3.09043" stroke="currentColor" stroke-width="1.5" stroke-linecap="round" stroke-linejoin="round"/>
</svg>
