<svg width="24" height="24" viewBox="0 0 24 24" fill="none" xmlns="http://www.w3.org/2000/svg">
<path d="M5 7.8V6.6C5 4.61177 6.567 3 8.5 3H15.5C17.433 3 19 4.61177 19 6.6V7.8M5 7.8V11.4M5 7.8H19M19 7.8V11.4M5 11.4V13.8C5 15.7882 6.567 17.4 8.5 17.4H9.66667M5 11.4H19M9.66667 17.4L7.33333 21M9.66667 17.4H14.3333M19 11.4V13.8C19 15.7882 17.433 17.4 15.5 17.4H14.3333M14.3333 17.4L16.6667 21M9.08333 14.4H14.9167" stroke="currentColor" stroke-width="1.5" stroke-linecap="round" stroke-linejoin="round"/>
</svg>
