<svg width="24" height="24" viewBox="0 0 24 24" fill="none" xmlns="http://www.w3.org/2000/svg">
<path d="M8.918 16.961C8.93262 17.8033 8.43643 18.5709 7.66233 18.9035C6.88823 19.236 5.9899 19.0675 5.38896 18.477C4.78803 17.8865 4.6038 16.9912 4.92275 16.2114C5.2417 15.4316 6.00049 14.9221 6.843 14.922C7.38856 14.9172 7.91367 15.1293 8.30282 15.5117C8.69196 15.8941 8.91325 16.4154 8.918 16.961ZM8.918 16.961L14.41 16.961M18.8 16.961C18.8146 17.8033 18.3185 18.5709 17.5444 18.9035C16.7702 19.236 15.8719 19.0675 15.271 18.477C14.67 17.8865 14.4858 16.9912 14.8048 16.2114C15.1237 15.4316 15.8825 14.9221 16.725 14.922C17.2706 14.9172 17.7957 15.1293 18.1848 15.5117C18.574 15.8941 18.7953 16.4154 18.8 16.961ZM18.8 16.961C20.015 16.961 21 15.976 21 14.761L20.492 12.02H14.41M3 13.372V8.75195H9.158V13.372H3ZM3 13.372V15.951C3.00342 16.2225 3.11464 16.4815 3.30915 16.6709C3.50366 16.8604 3.76551 16.9647 4.037 16.961H4.769M3 13.372L14.41 13.372M14.41 16.961H14.654M14.41 16.961V13.372M14.41 13.372V12.02M14.41 7.628H17.888C18.8778 7.58517 19.7569 8.25528 19.978 9.221C20.0318 9.4173 20.0672 9.61816 20.084 9.821L20.491 12.021M14.41 7.628V12.02M14.41 7.628V5H6.789V8.752" stroke="currentColor" stroke-width="1.5" stroke-linecap="round" stroke-linejoin="round"/>
</svg>
