<svg width="24" height="24" viewBox="0 0 24 24" fill="none" xmlns="http://www.w3.org/2000/svg">
<path d="M18.803 15.8213C18.8091 16.697 18.3076 17.4901 17.5328 17.8297C16.758 18.1693 15.8632 17.9883 15.2667 17.3713C14.6701 16.7543 14.4898 15.8232 14.8101 15.0135C15.1303 14.2037 15.8877 13.6753 16.7283 13.6753C17.2765 13.6732 17.8031 13.8981 18.1922 14.3005C18.5813 14.703 18.801 15.25 18.803 15.8213ZM18.803 15.8213C19.3886 15.8187 19.9483 15.5737 20.3605 15.1403C20.7727 14.7069 21.0027 14.1206 21 13.5105L20.4912 10.6221H14.4101M8.91536 15.8223H14.4101V10.6221M14.4101 10.6221L14.4091 6.00044H17.8869C18.4767 5.98829 19.0455 6.22858 19.4607 6.66527C19.8759 7.10195 20.1011 7.69687 20.0839 8.31129L20.4903 10.6221M14.4101 15.8213H14.6526M4.76873 15.8223H3M8.91821 15.8223C8.92435 16.6981 8.42277 17.4912 7.64801 17.8308C6.87324 18.1704 5.97838 17.9894 5.38186 17.3724C4.78535 16.7553 4.60505 15.8243 4.92527 15.0146C5.24549 14.2048 6.00295 13.6764 6.84348 13.6763C7.39172 13.6743 7.91831 13.8992 8.3074 14.3016C8.69649 14.7041 8.91621 15.2511 8.91821 15.8223Z" stroke="currentColor" stroke-width="1.5" stroke-linecap="round" stroke-linejoin="round"/>
</svg>
