<svg width="24" height="24" viewBox="0 0 24 24" fill="none" xmlns="http://www.w3.org/2000/svg">
<path d="M11.6332 16.0507C11.611 17.1444 10.7273 18.0148 9.65436 17.9998C8.58144 17.9848 7.72145 17.09 7.72869 15.9962C7.73592 14.9024 8.60768 14.0195 9.68069 14.0193C10.2039 14.0247 10.7035 14.2418 11.0697 14.6227C11.4358 15.0037 11.6385 15.5174 11.6332 16.0507ZM11.6332 16.0507L16.7976 16.0508M16.8012 11.129V16.0508H17.0313M20.9363 16.0508C22.0978 16.0257 23.0206 15.0474 22.9996 13.8632L22.138 8.9415C22.1626 8.36797 21.9554 7.80925 21.5647 7.39579C21.174 6.98234 20.6341 6.75034 20.0709 6.75396H16.7976M16.7976 6.75396V11.129M16.7976 6.75396L16.7976 6.0064C16.7993 5.74106 16.6975 5.48591 16.5145 5.29714C16.3316 5.10838 16.0826 5.00148 15.8223 5H7.03615C6.77602 5.00124 6.52703 5.10777 6.34395 5.29615C6.16087 5.48454 6.0587 5.73935 6.05992 6.00453V15.0453C6.0587 15.3105 6.16087 15.5653 6.34395 15.7537C6.52703 15.9421 6.77602 16.0486 7.03615 16.0498H7.72456M16.7994 11.1281H22.523M1 6.86889H3.86912M1.91665 9.67223H3.74996M2.47581 12.4756H3.74996M20.9326 16.0507C20.9105 17.1444 20.0267 18.0148 18.9538 17.9998C17.8809 17.9848 17.0209 17.09 17.0281 15.9962C17.0354 14.9024 17.9071 14.0195 18.9801 14.0193C19.5033 14.0247 20.003 14.2418 20.3691 14.6227C20.7353 15.0037 20.938 15.5174 20.9326 16.0507Z" stroke="currentColor" stroke-width="1.5" stroke-linecap="round" stroke-linejoin="round"/>
</svg>
