<svg width="24" height="24" viewBox="0 0 24 24" fill="none" xmlns="http://www.w3.org/2000/svg">
<path d="M18.803 16.9562C18.8091 17.7781 18.3076 18.5225 17.5328 18.8412C16.758 19.1599 15.8632 18.99 15.2667 18.4109C14.6701 17.8318 14.4898 16.958 14.8101 16.198C15.1303 15.4381 15.8877 14.9421 16.7283 14.9421C17.2765 14.9401 17.8031 15.1512 18.1922 15.5289C18.5813 15.9067 18.801 16.4201 18.803 16.9562ZM18.803 16.9562C19.3886 16.9537 19.9483 16.7239 20.3605 16.3171C20.7727 15.9104 21.0027 15.3601 21 14.7874L20.4912 12.0766H14.4101V16.9562M14.4101 16.9562H8.91536M14.4101 16.9562H14.6526M14.4091 7.73899H17.8869C18.4767 7.72759 19.0455 7.9531 19.4607 8.36295C19.8759 8.7728 20.1011 9.33116 20.0839 9.90781L20.4903 12.0766M14.4082 12.0766V6.99783C14.404 6.44303 13.941 5.99645 13.3737 6.00004H4.03737C3.76475 5.99757 3.5023 6.10112 3.30775 6.2879C3.1132 6.47467 3.0025 6.72938 3 6.99598V15.9594C3.0025 16.226 3.1132 16.4807 3.30775 16.6675C3.5023 16.8542 3.76475 16.9578 4.03737 16.9553H4.76873M8.91821 16.9562C8.92435 17.7781 8.42277 18.5225 7.64801 18.8412C6.87324 19.1599 5.97838 18.99 5.38186 18.4109C4.78535 17.8318 4.60505 16.958 4.92527 16.198C5.24549 15.4381 6.00295 14.9421 6.84348 14.9421C7.39172 14.9401 7.91831 15.1512 8.3074 15.5289C8.69649 15.9067 8.91621 16.4201 8.91821 16.9562Z" stroke="currentColor" stroke-width="1.5" stroke-linecap="round" stroke-linejoin="round"/>
</svg>
