<svg width="24" height="24" viewBox="0 0 24 24" fill="none" xmlns="http://www.w3.org/2000/svg">
<path fill-rule="evenodd" clip-rule="evenodd" d="M7.05148 19.1653L5.28756 20.9369L3 18.6396L11.2188 10.3938C10.1171 8.10785 10.8415 5.359 12.9261 3.91515C15.0107 2.47131 17.8348 2.76241 19.5819 4.60125C21.3291 6.44009 21.4791 9.27908 19.9356 11.2923C18.392 13.3056 15.6144 13.8936 13.3892 12.6781L8.87073 17.2159L10.7582 19.1125L8.87845 21L7.05148 19.1653Z" stroke="currentColor" stroke-width="1.5" stroke-linecap="round" stroke-linejoin="round"/>
<path fill-rule="evenodd" clip-rule="evenodd" d="M17.3172 6.67289C18.1195 7.47855 18.1182 8.78272 17.3144 9.58683C16.5107 10.391 15.2084 10.391 14.4046 9.58683C13.6009 8.78272 13.5996 7.47855 14.4018 6.67289C15.2088 5.87141 16.5102 5.87141 17.3172 6.67289Z" stroke="currentColor" stroke-width="1.5" stroke-linecap="round" stroke-linejoin="round"/>
</svg>
