<svg width="24" height="24" viewBox="0 0 24 24" fill="none" xmlns="http://www.w3.org/2000/svg">
<path d="M7.69201 7.15714C5.48871 7.76654 3.97548 9.75183 4.00069 12V17C3.95533 19.7157 6.15905 21.9538 8.9239 22H15.0761C17.8409 21.9538 20.0447 19.7157 19.9993 17V12C20.0245 9.75183 18.5113 7.76654 16.308 7.15714M7.69201 7.15714V6.5C7.61857 4.08965 9.54617 2.07615 12 2C14.4538 2.07615 16.3814 4.08965 16.308 6.5V7.15714M7.69201 7.15714C8.09346 7.05245 8.50852 6.99962 8.92388 6.99999H15.0775C15.4929 6.99962 15.9065 7.05245 16.308 7.15714M12 17V14.5" stroke="currentColor" stroke-width="1.5" stroke-linecap="round" stroke-linejoin="round"/>
</svg>
