<svg width="24" height="24" viewBox="0 0 24 24" fill="none" xmlns="http://www.w3.org/2000/svg">
<path d="M12 17V14.5M7.69201 7.15714V6.5C7.61857 4.08965 9.54617 2.07615 12 2C13.5417 2.01746 14.7621 2.67032 15.5 4M7.69201 7.15714C8.09346 7.05245 8.50709 6.99962 8.92245 7H15.0761C15.4915 6.99962 15.9051 7.05245 16.3065 7.15714C18.5104 7.76601 20.0243 9.75143 19.9993 12V17C20.0447 19.7157 17.8409 21.9538 15.0761 22H8.9239C6.15905 21.9538 3.95533 19.7157 4.00069 17V12C3.97548 9.75183 5.48871 7.76654 7.69201 7.15714Z" stroke="currentColor" stroke-width="1.5" stroke-linecap="round" stroke-linejoin="round"/>
</svg>
