<svg width="24" height="24" viewBox="0 0 24 24" fill="none" xmlns="http://www.w3.org/2000/svg">
<path d="M12.0043 15.9993V13.9994M8.00361 9.25543V6.19989C7.97245 3.91355 9.76307 2.03382 12.0043 2.00014C14.2455 1.96645 15.3 3.30015 15.6 4.05014M8.00361 9.25543C10.4177 7.57944 13.5908 7.57944 16.005 9.25543C16.3437 9.49117 16.6614 9.75695 16.9544 10.0497C17.9283 11.0226 18.5941 12.271 18.8658 13.6337C19.1357 14.992 18.9965 16.4017 18.4667 17.6778C17.9319 18.9634 17.0339 20.0574 15.8873 20.8205C13.1036 22.6742 9.43229 22.3129 7.0472 19.9505C4.68861 17.6113 4.32384 13.8793 6.18321 11.111C6.67096 10.3815 7.28841 9.753 8.00361 9.25543Z" stroke="currentColor" stroke-width="1.5" stroke-linecap="round" stroke-linejoin="round"/>
</svg>
