<svg width="24" height="24" viewBox="0 0 24 24" fill="none" xmlns="http://www.w3.org/2000/svg">
<path d="M12.0043 15.9992V13.9993M16.0049 9.25529V6.19976C16.0361 3.91342 14.2455 2.03368 12.0043 2C9.76307 2.03368 7.97245 3.91342 8.00361 6.19976V9.25529M16.0049 9.25529C13.5908 7.5793 10.4177 7.5793 8.00361 9.25529M16.0049 9.25529C16.3437 9.49103 16.6614 9.75681 16.9544 10.0495C17.9283 11.0225 18.5941 12.2709 18.8658 13.6336C19.1357 14.9918 18.9965 16.4016 18.4667 17.6777C17.9319 18.9633 17.0339 20.0573 15.8873 20.8203C13.1035 22.674 9.43229 22.3127 7.0472 19.9504C4.68861 17.6111 4.32384 13.8792 6.18321 11.1109C6.67096 10.3813 7.28841 9.75286 8.00361 9.25529" stroke="currentColor" stroke-width="1.5" stroke-linecap="round" stroke-linejoin="round"/>
</svg>
