<svg width="24" height="24" viewBox="0 0 24 24" fill="none" xmlns="http://www.w3.org/2000/svg">
<path d="M12 16.9988V14.499M16.6662 7.91248C18.7072 9.02764 19.9805 11.134 20 13.4277V15.5703C19.9119 19.2038 16.8433 22.0805 13.1433 21.9983H10.8567C7.15668 22.0805 4.08815 19.2038 4 15.5703V13.4277C4.01923 11.1343 5.29334 9.02801 7.33382 7.91248C8.40722 7.31103 9.62091 6.99633 10.8567 6.99971H13.1433C14.3791 6.99633 15.5942 7.31104 16.6676 7.91248M7.69201 7.15714V6.5C7.61857 4.08965 9.54617 2.07615 12 2C13.5417 2.01746 14.7621 2.67032 15.5 4" stroke="currentColor" stroke-width="1.5" stroke-linecap="round" stroke-linejoin="round"/>
</svg>
