<svg width="24" height="24" viewBox="0 0 24 24" fill="none" xmlns="http://www.w3.org/2000/svg">
<path d="M3.00098 12C2.99921 10.2265 3.50994 8.49032 4.47171 7.00029C5.41841 5.5307 6.78181 4.37677 8.38766 3.686C9.97635 3.00517 11.7351 2.82575 13.4285 3.17176C15.1312 3.52539 16.6877 4.38428 17.8947 5.63626C18.9246 6.70211 19.6772 8.00435 20.0867 9.42879M20.0867 9.42879L20.9994 5.91652M20.0867 9.42879L16.6811 8.48773M20.9994 12C21.0012 13.7735 20.4905 15.5097 19.5287 16.9997C18.582 18.4693 17.2186 19.6232 15.6128 20.314C14.0241 20.9948 12.2653 21.1742 10.5719 20.8282C8.86919 20.4746 7.3127 19.6157 6.10571 18.3637C5.07584 17.2979 4.32319 15.9956 3.91376 14.5712M3.91376 14.5712L3.00098 18.0835M3.91376 14.5712L7.31932 15.5123" stroke="currentColor" stroke-width="1.5" stroke-linecap="round"/>
</svg>
