<svg width="24" height="25" viewBox="0 0 24 25" fill="none" xmlns="http://www.w3.org/2000/svg">
<path d="M18.4286 10L21 7.5M21 7.5L18.4286 5M21 7.5H18.0429C15.8773 7.49795 13.8562 8.55608 12.666 10.315L11.1874 12.5M11.1874 12.5L9.70886 14.685C8.51991 16.4421 6.50172 17.4999 4.33843 17.5H3M11.1874 12.5L12.666 14.685C13.8562 16.4439 15.8773 17.502 18.0429 17.5H21M11.1874 12.5L9.70886 10.315C8.51991 8.55793 6.50172 7.50006 4.33843 7.5H3M21 17.5L18.4286 15M21 17.5L18.4286 20" stroke="currentColor" stroke-width="1.5" stroke-linecap="round"/>
</svg>
