<svg width="24" height="24" viewBox="0 0 24 24" fill="none" xmlns="http://www.w3.org/2000/svg">
<path d="M15.4286 6.375V3M8.57143 6.375V3M8.57143 11.1967C8.57143 9.2685 12 9.2685 12 11.1967C11.9662 11.7545 11.7038 12.2748 11.2728 12.6383C10.8419 13.0019 10.2793 13.1776 9.71429 13.125C10.2793 13.0724 10.8419 13.2481 11.2728 13.6117C11.7038 13.9752 11.9662 14.4955 12 15.0532C12 16.9815 8.57143 16.9815 8.57143 15.0532M14.2857 10.7141L15.4286 9.75V16.5M4 9.75V16.5C4 18.9853 6.0467 21 8.57143 21H15.4286C17.9533 21 20 18.9853 20 16.5V9.75C20 7.26472 17.9533 5.25 15.4286 5.25H8.57143C6.0467 5.25 4 7.26472 4 9.75Z" stroke="currentColor" stroke-width="1.5" stroke-linecap="round" stroke-linejoin="round"/>
</svg>
