<svg width="24" height="24" viewBox="0 0 24 24" fill="none" xmlns="http://www.w3.org/2000/svg">
<path d="M7.82143 6.375C7.82143 6.78921 8.15722 7.125 8.57143 7.125C8.98564 7.125 9.32143 6.78921 9.32143 6.375H8.57143H7.82143ZM9.32143 3C9.32143 2.58579 8.98564 2.25 8.57143 2.25C8.15722 2.25 7.82143 2.58579 7.82143 3H8.57143H9.32143ZM14.6786 6.375C14.6786 6.78921 15.0144 7.125 15.4286 7.125C15.8428 7.125 16.1786 6.78921 16.1786 6.375H15.4286H14.6786ZM16.1786 3C16.1786 2.58579 15.8428 2.25 15.4286 2.25C15.0144 2.25 14.6786 2.58579 14.6786 3H15.4286H16.1786ZM10.2404 10.3405C9.94523 10.0499 9.47037 10.0537 9.1798 10.3489C8.88922 10.6441 8.89296 11.1189 9.18815 11.4095L9.71429 10.875L10.2404 10.3405ZM13.7596 15.9095C14.0548 16.2001 14.5296 16.1963 14.8202 15.9011C15.1108 15.6059 15.107 15.1311 14.8119 14.8405L14.2857 15.375L13.7596 15.9095ZM9.18815 14.8405C8.89296 15.1311 8.88922 15.6059 9.1798 15.9011C9.47037 16.1963 9.94523 16.2001 10.2404 15.9095L9.71429 15.375L9.18815 14.8405ZM14.8119 11.4095C15.107 11.1189 15.1108 10.6441 14.8202 10.3489C14.5296 10.0537 14.0548 10.0499 13.7596 10.3405L14.2857 10.875L14.8119 11.4095ZM8.57143 5.25V4.5C5.64366 4.5 3.25 6.83941 3.25 9.75H4H4.75C4.75 7.69002 6.44973 6 8.57143 6V5.25ZM4 9.75H3.25V16.5H4H4.75V9.75H4ZM4 16.5H3.25C3.25 19.4106 5.64366 21.75 8.57143 21.75V21V20.25C6.44973 20.25 4.75 18.56 4.75 16.5H4ZM8.57143 21V21.75H15.4286V21V20.25H8.57143V21ZM15.4286 21V21.75C18.3563 21.75 20.75 19.4106 20.75 16.5H20H19.25C19.25 18.56 17.5503 20.25 15.4286 20.25V21ZM20 16.5H20.75V9.75H20H19.25V16.5H20ZM20 9.75H20.75C20.75 6.83941 18.3563 4.5 15.4286 4.5V5.25V6C17.5503 6 19.25 7.69002 19.25 9.75H20ZM8.57143 5.25V6H15.4286V5.25V4.5H8.57143V5.25ZM8.57143 5.25H7.82143V6.375H8.57143H9.32143V5.25H8.57143ZM8.57143 5.25H9.32143V3H8.57143H7.82143V5.25H8.57143ZM15.4286 5.25H14.6786V6.375H15.4286H16.1786V5.25H15.4286ZM15.4286 5.25H16.1786V3H15.4286H14.6786V5.25H15.4286ZM9.71429 10.875L9.18815 11.4095L11.4739 13.6595L12 13.125L12.5261 12.5905L10.2404 10.3405L9.71429 10.875ZM12 13.125L11.4739 13.6595L13.7596 15.9095L14.2857 15.375L14.8119 14.8405L12.5261 12.5905L12 13.125ZM12 13.125L11.4739 12.5905L9.18815 14.8405L9.71429 15.375L10.2404 15.9095L12.5261 13.6595L12 13.125ZM12 13.125L12.5261 13.6595L14.8119 11.4095L14.2857 10.875L13.7596 10.3405L11.4739 12.5905L12 13.125Z" fill="#202027"/>
</svg>
