<svg width="24" height="24" viewBox="0 0 24 24" fill="none" xmlns="http://www.w3.org/2000/svg">
<path d="M12 5.52941C7.44365 5.52941 3.75 9.21648 3.75 13.7647C3.75 18.3129 7.44365 22 12 22C16.5563 22 20.25 18.3129 20.25 13.7647C20.25 11.5806 19.3808 9.48589 17.8336 7.94147C16.2865 6.39706 14.188 5.52941 12 5.52941ZM12 5.52941V2M15.4945 10.2353L12.6659 13.0588M14.3571 2H9.64286M20.25 5.41176L17.8929 8M3.75 5.41176L6.225 7.88235M13.1786 14.3117C13.1786 15.2863 12.3871 16.0764 11.4107 16.0764C10.4344 16.0764 9.64286 15.2863 9.64286 14.3117C9.64286 13.3371 10.4344 12.547 11.4107 12.547C12.3871 12.547 13.1786 13.3371 13.1786 14.3117Z" stroke="currentColor" stroke-width="1.5" stroke-linecap="round" stroke-linejoin="round"/>
</svg>
