<svg width="24" height="24" viewBox="0 0 24 24" fill="none" xmlns="http://www.w3.org/2000/svg">
<path d="M17.355 3V7.5C17.3936 8.46344 16.913 9.37038 16.105 9.85929L13.365 11.2877C12.5089 11.7432 11.4911 11.7432 10.635 11.2877L7.89251 9.85929C7.08448 9.37038 6.60396 8.46344 6.64251 7.5V3M17.355 3H6.64251M17.355 3H19.5M6.64251 3H4.5M19.5 21H4.5M6.6425 21V17.0631C6.60395 16.0997 7.08447 15.1928 7.8925 14.7039L10.635 13.2741C11.4915 12.8182 12.5098 12.8182 13.3662 13.2741L16.105 14.7C16.913 15.1889 17.3935 16.0958 17.355 17.0593V21" stroke="currentColor" stroke-width="1.5" stroke-linecap="round" stroke-linejoin="round"/>
</svg>
