<svg width="24" height="24" viewBox="0 0 24 24" fill="none" xmlns="http://www.w3.org/2000/svg">
<path d="M10.9997 10.1049V13.1507H14.0006M19.7143 21L16.9654 17.1429M18.3 3C19.6371 3.11724 20.7368 4.10222 21 5.41843M7.03329 17.1429C5.72542 15.8046 4.99545 14.0062 5.00057 12.135C4.97206 8.24045 8.10546 5.05986 12 5.03014C15.8945 5.05986 19.0279 8.24045 18.9994 12.135C19.0287 16.03 15.895 19.2114 12 19.2411C10.129 19.2411 8.33757 18.4843 7.03329 17.1429ZM7.03329 17.1429L4.28571 21M5.7 3C4.36286 3.11724 3.26321 4.10222 3 5.41843" stroke="currentColor" stroke-width="1.5" stroke-linecap="round" stroke-linejoin="round"/>
</svg>
