<svg width="24" height="24" viewBox="0 0 24 24" fill="none" xmlns="http://www.w3.org/2000/svg">
<path fill-rule="evenodd" clip-rule="evenodd" d="M8.68029 10.2001H5.034C4.49898 10.1959 3.9841 10.3903 3.60265 10.7404C3.22119 11.0906 3.00441 11.5678 3 12.0671V19.1333C3.0099 20.1726 3.92037 21.0078 5.034 20.9992H8.68029C9.21531 21.0033 9.73018 20.8089 10.1116 20.4588C10.4931 20.1087 10.7099 19.6314 10.7143 19.1321V12.0671C10.7099 11.5678 10.4931 11.0906 10.1116 10.7404C9.73018 10.3903 9.21531 10.1959 8.68029 10.2001Z" stroke="currentColor" stroke-width="1.5" stroke-linecap="round" stroke-linejoin="round"/>
<path fill-rule="evenodd" clip-rule="evenodd" d="M8.68029 3.00072H5.034C3.94276 2.97248 3.0329 3.77384 3 4.79218V6.00888C3.0329 7.02721 3.94276 7.82858 5.034 7.80033H8.68029C9.77153 7.82858 10.6814 7.02721 10.7143 6.00888V4.79218C10.6814 3.77384 9.77153 2.97248 8.68029 3.00072Z" stroke="currentColor" stroke-width="1.5" stroke-linecap="round" stroke-linejoin="round"/>
<path fill-rule="evenodd" clip-rule="evenodd" d="M15.3197 13.7999H18.9647C19.5 13.8044 20.0152 13.6101 20.3969 13.26C20.7786 12.9098 20.9956 12.4324 21 11.9329V4.86784C20.9956 4.36853 20.7788 3.89131 20.3974 3.54116C20.0159 3.19102 19.501 2.99664 18.966 3.0008H15.3197C14.7847 2.99664 14.2698 3.19102 13.8884 3.54116C13.5069 3.89131 13.2901 4.36853 13.2857 4.86784V11.9329C13.2901 12.4322 13.5069 12.9094 13.8884 13.2595C14.2698 13.6097 14.7847 13.8041 15.3197 13.7999Z" stroke="currentColor" stroke-width="1.5" stroke-linecap="round" stroke-linejoin="round"/>
<path fill-rule="evenodd" clip-rule="evenodd" d="M15.3197 20.9992H18.9647C20.0565 21.0282 20.9671 20.2266 21 19.2078V17.9911C20.9671 16.9728 20.0572 16.1714 18.966 16.1996H15.3197C14.2285 16.1714 13.3186 16.9728 13.2857 17.9911V19.2066C13.3179 20.2254 14.228 21.0275 15.3197 20.9992Z" stroke="currentColor" stroke-width="1.5" stroke-linecap="round" stroke-linejoin="round"/>
</svg>
