<svg width="24" height="24" viewBox="0 0 24 24" fill="none" xmlns="http://www.w3.org/2000/svg">
<path fill-rule="evenodd" clip-rule="evenodd" d="M8.71253 13.5998H5.68747C5.2436 13.5961 4.81644 13.7689 4.49997 14.0801C4.18351 14.3913 4.00366 14.8155 4 15.2594V18.3407C4.00821 19.2646 4.76356 20.007 5.68747 19.9993H8.71253C9.1564 20.003 9.58356 19.8302 9.90003 19.5189C10.2165 19.2077 10.3963 18.7835 10.4 18.3397V15.2594C10.3963 14.8155 10.2165 14.3913 9.90003 14.0801C9.58356 13.7689 9.1564 13.5961 8.71253 13.5998Z" stroke="currentColor" stroke-width="1.5" stroke-linecap="round" stroke-linejoin="round"/>
<path fill-rule="evenodd" clip-rule="evenodd" d="M8.71253 4.00064H5.68747C4.78214 3.97553 4.02729 4.68786 4 5.59305V8.80771C4.02729 9.7129 4.78214 10.4252 5.68747 10.4001H8.71253C9.61786 10.4252 10.3727 9.7129 10.4 8.80771V5.59305C10.3727 4.68786 9.61786 3.97553 8.71253 4.00064Z" stroke="currentColor" stroke-width="1.5" stroke-linecap="round" stroke-linejoin="round"/>
<path fill-rule="evenodd" clip-rule="evenodd" d="M15.2875 10.4002H18.3115C18.7555 10.4042 19.183 10.2315 19.4996 9.92024C19.8163 9.60897 19.9963 9.18461 20 8.74058V5.66031C19.9963 5.21647 19.8165 4.79227 19.5 4.48103C19.1836 4.1698 18.7564 3.99702 18.3125 4.00071H15.2875C14.8436 3.99702 14.4164 4.1698 14.1 4.48103C13.7835 4.79227 13.6037 5.21647 13.6 5.66031V8.74058C13.6037 9.18442 13.7835 9.60862 14.1 9.91986C14.4164 10.2311 14.8436 10.4039 15.2875 10.4002Z" stroke="currentColor" stroke-width="1.5" stroke-linecap="round" stroke-linejoin="round"/>
<path fill-rule="evenodd" clip-rule="evenodd" d="M15.2875 19.9993H18.3115C19.2172 20.025 19.9727 19.3125 20 18.4069V15.1923C19.9727 14.2871 19.2179 13.5747 18.3125 13.5999H15.2875C14.3821 13.5747 13.6273 14.2871 13.6 15.1923V18.4059C13.6267 19.3115 14.3817 20.0244 15.2875 19.9993Z" stroke="currentColor" stroke-width="1.5" stroke-linecap="round" stroke-linejoin="round"/>
</svg>
