<svg width="24" height="24" viewBox="0 0 24 24" fill="none" xmlns="http://www.w3.org/2000/svg">
<path d="M20.7617 15.4506C19.9751 17.3264 18.5243 18.8977 16.6482 19.906C14.8116 20.886 12.6577 21.2226 10.5768 20.8549C8.4778 20.4732 6.58946 19.4198 5.24067 17.8782C2.40042 14.6176 2.24534 9.99965 4.8613 6.58104C6.10313 4.95728 7.91573 3.78643 9.98699 3.27006C12.0338 2.76989 14.206 2.96883 16.1082 3.83068C18.0475 4.71714 19.6014 6.19378 20.5111 8.01473L20.5762 8.14331C21.5648 10.2379 20.8143 13.8009 18.4246 13.8009C17.1055 13.7735 16.0596 12.759 16.0874 11.534M16.0874 12.0008C16.1245 13.9532 14.4514 15.5645 12.3491 15.601C10.2462 15.5652 8.5723 13.9537 8.60934 12.0008C8.57229 10.0483 10.2453 8.43707 12.3477 8.40047C14.4506 8.43637 16.1245 10.0478 16.0874 12.0008Z" stroke="currentColor" stroke-width="1.5" stroke-linecap="round" stroke-linejoin="round"/>
</svg>
