<svg width="24" height="24" viewBox="0 0 24 24" fill="none" xmlns="http://www.w3.org/2000/svg">
<path d="M15.4357 10.7833L10.3045 16.2636C9.86926 16.7499 9.24978 17.0311 8.59714 17.0387C7.9445 17.0463 7.31866 16.7795 6.8722 16.3035C5.88595 15.274 5.90251 13.6454 6.90949 12.6362L13.8012 5.26696C14.5613 4.42075 15.6433 3.93453 16.7809 3.92792C17.9184 3.92131 19.006 4.39493 19.7759 5.23225C21.4183 7.04705 21.4066 9.81439 19.7489 11.6152L12.4419 19.4217C11.4019 20.4654 9.9785 21.0355 8.50554 20.9983C7.03258 20.9611 5.63974 20.3198 4.65385 19.2249C2.40033 16.6833 2.45609 12.8431 4.78245 10.368L11.6844 3" stroke="currentColor" stroke-width="1.5" stroke-linecap="round" stroke-linejoin="round"/>
</svg>
