<svg width="24" height="24" viewBox="0 0 24 24" fill="none" xmlns="http://www.w3.org/2000/svg">
<path fill-rule="evenodd" clip-rule="evenodd" d="M11.1 21C10.6287 21 10.2266 20.6589 10.1499 20.1939C10.0792 19.8176 9.80835 19.5103 9.44401 19.3929C9.14713 19.2909 8.85686 19.1707 8.57487 19.0329C8.23931 18.8612 7.83678 18.8869 7.52572 19.0997C7.1493 19.3704 6.63221 19.3285 6.3043 19.0007L5.02887 17.7253C4.68562 17.382 4.64102 16.8408 4.92344 16.446C5.14125 16.1278 5.17262 15.7175 5.00573 15.3699C4.89576 15.1283 4.79877 14.8811 4.71515 14.6293C4.59541 14.2324 4.26487 13.9351 3.85758 13.8579C3.36642 13.7794 3.00383 13.3575 3.00001 12.8601V11.2646C2.9974 10.6912 3.41149 10.2009 3.97715 10.1074C4.40628 10.0258 4.76461 9.73188 4.92858 9.327C4.97744 9.213 5.02887 9.09986 5.08287 8.98757C5.30095 8.56771 5.27083 8.062 5.00444 7.671C4.67129 7.20798 4.72245 6.57183 5.1253 6.168L6.06258 5.23071C6.52486 4.76827 7.25394 4.70842 7.78544 5.08929L7.81501 5.10986C8.21189 5.37698 8.71692 5.42536 9.15729 5.23843C9.62841 5.06886 9.97562 4.66402 10.0714 4.17257L10.0843 4.12886C10.1902 3.47825 10.752 3.00027 11.4111 3H12.5426C13.2195 2.99969 13.7973 3.48931 13.908 4.15714L13.9286 4.24714C14.0195 4.71794 14.3487 5.10756 14.7977 5.27571C15.2305 5.46146 15.7281 5.41295 16.1169 5.14714L16.1811 5.10086C16.7264 4.70787 17.4763 4.76831 17.9516 5.24357L18.8143 6.10757C19.2466 6.54235 19.301 7.22605 18.9429 7.72371C18.6623 8.13967 18.6265 8.67418 18.849 9.12386L18.9043 9.25243C19.0845 9.69145 19.4744 10.0097 19.9406 10.0984C20.5499 10.1978 20.998 10.7231 21 11.3404V12.7714C20.9998 13.3158 20.6061 13.7802 20.0691 13.8694C19.6275 13.9541 19.2677 14.2739 19.1319 14.7026C19.0719 14.874 19.005 15.0454 18.9313 15.2169C18.7597 15.5935 18.7978 16.0325 19.0316 16.374C19.3401 16.8032 19.2922 17.3927 18.9184 17.7664L17.7214 18.9647C17.3791 19.307 16.8393 19.351 16.446 19.0689C16.1177 18.8446 15.6924 18.8198 15.3403 19.0046C15.0894 19.1288 14.8319 19.2392 14.5689 19.335C14.2011 19.4619 13.93 19.7767 13.8591 20.1591C13.7842 20.6404 13.3716 20.9964 12.8846 21H11.1Z" stroke="currentColor" stroke-width="1.5" stroke-linecap="round" stroke-linejoin="round"/>
<path fill-rule="evenodd" clip-rule="evenodd" d="M14.9996 12C14.9996 13.6566 13.6566 14.9996 12 14.9996C10.3434 14.9996 9.00044 13.6566 9.00044 12C9.00044 10.3434 10.3434 9.00043 12 9.00043C13.6566 9.00043 14.9996 10.3434 14.9996 12Z" stroke="currentColor" stroke-width="1.5" stroke-linecap="round" stroke-linejoin="round"/>
</svg>
