<svg width="24" height="24" viewBox="0 0 24 24" fill="none" xmlns="http://www.w3.org/2000/svg">
<path d="M12.0181 14C12.0181 15.1249 11.6431 16.7717 14.1918 16.7717C14.7072 16.7614 15.222 16.8102 15.7268 16.917C17.3218 17.295 16.9631 19.447 16.9631 21M8.46438 4.53178C9.39421 3.55227 10.669 3 12 3C13.331 3 14.6058 3.55227 15.5356 4.53178C17.4881 6.58768 17.4881 9.87051 15.5356 11.9264L14.6519 12.8507C13.9544 13.5854 12.9983 13.9996 12 13.9996C11.0017 13.9996 10.0456 13.5854 9.34812 12.8507L8.46438 11.9264C6.51187 9.87051 6.51187 6.58768 8.46438 4.53178Z" stroke="currentColor" stroke-width="1.5" stroke-linecap="round" stroke-linejoin="round"/>
</svg>
