<svg width="24" height="24" viewBox="0 0 24 24" fill="none" xmlns="http://www.w3.org/2000/svg">
<path fill-rule="evenodd" clip-rule="evenodd" d="M14.2729 6.00219C15.5612 5.96332 16.812 6.44367 17.7498 7.33747C18.6876 8.23126 19.2355 9.46518 19.2729 10.7675C19.2734 11.2304 19.2036 11.6907 19.0657 12.1321C20.7272 12.402 21.9614 13.8323 22 15.5328C21.9409 17.5039 20.3143 19.0544 18.3643 18.9985H5.63571C3.6857 19.0544 2.0591 17.5039 2 15.5328C2.03276 13.9108 3.16082 12.5228 4.72857 12.1755C4.72857 12.1389 4.72857 12.1028 4.72857 12.0672C4.78767 10.0961 6.41428 8.5456 8.36429 8.60146C8.81971 8.60083 9.27158 8.6825 9.69857 8.84261C10.5524 7.08198 12.3333 5.97613 14.2729 6.00219Z" stroke="currentColor" stroke-width="1.5" stroke-linecap="round" stroke-linejoin="round"/>
</svg>
