<svg width="24" height="24" viewBox="0 0 24 24" fill="none" xmlns="http://www.w3.org/2000/svg">
<path d="M10.2461 16.6189V18.5207C10.2228 19.0363 10.6133 19.474 11.1197 19.5H12.8808C13.3872 19.474 13.7777 19.0363 13.7545 18.5207V16.6189M10.2461 16.6189C7.76314 15.6915 6.35432 13.0202 6.96696 10.4014C7.5796 7.78261 10.02 6.04426 12.6471 6.35537C15.2742 6.66647 17.2573 8.92866 17.2629 11.6207C17.2559 13.8764 15.8487 15.8811 13.7545 16.6189M10.2461 16.6189H13.7545M22 11.6207H19.8947M4.10526 11.6207H2M19.0716 4.5L17.5789 6M6.42105 17.2425L4.93263 18.7425M19.0747 18.7425L17.5863 17.2425M6.42105 6L4.92842 4.5" stroke="currentColor" stroke-width="1.5" stroke-linecap="round" stroke-linejoin="round"/>
</svg>
