<svg width="24" height="24" viewBox="0 0 24 24" fill="none" xmlns="http://www.w3.org/2000/svg">
<path d="M7.5 16.5009L6.375 21M10.875 16.5009L9.75 19.8752M14.25 16.5009L13.125 21M17.625 16.5009L16.5 19.8752M18.5456 7.1275C18.4372 4.7486 16.4254 2.90505 14.0456 3.00379C12.3176 2.97174 10.7218 3.92502 9.93129 5.46156C9.54612 5.323 9.13977 5.25253 8.73043 5.25332C6.9983 5.17926 5.53294 6.52069 5.45443 8.25226C5.45443 8.28397 5.45443 8.31525 5.45443 8.3461C4.06037 8.62729 3.04359 9.83131 3 11.2525C3.07853 12.9825 4.54149 14.3233 6.27214 14.2514H17.7266C19.4577 14.324 20.9215 12.983 21 11.2525C20.947 9.76165 19.8346 8.52232 18.3579 8.30882C18.4823 7.92739 18.5456 7.5287 18.5456 7.1275Z" stroke="currentColor" stroke-width="1.5" stroke-linecap="round" stroke-linejoin="round"/>
</svg>
