<svg width="24" height="24" viewBox="0 0 24 24" fill="none" xmlns="http://www.w3.org/2000/svg">
<path d="M12.8243 3.98442V21M12.8243 10.4892C14.3234 10.6748 15.8448 10.4211 17.1982 9.75969C17.6389 9.52464 18.0421 9.22695 18.3947 8.8762C18.7355 8.50034 19.0203 8.07874 19.2407 7.62403C19.8793 6.1896 20.1216 4.61448 19.9429 3.05822C18.4433 2.87397 16.9219 3.12929 15.569 3.79221C15.1282 4.02726 14.7251 4.32495 14.3725 4.6757C14.0319 5.05053 13.7471 5.47097 13.5264 5.9245C13.1325 6.75761 12.895 7.65406 12.8254 8.57047M4 6.85064C4.11785 8.48587 4.69452 10.0568 5.66576 11.3884C5.98237 11.7834 6.3622 12.1251 6.79034 12.4C7.22734 12.6456 7.70324 12.817 8.19807 12.9069C9.78371 13.1148 11.3961 12.8452 12.8231 12.1336C12.7065 10.4969 12.1302 8.92436 11.1585 7.59138C10.8419 7.19632 10.4621 6.85464 10.0339 6.57975C9.59673 6.33531 9.12084 6.16508 8.62621 6.07618C7.04009 5.86846 5.42725 6.13846 4 6.85064Z" stroke="currentColor" stroke-width="1.5" stroke-linecap="round" stroke-linejoin="round"/>
</svg>
