<svg width="24" height="24" viewBox="0 0 24 24" fill="none" xmlns="http://www.w3.org/2000/svg">
<path d="M14.3097 5.25L12 7.05M12 7.05L9.69029 5.25M12 7.05V3M12 7.05V16.95M12 16.95L9.69029 18.75M12 16.95L14.3097 18.75M12 16.95V21M4.84571 13.4265L7.6 14.475M7.6 14.475L7.15429 17.3235M7.6 14.475L4 16.5M7.6 14.475L16.4 9.525M16.4 9.525L19.1543 10.5735M16.4 9.525L16.8457 6.6765M16.4 9.525L20 7.5M4.84571 10.5735L7.6 9.525M7.6 9.525L7.15429 6.6765M7.6 9.525L4 7.5M7.6 9.525L16.4 14.475M16.4 14.475L19.1543 13.4265M16.4 14.475L16.8457 17.3235M16.4 14.475L20 16.5" stroke="currentColor" stroke-width="1.5" stroke-linecap="round" stroke-linejoin="round"/>
</svg>
