<svg width="24" height="24" viewBox="0 0 24 24" fill="none" xmlns="http://www.w3.org/2000/svg">
<path fill-rule="evenodd" clip-rule="evenodd" d="M14.3773 7.51929L12 3L9.62271 7.51929C9.45477 7.84954 9.21169 8.13578 8.913 8.355C8.61286 8.57534 8.26556 8.72281 7.89857 8.78571L3 9.74614L6.42 13.836C6.88771 14.3486 7.1084 15.0398 7.02429 15.7286L6.37371 21L10.884 18.8143C11.2319 18.6458 11.6134 18.5579 12 18.5571C12.3627 18.5582 12.7199 18.6464 13.0414 18.8143L17.6571 20.865L17.0066 15.6566C16.9243 14.9693 17.1454 14.2803 17.6121 13.7691L21 9.74614L16.1014 8.78571C15.734 8.723 15.3862 8.57553 15.0857 8.355C14.7875 8.13563 14.5449 7.8494 14.3773 7.51929Z" stroke="currentColor" stroke-width="1.5" stroke-linecap="round" stroke-linejoin="round"/>
</svg>
