<svg width="24" height="24" viewBox="0 0 24 24" fill="none" xmlns="http://www.w3.org/2000/svg">
<path d="M12 14.1022C11.2055 15.1168 9.97284 15.71 8.66714 15.7061C6.47053 15.7447 4.63446 14.0786 4.507 11.9311C4.37955 9.78353 6.00616 7.9204 8.19254 7.70964C7.9555 7.19756 7.83313 6.64174 7.83365 6.07951C7.83365 3.82646 9.69899 2 12 2C14.301 2 16.1663 3.82646 16.1663 6.07951C16.1669 6.64174 16.0445 7.19756 15.8075 7.70964C17.9938 7.9204 19.6205 9.78353 19.493 11.9311C19.3655 14.0786 17.5295 15.7447 15.3329 15.7061C14.0272 15.71 12.7945 15.1168 12 14.1022ZM12 14.1022V22M12 14.1022V12.0189M12 12.0189V9.93664M12 12.0189L14.6783 13.0836M12 8.88765V9.93664M12 9.93664L9.85737 11.5101" stroke="currentColor" stroke-width="1.5" stroke-linecap="round" stroke-linejoin="round"/>
</svg>
