<svg width="24" height="24" viewBox="0 0 24 24" fill="none" xmlns="http://www.w3.org/2000/svg">
<path d="M6.00036 16.5L4.00048 8.00014C3.97076 6.37331 5.31335 5.03083 7.0003 5.00057C7.74702 5.00187 8.46511 5.27776 9.00818 5.772C9.09811 4.23471 10.4036 3.02518 12 3C13.5964 3.02518 14.9019 4.23471 14.9918 5.772C15.5349 5.27776 16.253 5.00187 16.9997 5.00057C18.6867 5.03083 20.0292 6.37331 19.9995 8.00014L17.9996 16.5M6.00036 16.5H9.00018M6.00036 16.5L6.00036 18.0004C5.91623 19.5264 7.09015 20.847 8.66687 21H15.3331C16.9098 20.847 18.0838 19.5264 17.9996 18.0004L17.9996 16.5M17.9996 16.5H14.9998M9.00018 16.5H12M9.00018 16.5L8.00024 12M12 16.5V12M12 16.5H14.9998M14.9998 16.5L15.9998 12" stroke="currentColor" stroke-width="1.5" stroke-linecap="round"/>
</svg>
