<svg width="24" height="24" viewBox="0 0 24 24" fill="none" xmlns="http://www.w3.org/2000/svg">
<path d="M17.775 12.6219V9.5933H5.25339V17.5315C5.20816 19.6759 6.93358 21.4515 9.10974 21.5M17.775 12.6219H18.5784C19.9909 12.7029 21.0716 13.8934 20.9963 15.2857C21.0694 16.6766 19.9893 17.8647 18.5784 17.9457H17.775C17.6115 19.9264 15.9517 21.4629 13.9353 21.5M17.775 12.6219L17.775 17.9533M13.9353 21.5H9.10974M13.9353 21.5L20.9963 21.5M9.10974 21.5L3 21.5M8.62384 6.97007C7.92792 6.43593 7.51569 5.61937 7.50319 4.75023C7.4907 3.88109 7.87928 3.05335 8.55957 2.5M11.9982 6.97007C11.3022 6.43593 10.89 5.61937 10.8775 4.75023C10.865 3.88109 11.2536 3.05335 11.9339 2.5M15.3725 6.97007C14.6765 6.43593 14.2643 5.61937 14.2518 4.75023C14.2393 3.88109 14.6279 3.05335 15.3082 2.5" stroke="currentColor" stroke-width="1.5" stroke-linecap="round" stroke-linejoin="round"/>
</svg>
