<svg width="24" height="24" viewBox="0 0 24 24" fill="none" xmlns="http://www.w3.org/2000/svg">
<path d="M16.7245 17.4248H17.5403C18.9689 17.349 20.0668 16.1509 19.9968 14.7439C20.0668 13.3365 18.9682 12.1381 17.5391 12.063H16.7233C16.2855 10.2876 14.6791 9.0317 12.8237 9.01426H7.92198C6.86343 9.0323 5.85554 9.46372 5.12011 10.2136C4.38468 10.9634 3.98197 11.9703 4.00062 13.0125V17.0051C3.9637 19.1742 5.71899 20.9624 7.92198 21H12.8248C14.8636 20.9694 16.5483 19.4249 16.7245 17.4248ZM16.7245 17.4248L16.7245 12.063M6.45149 4.00012L7.4284 6.996M10.3728 3V5.99587M14.2953 4.00012L13.315 6.996" stroke="currentColor" stroke-width="1.5" stroke-linecap="round" stroke-linejoin="round"/>
</svg>
