<svg width="24" height="24" viewBox="0 0 24 24" fill="none" xmlns="http://www.w3.org/2000/svg">
<path fill-rule="evenodd" clip-rule="evenodd" d="M3.00695 9.05315C3.07039 8.73161 3.28323 8.46936 3.5685 8.36125C3.85376 8.25314 4.17015 8.31482 4.40325 8.52398L6.13126 9.78392C6.35637 9.93174 6.62924 9.96621 6.87946 9.87844C7.12968 9.79067 7.33275 9.58925 7.43627 9.32614C10.6557 2.28311 18.6851 4.3886 20.9531 11.6878C21.0156 11.8904 21.0156 12.1096 20.9531 12.3122C18.6851 19.6114 10.6557 21.7169 7.43627 14.6739C7.33229 14.4108 7.12878 14.2097 6.87828 14.1225C6.62778 14.0352 6.35486 14.0704 6.12998 14.2189L4.40196 15.4788C4.16852 15.6873 3.85215 15.7482 3.5672 15.6395C3.28224 15.5309 3.06991 15.2684 3.00695 14.9468C2.99116 14.8285 3.00447 14.7078 3.04552 14.5969L3.77067 12.3514C3.84318 12.1247 3.84318 11.8781 3.77067 11.6514L3.0468 9.41154C3.00393 9.29822 2.99016 9.17434 3.00695 9.05315Z" stroke="currentColor" stroke-width="1.5" stroke-linecap="round" stroke-linejoin="round"/>
<path fill-rule="evenodd" clip-rule="evenodd" d="M17.1422 12C17.1422 12.7732 16.5666 13.3999 15.8565 13.3999C15.1464 13.3999 14.5708 12.7732 14.5708 12C14.5708 11.2268 15.1464 10.6001 15.8565 10.6001C16.1975 10.6001 16.5245 10.7476 16.7656 11.0101C17.0068 11.2726 17.1422 11.6287 17.1422 12Z" stroke="currentColor" stroke-width="1.5" stroke-linecap="round" stroke-linejoin="round"/>
</svg>
