<svg width="24" height="24" viewBox="0 0 24 24" fill="none" xmlns="http://www.w3.org/2000/svg">
<path d="M7.545 11.8096C6.19477 11.8614 5.05684 10.8116 5 9.46155C5.02856 8.37819 5.78395 7.45028 6.839 7.20255C6.87949 7.18985 6.90755 7.15297 6.909 7.11055C6.96637 5.76051 8.10476 4.7111 9.455 4.76355C9.50967 4.76355 9.564 4.76355 9.618 4.76355C10.075 4.79007 10.5184 4.60273 10.818 4.25655C11.5115 3.44919 12.5267 2.99009 13.591 3.00255C15.448 2.93095 17.013 4.37483 17.091 6.23155C17.1046 6.7438 17.3787 7.21366 17.818 7.47755C18.5379 7.8805 18.9884 8.63665 19 9.46155C18.9437 10.812 17.8056 11.8624 16.455 11.8106M16.455 11.8106L7.546 11.8106L11.566 20.4946C11.7132 20.8144 12.0381 21.0146 12.39 21.0021C12.7419 20.9897 13.0518 20.767 13.176 20.4376L16.455 11.8106Z" stroke="currentColor" stroke-width="1.5" stroke-linecap="round"/>
</svg>
