<svg width="24" height="24" viewBox="0 0 24 24" fill="none" xmlns="http://www.w3.org/2000/svg">
<path d="M6.08571 13.8L5.34522 13.919L5.34522 13.919L6.08571 13.8ZM6.843 18.5112L7.58576 18.4072C7.58506 18.4022 7.5843 18.3972 7.58349 18.3922L6.843 18.5112ZM6.85714 18.69L6.10727 18.7041C6.10738 18.7094 6.10753 18.7148 6.10775 18.7201L6.85714 18.69ZM9.42857 21V20.25L9.42808 20.25L9.42857 21ZM14.5714 21L14.5716 20.25H14.5714V21ZM17.1364 18.7788L17.884 18.8386L17.8843 18.8349L17.1364 18.7788ZM17.1724 18.4188L17.9129 18.5378L17.9129 18.5377L17.1724 18.4188ZM3 5.85C2.58579 5.85 2.25 6.18579 2.25 6.6C2.25 7.01421 2.58579 7.35 3 7.35V6.6V5.85ZM11.2937 6.34775C11.1544 6.73783 11.3577 7.16699 11.7477 7.30631C12.1378 7.44562 12.567 7.24233 12.7063 6.85225L12 6.6L11.2937 6.34775ZM12.9926 3.8208L13.6989 4.07305L13.6989 4.07287L12.9926 3.8208ZM14.2127 3L14.2125 3.75H14.2127V3ZM15.8571 3.75C16.2714 3.75 16.6071 3.41421 16.6071 3C16.6071 2.58579 16.2714 2.25 15.8571 2.25V3V3.75ZM21 7.35C21.4142 7.35 21.75 7.01421 21.75 6.6C21.75 6.18579 21.4142 5.85 21 5.85V6.6V7.35ZM6.08571 13.8L5.34522 13.919L6.10251 18.6302L6.843 18.5112L7.58349 18.3922L6.82621 13.681L6.08571 13.8ZM6.843 18.5112L6.10024 18.6151C6.10437 18.6447 6.10672 18.6744 6.10727 18.7041L6.85714 18.69L7.60701 18.6759C7.60533 18.586 7.59823 18.4963 7.58576 18.4072L6.843 18.5112ZM6.85714 18.69L6.10775 18.7201C6.17761 20.4578 7.68971 21.7511 9.42906 21.75L9.42857 21L9.42808 20.25C8.40075 20.2507 7.64042 19.5027 7.60654 18.6599L6.85714 18.69ZM9.42857 21V21.75H14.5714V21V20.25H9.42857V21ZM14.5714 21L14.5712 21.75C16.2646 21.7504 17.7492 20.5236 17.884 18.8386L17.1364 18.7788L16.3888 18.719C16.3231 19.5398 15.5705 20.2503 14.5716 20.25L14.5714 21ZM17.1364 18.7788L17.8843 18.8349C17.8943 18.7016 17.8999 18.6191 17.9129 18.5378L17.1724 18.4188L16.4319 18.2998C16.4064 18.4585 16.3965 18.616 16.3885 18.7227L17.1364 18.7788ZM17.1724 18.4188L17.9129 18.5377L18.6548 13.9189L17.9143 13.8L17.1738 13.6811L16.4319 18.2999L17.1724 18.4188ZM17.9143 13.8L18.6548 13.919L19.8119 6.71901L19.0714 6.6L18.3309 6.48099L17.1738 13.681L17.9143 13.8ZM19.0714 6.6V5.85H4.92857V6.6V7.35H19.0714V6.6ZM10.0714 13.8H10.8214C10.8214 12.7317 11.4953 12.15 12 12.15V11.4V10.65C10.3756 10.65 9.32143 12.2283 9.32143 13.8H10.0714ZM12 11.4V12.15C12.5047 12.15 13.1786 12.7317 13.1786 13.8H13.9286H14.6786C14.6786 12.2283 13.6244 10.65 12 10.65V11.4ZM13.9286 13.8H13.1786C13.1786 14.8683 12.5047 15.45 12 15.45V16.2V16.95C13.6244 16.95 14.6786 15.3717 14.6786 13.8H13.9286ZM12 16.2V15.45C11.4953 15.45 10.8214 14.8683 10.8214 13.8H10.0714H9.32143C9.32143 15.3717 10.3756 16.95 12 16.95V16.2ZM4.92857 6.6V5.85H3V6.6V7.35H4.92857V6.6ZM12 6.6L12.7063 6.85225L13.6989 4.07305L12.9926 3.8208L12.2863 3.56855L11.2937 6.34775L12 6.6ZM12.9926 3.8208L13.6989 4.07287C13.7585 3.90592 13.949 3.74994 14.2125 3.75L14.2127 3L14.2129 2.25C13.3691 2.24981 12.5765 2.75518 12.2862 3.56873L12.9926 3.8208ZM14.2127 3V3.75H15.8571V3V2.25H14.2127V3ZM19.0714 6.6V7.35H21V6.6V5.85H19.0714V6.6ZM10.0714 13.8L10.4632 13.1604C9.01284 12.2721 7.1443 12.2721 5.69397 13.1604L6.08571 13.8L6.47746 14.4396C7.44698 13.8457 8.71016 13.8457 9.67968 14.4396L10.0714 13.8ZM13.9286 13.8L13.6358 14.4905C14.16 14.7128 15.0014 14.978 15.8591 15.0567C16.6754 15.1317 17.7429 15.0582 18.4542 14.3206L17.9143 13.8L17.3744 13.2794C17.16 13.5018 16.7058 13.6281 15.9963 13.563C15.3282 13.5016 14.6396 13.2868 14.2213 13.1095L13.9286 13.8ZM4.92857 6.6L4.18807 6.71901L5.34522 13.919L6.08571 13.8L6.82621 13.681L5.66907 6.48099L4.92857 6.6Z" fill="#202027"/>
</svg>
