<svg width="24" height="24" viewBox="0 0 24 24" fill="none" xmlns="http://www.w3.org/2000/svg">
<path d="M19.4207 9.94533L20.097 9.62118C20.0862 9.59859 20.0743 9.57656 20.0612 9.55517L19.4207 9.94533ZM20.8336 19.24L20.8644 19.9894C21.2253 19.9745 21.5244 19.7046 21.5759 19.3471L20.8336 19.24ZM17.5916 19.3733L17.5608 18.624L17.5594 18.624L17.5916 19.3733ZM3 20L2.3558 19.6159C2.21467 19.8527 2.21474 20.1477 2.35597 20.3843C2.4972 20.621 2.75684 20.7611 3.03218 20.7493L3 20ZM12.5385 4L12.8266 3.30754C12.4823 3.16432 12.0851 3.29573 11.8943 3.61601L12.5385 4ZM16.8419 19.3564C16.8304 19.7705 17.1566 20.1155 17.5707 20.127C17.9847 20.1386 18.3298 19.8123 18.3413 19.3983L17.5916 19.3773L16.8419 19.3564ZM15.8447 12L16.5046 11.6436L16.5042 11.6428L15.8447 12ZM19.4207 9.94533L18.7444 10.2695C20.0574 13.0091 20.5283 16.1037 20.0913 19.1329L20.8336 19.24L21.5759 19.3471C22.0551 16.0257 21.5395 12.6307 20.097 9.62118L19.4207 9.94533ZM20.8336 19.24L20.8028 18.4906L17.5608 18.624L17.5916 19.3733L17.6224 20.1227L20.8644 19.9894L20.8336 19.24ZM17.5916 19.3733L17.5594 18.624L2.96782 19.2507L3 20L3.03218 20.7493L17.6238 20.1226L17.5916 19.3733ZM3 20L3.6442 20.3841L11.4487 7.2934L10.8045 6.90933L10.1603 6.52527L2.3558 19.6159L3 20ZM10.8045 6.90933L11.4487 7.29332L13.1827 4.38399L12.5385 4L11.8943 3.61601L10.1602 6.52535L10.8045 6.90933ZM12.5385 4L12.2504 4.69246C14.9398 5.81133 17.2261 7.78412 18.7802 10.3355L19.4207 9.94533L20.0612 9.55517C18.3459 6.73913 15.8158 4.55113 12.8266 3.30754L12.5385 4ZM17.5916 19.3773L18.3413 19.3983C18.4169 16.69 17.7828 14.0099 16.5046 11.6436L15.8447 12L15.1848 12.3564C16.3368 14.4892 16.9102 16.9088 16.8419 19.3564L17.5916 19.3773ZM15.8447 12L16.5042 11.6428C15.2639 9.3533 13.411 7.47992 11.1643 6.2513L10.8045 6.90933L10.4446 7.56736C12.4323 8.65437 14.0797 10.3163 15.1853 12.3572L15.8447 12ZM13.918 16V15.25C13.9579 15.25 13.9886 15.2679 14.0042 15.2842C14.0195 15.3 14.0258 15.3186 14.0258 15.3333H13.2758H12.5258C12.5258 16.0885 13.1235 16.75 13.918 16.75V16ZM13.2758 15.3333H14.0258C14.0258 15.3481 14.0195 15.3667 14.0042 15.3825C13.9886 15.3987 13.9579 15.4167 13.918 15.4167V14.6667V13.9167C13.1235 13.9167 12.5258 14.5782 12.5258 15.3333H13.2758ZM13.918 14.6667V15.4167C13.8781 15.4167 13.8475 15.3987 13.8318 15.3825C13.8166 15.3667 13.8103 15.3481 13.8103 15.3333H14.5603H15.3103C15.3103 14.5782 14.7125 13.9167 13.918 13.9167V14.6667ZM14.5603 15.3333H13.8103C13.8103 15.3186 13.8166 15.3 13.8318 15.2842C13.8475 15.2679 13.8781 15.25 13.918 15.25V16V16.75C14.7125 16.75 15.3103 16.0885 15.3103 15.3333H14.5603ZM8.78013 17.3333V16.5833C8.82002 16.5833 8.85069 16.6013 8.86635 16.6175C8.88157 16.6333 8.88789 16.6519 8.88789 16.6667H8.13789H7.38789C7.38789 17.4218 7.98564 18.0833 8.78013 18.0833V17.3333ZM8.13789 16.6667H8.88789C8.88789 16.6814 8.88157 16.7 8.86635 16.7158C8.85069 16.7321 8.82002 16.75 8.78013 16.75V16V15.25C7.98564 15.25 7.38789 15.9115 7.38789 16.6667H8.13789ZM8.78013 16V16.75C8.74024 16.75 8.70957 16.7321 8.69391 16.7158C8.67869 16.7 8.67237 16.6814 8.67237 16.6667H9.42237H10.1724C10.1724 15.9115 9.57462 15.25 8.78013 15.25V16ZM9.42237 16.6667H8.67237C8.67237 16.6519 8.67869 16.6333 8.69391 16.6175C8.70957 16.6013 8.74024 16.5833 8.78013 16.5833V17.3333V18.0833C9.57462 18.0833 10.1724 17.4218 10.1724 16.6667H9.42237ZM11.3491 12V11.25C11.389 11.25 11.4196 11.2679 11.4353 11.2842C11.4505 11.3 11.4568 11.3186 11.4568 11.3333H10.7068H9.95684C9.95684 12.0885 10.5546 12.75 11.3491 12.75V12ZM10.7068 11.3333H11.4568C11.4568 11.3481 11.4505 11.3667 11.4353 11.3825C11.4196 11.3987 11.389 11.4167 11.3491 11.4167V10.6667V9.91667C10.5546 9.91667 9.95684 10.5782 9.95684 11.3333H10.7068ZM11.3491 10.6667V11.4167C11.3092 11.4167 11.2785 11.3987 11.2629 11.3825C11.2476 11.3667 11.2413 11.3481 11.2413 11.3333H11.9913H12.7413C12.7413 10.5782 12.1436 9.91667 11.3491 9.91667V10.6667ZM11.9913 11.3333H11.2413C11.2413 11.3186 11.2476 11.3 11.2629 11.2842C11.2785 11.2679 11.3092 11.25 11.3491 11.25V12V12.75C12.1436 12.75 12.7413 12.0885 12.7413 11.3333H11.9913Z" fill="#202027"/>
</svg>
