<svg width="24" height="24" viewBox="0 0 24 24" fill="none" xmlns="http://www.w3.org/2000/svg">
<path d="M12 7.5C13.2426 7.5 14.25 6.49264 14.25 5.25C14.25 4.00736 13.2426 3 12 3C10.7574 3 9.75 4.00736 9.75 5.25C9.75 6.49264 10.7574 7.5 12 7.5ZM12 7.5V10.875M12 10.875H8.625M12 10.875H15.375M12 10.875V21M7.5 15.375L5.25 13.125M5.25 13.125L3 15.375M5.25 13.125V14.25C5.25 17.9779 8.27208 21 12 21M12 21C15.7279 21 18.75 17.9779 18.75 14.25V13.125M18.75 13.125L16.5 15.375M18.75 13.125L21 15.375" stroke="currentColor" stroke-width="1.5" stroke-linecap="round" stroke-linejoin="round"/>
</svg>
