<svg width="24" height="24" viewBox="0 0 24 24" fill="none" xmlns="http://www.w3.org/2000/svg">
<path d="M12 6.24457C10.1111 4.18911 7.12063 3.46231 4.45699 4.41131C3.5501 4.73677 2.96251 5.59246 3.00186 6.53035V15.4683C3.05651 16.3 3.4726 17.07 4.14643 17.5863C4.82025 18.1026 5.68833 18.3167 6.53427 18.1751C8.546 17.9043 10.7338 17.9667 12 19M12 6.24457V19M12 6.24457C13.8889 4.18911 16.8794 3.46231 19.543 4.41131C20.4499 4.73677 21.0375 5.59246 20.9981 6.53035V15.4683C20.9435 16.3 20.5274 17.07 19.8536 17.5863C19.1798 18.1026 18.3117 18.3167 17.4657 18.1751C15.454 17.9043 13.2662 17.9667 12 19M8.78638 10.2642H6.21548M8.78638 12.7601H6.21548M17.7845 10.2642H15.2136M17.7845 12.7601H15.2136" stroke="currentColor" stroke-width="1.5" stroke-linecap="round" stroke-linejoin="round"/>
</svg>
