<svg width="24" height="24" viewBox="0 0 24 24" fill="none" xmlns="http://www.w3.org/2000/svg">
<path d="M6.85714 8.00434V13.3661M6.85714 8.00434H17.1429M6.85714 8.00434L4.28571 5.31743M6.85714 13.3661C6.85714 16.3149 9.15968 18.7053 12 18.7053C14.8403 18.7053 17.1429 16.3149 17.1429 13.3661M6.85714 13.3661H3M17.1429 13.3661V8.00434M17.1429 13.3661H21M17.1429 8.00434L19.7143 5.31743M9.42857 8.00434V6.66956C9.42857 5.1952 10.5798 4 12 4C13.4202 4 14.5714 5.1952 14.5714 6.66956V8.00434M12 13.3661V18.728M8.364 17.1569L5.637 20M15.636 17.1569L18.363 20" stroke="currentColor" stroke-width="1.5" stroke-linecap="round" stroke-linejoin="round"/>
</svg>
