<svg width="24" height="24" viewBox="0 0 24 24" fill="none" xmlns="http://www.w3.org/2000/svg">
<path d="M4 21L7.06171 15.7539M7.06171 15.7539L10.704 9.49968M7.06171 15.7539C8.52249 16.7198 10.2403 17.2399 12 17.2491C13.7598 17.2395 15.4776 16.719 16.9383 15.7527M10.704 9.49968C11.5353 9.83256 12.4658 9.83256 13.2971 9.49968C14.8143 8.88959 15.6807 7.30786 15.3649 5.72479C15.0491 4.14172 13.6394 3 12.0006 3C10.3617 3 8.95205 4.14172 8.63626 5.72479C8.32046 7.30786 9.18687 8.88959 10.704 9.49968ZM7.06286 15.7527C5.83385 14.9409 4.82513 13.8455 4.12457 12.5621M20 21L16.9371 15.7527M16.9371 15.7527L13.296 9.49968M16.9371 15.7527C18.1663 14.9406 19.175 13.8459 19.8754 12.5621" stroke="currentColor" stroke-width="1.5" stroke-linecap="round" stroke-linejoin="round"/>
</svg>
