<svg width="24" height="24" viewBox="0 0 24 24" fill="none" xmlns="http://www.w3.org/2000/svg">
<path d="M6.885 6.67244L7.3623 7.25096C7.36658 7.24742 7.37083 7.24384 7.37503 7.24021L6.885 6.67244ZM10.529 3.52744L10.0524 2.94831C10.0479 2.95204 10.0434 2.95582 10.039 2.95966L10.529 3.52744ZM13.471 3.52744L13.961 2.95966C13.9566 2.95582 13.9521 2.95204 13.9476 2.94831L13.471 3.52744ZM17.115 6.67244L16.625 7.24021C16.6287 7.24345 16.6325 7.24666 16.6363 7.24982L17.115 6.67244ZM17.715 7.92544L16.965 7.93637L16.9653 7.94664L17.715 7.92544ZM18 18.0004H18.75C18.75 17.9934 18.7499 17.9863 18.7497 17.9792L18 18.0004ZM6 18.0004L5.25029 17.9795C5.2501 17.9864 5.25 17.9934 5.25 18.0004H6ZM6.282 7.92544L7.03176 7.94642L7.0319 7.9375L6.282 7.92544ZM10 13.2504C9.58579 13.2504 9.25 13.5862 9.25 14.0004C9.25 14.4146 9.58579 14.7504 10 14.7504V14.0004V13.2504ZM14 14.7504C14.4142 14.7504 14.75 14.4146 14.75 14.0004C14.75 13.5862 14.4142 13.2504 14 13.2504V14.0004V14.7504ZM9 16.2504C8.58579 16.2504 8.25 16.5862 8.25 17.0004C8.25 17.4146 8.58579 17.7504 9 17.7504V17.0004V16.2504ZM15 17.7504C15.4142 17.7504 15.75 17.4146 15.75 17.0004C15.75 16.5862 15.4142 16.2504 15 16.2504V17.0004V17.7504ZM10.5 8.50044L11.25 8.50078L10.5 8.50044ZM11.708 7.02982L11.562 6.29416L11.708 7.02982ZM13.386 7.92763L12.693 8.21437V8.21437L13.386 7.92763ZM12.8329 9.74861L12.4165 9.12487L12.8329 9.74861ZM10.939 9.56144L10.4085 10.0916L10.939 9.56144ZM6.885 6.67244L7.37503 7.24021L11.019 4.09521L10.529 3.52744L10.039 2.95966L6.39497 6.10466L6.885 6.67244ZM10.529 3.52744L11.0056 4.10656C11.5833 3.63115 12.4167 3.63115 12.9944 4.10656L13.471 3.52744L13.9476 2.94831C12.8161 2.01723 11.1839 2.01723 10.0524 2.94831L10.529 3.52744ZM13.471 3.52744L12.981 4.09521L16.625 7.24021L17.115 6.67244L17.605 6.10466L13.961 2.95966L13.471 3.52744ZM17.115 6.67244L16.6363 7.24982C16.8411 7.41956 16.9612 7.67044 16.9651 7.93636L17.715 7.92544L18.4649 7.91451C18.4546 7.20977 18.1363 6.54488 17.5937 6.09505L17.115 6.67244ZM17.715 7.92544L16.9653 7.94664L17.2503 18.0216L18 18.0004L18.7497 17.9792L18.4647 7.90423L17.715 7.92544ZM18 18.0004H17.25C17.25 19.2431 16.2426 20.2504 15 20.2504V21.0004V21.7504C17.0711 21.7504 18.75 20.0715 18.75 18.0004H18ZM15 21.0004V20.2504H9V21.0004V21.7504H15V21.0004ZM9 21.0004V20.2504C7.75736 20.2504 6.75 19.2431 6.75 18.0004H6H5.25C5.25 20.0715 6.92893 21.7504 9 21.7504V21.0004ZM6 18.0004L6.74971 18.0214L7.03171 7.94642L6.282 7.92544L5.53229 7.90445L5.25029 17.9795L6 18.0004ZM6.282 7.92544L7.0319 7.9375C7.03619 7.67131 7.15694 7.42038 7.3623 7.25096L6.885 6.67244L6.4077 6.09392C5.86348 6.54292 5.54345 7.20793 5.5321 7.91337L6.282 7.92544ZM10 14.0004V14.7504H14V14.0004V13.2504H10V14.0004ZM9 17.0004V17.7504H15V17.0004V16.2504H9V17.0004ZM10.5 8.50044L11.25 8.50078C11.2502 8.14298 11.503 7.83512 11.854 7.76547L11.708 7.02982L11.562 6.29416C10.5091 6.50313 9.75049 7.42671 9.75 8.5001L10.5 8.50044ZM11.708 7.02982L11.854 7.76547C12.2049 7.69581 12.5562 7.88376 12.693 8.21437L13.386 7.92763L14.0791 7.64088C13.6687 6.64904 12.6148 6.0852 11.562 6.29416L11.708 7.02982ZM13.386 7.92763L12.693 8.21437C12.8298 8.54498 12.714 8.92619 12.4165 9.12487L12.8329 9.74861L13.2494 10.3724C14.1421 9.77634 14.4894 8.63272 14.0791 7.64088L13.386 7.92763ZM12.8329 9.74861L12.4165 9.12487C12.1189 9.32354 11.7224 9.28436 11.4695 9.03128L10.939 9.56144L10.4085 10.0916C11.1673 10.8508 12.3567 10.9684 13.2494 10.3724L12.8329 9.74861ZM10.939 9.56144L11.4695 9.03128C11.3289 8.89055 11.2499 8.69972 11.25 8.50078L10.5 8.50044L9.75 8.5001C9.74973 9.09694 9.98661 9.66943 10.4085 10.0916L10.939 9.56144Z" fill="#202027"/>
</svg>
