<svg width="24" height="24" viewBox="0 0 24 24" fill="none" xmlns="http://www.w3.org/2000/svg">
<path d="M5.80015 12.7835C6.28934 11.9167 7.08646 10.5898 7.97155 9.25626C8.24614 8.84287 8.53139 8.42947 8.81531 8.03074H5.9601C5.43614 8.03225 4.93547 8.24753 4.57382 8.62683C3.80873 9.43444 3.80873 10.6997 4.57382 11.5073L5.80015 12.7835ZM5.80015 12.7835L8.51004 15.4866L11.2133 18.1964M15.9614 15.1813V18.0391C15.9599 18.5632 15.7447 19.0641 15.3656 19.4259C14.5583 20.1914 13.2936 20.1914 12.4864 19.4259L11.212 18.1977C12.0785 17.7083 13.4048 16.9109 14.7377 16.0254C15.1509 15.7507 15.5642 15.4653 15.9614 15.1813ZM15.9614 15.1813C16.9802 14.4983 17.9184 13.7005 18.7552 12.8036C20.1775 11.09 20.0948 6.29854 19.8776 4.11953C17.6982 3.90883 12.9102 3.81949 11.1973 5.24238C10.2988 6.07705 9.49911 7.01221 8.81395 8.02948M16.5038 7.48806L14.8869 9.10698" stroke="currentColor" stroke-width="1.5" stroke-linecap="round" stroke-linejoin="round"/>
</svg>
