<svg width="24" height="24" viewBox="0 0 24 24" fill="none" xmlns="http://www.w3.org/2000/svg">
<path d="M5.98164 13.5427L3 16.5256M8.21754 15.7812L6.72865 17.2713M7.04366 11.6347L9.70772 14.2923L12.3653 16.9563M10.0086 6.96356C10.6804 5.96384 11.4647 5.04453 12.3461 4.22364C14.0291 2.82475 18.7375 2.90704 20.8795 3.12047C21.093 5.26252 21.1752 9.97091 19.7764 11.6552C18.9555 12.5366 18.0362 13.3209 17.0364 13.9927M10.4573 18.0184L7.47438 21M17.5687 6.43126L15.9783 8.02172M9.17797 8.16835C8.30753 9.47467 7.52451 10.7823 7.04364 11.6399L5.83633 10.3863C5.08528 9.59295 5.08528 8.35094 5.83633 7.55763C6.19181 7.18473 6.68403 6.97298 7.19922 6.97133H10.0086C9.72827 7.35577 9.44927 7.75692 9.17797 8.16835ZM15.8317 14.822C14.5254 15.6925 13.2178 16.4755 12.3602 16.9564L13.6138 18.1637C14.4072 18.9147 15.6492 18.9147 16.4425 18.1637C16.8154 17.8082 17.0271 17.316 17.0288 16.8008V13.9914C16.6443 14.2717 16.2432 14.5507 15.8317 14.822Z" stroke="currentColor" stroke-width="1.5" stroke-linecap="round" stroke-linejoin="round"/>
</svg>
