<svg width="24" height="24" viewBox="0 0 24 24" fill="none" xmlns="http://www.w3.org/2000/svg">
<path d="M9.00044 9.09043C9.004 8.53422 8.55636 8.08025 8.00015 8.076H4.0003C3.4441 8.08025 2.99646 8.53422 3.00002 9.09043V19.9856C2.99646 20.5418 3.4441 20.9958 4.0003 21H19.9997C20.5559 20.9958 21.0035 20.5418 21 19.9856V7.06029C21.0035 6.50457 20.5567 6.05081 20.001 6.04586H16.0011C15.4449 6.0501 14.9973 6.50408 15.0009 7.06029V4.01443C15.0044 3.45822 14.5568 3.00425 14.0006 3H9.99943C9.44373 3.00495 8.99687 3.45872 9.00044 4.01443V9.09043ZM9.00044 9.09043L9.00043 20.9999M14.9996 20.9999V7.06023" stroke="currentColor" stroke-width="1.5" stroke-linecap="round" stroke-linejoin="round"/>
</svg>
