<svg width="24" height="24" viewBox="0 0 24 24" fill="none" xmlns="http://www.w3.org/2000/svg">
<path d="M21 21.75C21.4142 21.75 21.75 21.4142 21.75 21C21.75 20.5858 21.4142 20.25 21 20.25V21V21.75ZM3.75 3C3.75 2.58579 3.41421 2.25 3 2.25C2.58579 2.25 2.25 2.58579 2.25 3H3H3.75ZM16.0101 6.10714C15.5959 6.10714 15.2601 6.44293 15.2601 6.85714C15.2601 7.27136 15.5959 7.60714 16.0101 7.60714V6.85714V6.10714ZM21 6.85714L21.75 6.85714V6.10714H21V6.85714ZM20.25 11.4947C20.25 11.9089 20.5858 12.2447 21 12.2447C21.4142 12.2447 21.75 11.9089 21.75 11.4947H21L20.25 11.4947ZM15.8571 13.0376L16.361 13.5932L16.4 13.5578L16.4337 13.5173L15.8571 13.0376ZM13.8399 13.116L13.3752 13.7047L13.3807 13.709L13.8399 13.116ZM12.4911 12.0514L12.9558 11.4627L12.952 11.4598L12.4911 12.0514ZM10.3286 12.2867L9.7512 11.808L9.74011 11.8214L9.72965 11.8353L10.3286 12.2867ZM10.164 12.4821L10.6994 13.0073L10.7052 13.0015L10.7108 12.9955L10.164 12.4821ZM6.14941 15.5043C5.85937 15.8 5.86397 16.2748 6.15969 16.5649C6.45541 16.8549 6.93026 16.8503 7.2203 16.5546L6.68485 16.0294L6.14941 15.5043ZM21 21V20.25H8.14286V21V21.75H21V21ZM8.14286 21V20.25C5.71675 20.25 3.75 18.2832 3.75 15.8571H3H2.25C2.25 19.1117 4.88832 21.75 8.14286 21.75V21ZM3 15.8571H3.75V3H3H2.25V15.8571H3ZM16.0101 6.85714V7.60714H21V6.85714V6.10714H16.0101V6.85714ZM21 6.85714L20.25 6.85714L20.25 11.4947L21 11.4947H21.75L21.75 6.85714L21 6.85714ZM21 6.85714L20.4235 6.37742L15.2806 12.5578L15.8571 13.0376L16.4337 13.5173L21.5765 7.33687L21 6.85714ZM15.8571 13.0376L15.3533 12.482C15.0583 12.7495 14.6139 12.7668 14.299 12.523L13.8399 13.116L13.3807 13.709C14.2708 14.3982 15.5271 14.3493 16.361 13.5932L15.8571 13.0376ZM13.8399 13.116L14.3045 12.5273L12.9558 11.4627L12.4911 12.0514L12.0265 12.6401L13.3752 13.7047L13.8399 13.116ZM12.4911 12.0514L12.952 11.4598C11.9663 10.6919 10.5488 10.8461 9.7512 11.808L10.3286 12.2867L10.9059 12.7654C11.1861 12.4275 11.684 12.3734 12.0302 12.6431L12.4911 12.0514ZM10.3286 12.2867L9.72965 11.8353C9.6946 11.8818 9.65707 11.9263 9.61722 11.9688L10.164 12.4821L10.7108 12.9955C10.7876 12.9137 10.8599 12.8278 10.9275 12.7382L10.3286 12.2867ZM10.164 12.4821L9.62855 11.957L6.14941 15.5043L6.68485 16.0294L7.2203 16.5546L10.6994 13.0073L10.164 12.4821Z" fill="#202027"/>
</svg>
