<svg width="24" height="24" viewBox="0 0 24 24" fill="none" xmlns="http://www.w3.org/2000/svg">
<path d="M21 21.75C21.4142 21.75 21.75 21.4142 21.75 21C21.75 20.5858 21.4142 20.25 21 20.25V21V21.75ZM3.75 3C3.75 2.58579 3.41421 2.25 3 2.25C2.58579 2.25 2.25 2.58579 2.25 3H3H3.75ZM16.4254 13.8214C16.0112 13.8214 15.6754 14.1572 15.6754 14.5714C15.6754 14.9856 16.0112 15.3214 16.4254 15.3214V14.5714V13.8214ZM21 14.5714V15.3214H21.75V14.5714H21ZM21.75 10.596C21.75 10.1818 21.4142 9.846 21 9.846C20.5858 9.846 20.25 10.1818 20.25 10.596H21H21.75ZM15.2644 9.42086L15.7655 8.86283L15.7546 8.85297L15.7432 8.84355L15.2644 9.42086ZM13.4143 9.354L12.9784 8.74357L12.9689 8.75056L13.4143 9.354ZM12.1774 10.2669L12.6138 10.8769L12.6228 10.8703L12.1774 10.2669ZM10.2 10.0637L9.61608 10.5344L9.63179 10.5539L9.64875 10.5723L10.2 10.0637ZM10.0496 9.89657L10.579 9.36529L10.5729 9.35927L10.5667 9.35338L10.0496 9.89657ZM7.3743 6.31396C7.0743 6.02834 6.59957 6.04 6.31396 6.33999C6.02834 6.63998 6.04 7.11471 6.33999 7.40033L6.85714 6.85714L7.3743 6.31396ZM21 21V20.25H8.14286V21V21.75H21V21ZM8.14286 21V20.25C5.71675 20.25 3.75 18.2832 3.75 15.8571H3H2.25C2.25 19.1117 4.88832 21.75 8.14286 21.75V21ZM3 15.8571H3.75V3H3H2.25V15.8571H3ZM16.4254 14.5714V15.3214H21V14.5714V13.8214H16.4254V14.5714ZM21 14.5714H21.75V10.596H21H20.25V14.5714H21ZM21 14.5714L21.5011 14.0134L15.7655 8.86283L15.2644 9.42086L14.7633 9.97888L20.4989 15.1295L21 14.5714ZM15.2644 9.42086L15.7432 8.84355C14.9511 8.18664 13.8159 8.14562 12.9784 8.74364L13.4143 9.354L13.8501 9.96436C14.1335 9.762 14.5176 9.77588 14.7857 9.99816L15.2644 9.42086ZM13.4143 9.354L12.9689 8.75056L11.7321 9.66341L12.1774 10.2669L12.6228 10.8703L13.8597 9.95744L13.4143 9.354ZM12.1774 10.2669L11.7411 9.65685C11.4327 9.87743 11.0083 9.83383 10.7512 9.55516L10.2 10.0637L9.64875 10.5723C10.4188 11.407 11.69 11.5376 12.6138 10.8769L12.1774 10.2669ZM10.2 10.0637L10.7839 9.59303C10.7198 9.51345 10.6513 9.43743 10.579 9.36529L10.0496 9.89657L9.52019 10.4279C9.55407 10.4616 9.58608 10.4972 9.61608 10.5344L10.2 10.0637ZM10.0496 9.89657L10.5667 9.35338L7.3743 6.31396L6.85714 6.85714L6.33999 7.40033L9.53242 10.4398L10.0496 9.89657Z" fill="#202027"/>
</svg>
