<svg width="22" height="22" viewBox="0 0 22 22" fill="none" xmlns="http://www.w3.org/2000/svg">
<path fill-rule="evenodd" clip-rule="evenodd" d="M17.2411 9.20824L5.30382 2.90741C4.99192 2.71628 4.61023 2.69813 4.28308 2.85885C3.95592 3.01957 3.72518 3.3386 3.66602 3.71203C3.6701 3.83609 3.69864 3.95793 3.74984 4.06988L6.02266 9.82186C6.13673 10.2038 6.19881 10.6007 6.20708 11.0008C6.19884 11.4009 6.13675 11.7978 6.02266 12.1797L3.74984 17.9317C3.69864 18.0437 3.6701 18.1655 3.66602 18.2896C3.72561 18.6624 3.9563 18.9809 4.2831 19.1413C4.60991 19.3017 4.9911 19.2837 5.30278 19.0931L17.2411 12.7922C17.9068 12.4683 18.3327 11.7692 18.3327 11.0002C18.3327 10.2313 17.9068 9.53217 17.2411 9.20824Z" stroke="#6495FD" stroke-width="1.5" stroke-linecap="round" stroke-linejoin="round"/>
</svg>
