<svg width="38" height="64" viewBox="0 0 38 64" fill="none" xmlns="http://www.w3.org/2000/svg">
<path d="M0.0517578 3.77725C0.0517578 1.69113 1.73203 0 3.80475 0H14.3131C16.3858 0 18.0661 1.69113 18.0661 3.77724V14.3535C18.0661 16.4396 16.3859 18.1308 14.3131 18.1308H3.80475C1.73203 18.1308 0.0517578 16.4396 0.0517578 14.3535V3.77725Z" fill="#6495FD"/>
<path d="M19.2672 26.7118C19.2672 24.6257 20.9475 22.9346 23.0202 22.9346H33.5286C35.6013 22.9346 37.2816 24.6257 37.2816 26.7118V37.2881C37.2816 39.3742 35.6013 41.0653 33.5286 41.0653H23.0202C20.9475 41.0653 19.2672 39.3742 19.2672 37.2881V26.7118Z" fill="#6495FD"/>
<path d="M0.0517578 49.6464C0.0517578 47.5603 1.73203 45.8691 3.80475 45.8691H14.3131C16.3858 45.8691 18.0661 47.5603 18.0661 49.6464V60.2227C18.0661 62.3088 16.3859 63.9999 14.3131 63.9999H3.80475C1.73203 63.9999 0.0517578 62.3088 0.0517578 60.2227V49.6464Z" fill="#6495FD"/>
</svg>
