<svg width="15" height="26" viewBox="0 0 15 26" fill="none" xmlns="http://www.w3.org/2000/svg">
<path d="M0 20.0242C0 19.1557 0.699546 18.4516 1.56248 18.4516H5.93742C6.80035 18.4516 7.4999 19.1557 7.4999 20.0242V24.4274C7.4999 25.2959 6.80035 26 5.93742 26H1.56248C0.699546 26 0 25.2959 0 24.4274V20.0242Z" fill="#6495FD"/>
<path d="M7.5001 10.7984C7.5001 9.92989 8.19965 9.22582 9.06258 9.22582H13.4375C14.3005 9.22582 15 9.92989 15 10.7984V15.2016C15 16.0701 14.3005 16.7742 13.4375 16.7742H9.06258C8.19965 16.7742 7.5001 16.0701 7.5001 15.2016V10.7984Z" fill="#6495FD"/>
<path d="M0 1.57258C0 0.704066 0.699546 0 1.56248 0H5.93742C6.80035 0 7.4999 0.704065 7.4999 1.57257V5.97578C7.4999 6.84429 6.80035 7.54836 5.93742 7.54836H1.56248C0.699546 7.54836 0 6.84429 0 5.97578V1.57258Z" fill="#6495FD"/>
</svg>
