<svg width="38" height="64" viewBox="0 0 38 64" fill="none" xmlns="http://www.w3.org/2000/svg">
<path opacity="0.2" d="M0.38501 3.77725C0.38501 1.69113 2.06528 0 4.138 0H14.6464C16.7191 0 18.3994 1.69113 18.3994 3.77724V14.3535C18.3994 16.4396 16.7191 18.1308 14.6464 18.1308H4.13801C2.06528 18.1308 0.38501 16.4396 0.38501 14.3535V3.77725Z" fill="#6495FD"/>
<path d="M19.6006 26.7118C19.6006 24.6257 21.2809 22.9346 23.3536 22.9346H33.862C35.9347 22.9346 37.615 24.6257 37.615 26.7118V37.2881C37.615 39.3742 35.9347 41.0653 33.862 41.0653H23.3536C21.2809 41.0653 19.6006 39.3742 19.6006 37.2881V26.7118Z" fill="#6495FD"/>
<path d="M0.38501 49.6464C0.38501 47.5603 2.06528 45.8691 4.138 45.8691H14.6464C16.7191 45.8691 18.3994 47.5603 18.3994 49.6464V60.2227C18.3994 62.3088 16.7191 63.9999 14.6464 63.9999H4.13801C2.06528 63.9999 0.38501 62.3088 0.38501 60.2227V49.6464Z" fill="#6495FD"/>
</svg>
