<svg width="38" height="64" viewBox="0 0 38 64" fill="none" xmlns="http://www.w3.org/2000/svg">
<path opacity="0.2" d="M0.718353 3.77725C0.718353 1.69113 2.39863 0 4.47135 0H14.9797C17.0524 0 18.7327 1.69113 18.7327 3.77724V14.3535C18.7327 16.4396 17.0524 18.1308 14.9797 18.1308H4.47135C2.39863 18.1308 0.718353 16.4396 0.718353 14.3535V3.77725Z" fill="#6495FD"/>
<path opacity="0.2" d="M19.934 26.7118C19.934 24.6257 21.6142 22.9346 23.687 22.9346H34.1953C36.2681 22.9346 37.9483 24.6257 37.9483 26.7118V37.2881C37.9483 39.3742 36.2681 41.0653 34.1953 41.0653H23.687C21.6142 41.0653 19.934 39.3742 19.934 37.2881V26.7118Z" fill="#6495FD"/>
<path d="M0.718384 49.6464C0.718384 47.5603 2.39866 45.8691 4.47138 45.8691H14.9798C17.0525 45.8691 18.7327 47.5603 18.7327 49.6464V60.2227C18.7327 62.3088 17.0525 63.9999 14.9798 63.9999H4.47138C2.39866 63.9999 0.718384 62.3088 0.718384 60.2227V49.6464Z" fill="#6495FD"/>
</svg>
