<svg width="291" height="80" viewBox="0 0 291 80" fill="none" xmlns="http://www.w3.org/2000/svg">
<path d="M263.202 0C268.211 2.52435e-06 272.558 0.810242 276.241 2.43086C279.924 3.97782 282.944 6.04048 285.302 8.61875C286.344 9.72395 287.257 10.8766 288.042 12.0766C289.746 14.6812 288.109 17.9307 285.159 18.9242C282.279 19.8944 279.228 18.3056 277.28 15.9727C276.247 14.736 275.017 13.6473 273.589 12.707C270.569 10.6445 266.848 9.61329 262.429 9.61328C257.788 9.61328 254.105 10.7183 251.379 12.9281C248.727 15.1381 247.401 18.1585 247.401 21.9891C247.401 25.2303 248.432 27.7348 250.495 29.5027C252.631 31.197 255.467 32.4863 259.003 33.3703L267.953 35.5801C275.172 37.348 280.734 40.2947 284.638 44.4199C288.616 48.4715 290.605 52.9284 290.605 57.7902C290.605 61.989 289.537 65.7826 287.401 69.1711C285.338 72.486 282.244 75.138 278.119 77.127C274.068 79.0422 269.058 80 263.092 80C258.966 80 255.209 79.5213 251.821 78.5637C248.506 77.606 245.596 76.3167 243.092 74.6961C240.661 73.0018 238.635 71.1235 237.014 69.0609C236.619 68.5583 236.253 68.0489 235.915 67.5332C234.226 64.9557 235.914 61.7826 238.844 60.8266C241.769 59.8722 244.878 61.5021 246.894 63.8266C247.867 64.9491 249.03 65.9941 250.385 66.9613C253.478 69.1712 257.272 70.3131 261.766 70.3867C267.217 70.3867 271.489 69.3187 274.583 67.1824C277.751 64.9725 279.335 62.0627 279.335 58.4531C279.335 55.1382 277.972 52.4493 275.246 50.3867C272.521 48.2505 268.911 46.63 264.418 45.525L255.467 43.2043C251.931 42.2467 248.69 40.884 245.744 39.116C242.871 37.3481 240.587 35.1013 238.893 32.3758C237.198 29.6502 236.351 26.372 236.351 22.5414C236.351 15.4696 238.635 9.94469 243.202 5.9668C247.843 1.98892 254.51 0 263.202 0Z" fill="#F7F7F9"/>
<path d="M191.085 0C195.873 2.06534e-05 200.44 0.884019 204.786 2.65195C209.132 4.34624 212.999 6.74049 216.388 9.83438C218.45 11.6334 220.225 13.6152 221.713 15.7801C223.389 18.2201 222.159 21.4352 219.464 22.6602C216.783 23.8787 213.67 22.6529 211.889 20.307C210.992 19.1253 209.987 18.0283 208.874 17.0164C206.443 14.8065 203.681 13.0753 200.587 11.823C197.567 10.5708 194.399 9.94494 191.085 9.94492C185.928 9.94492 181.324 11.2338 177.272 13.8121C173.221 16.3904 170.053 19.9264 167.769 24.4199C165.486 28.9135 164.344 34.1069 164.344 40C164.344 45.8932 165.486 51.1234 167.769 55.6906C170.127 60.2578 173.331 63.8307 177.383 66.409C181.508 68.9136 186.186 70.1656 191.416 70.1656C194.804 70.1656 198.009 69.5029 201.029 68.177C204.049 66.7773 206.738 64.8987 209.095 62.5414C210.272 61.3646 211.337 60.11 212.289 58.7777C213.991 56.3978 217.082 55.1982 219.757 56.3836C222.476 57.5889 223.745 60.7983 222.139 63.3023C220.654 65.6187 218.884 67.7593 216.83 69.7238C213.442 72.9651 209.537 75.5064 205.117 77.348C200.771 79.116 196.167 80 191.305 80C183.939 80 177.383 78.3057 171.637 74.9172C165.891 71.4549 161.397 66.7403 158.156 60.7734C154.915 54.7329 153.294 47.8084 153.294 40C153.294 32.1916 154.915 25.3039 158.156 19.3371C161.397 13.2966 165.854 8.58194 171.526 5.19336C177.199 1.73111 183.718 0 191.085 0Z" fill="#F7F7F9"/>
<path fill-rule="evenodd" clip-rule="evenodd" d="M115.041 0C118.666 0 121.929 2.20249 123.283 5.56523L150.191 72.359C151.664 76.0146 148.973 80 145.032 80C142.759 80 140.715 78.6175 139.869 76.5082L132.699 58.6285H97.384L90.2133 76.5082C89.3674 78.6175 87.3231 80 85.0505 80C81.1094 80 78.4184 76.0146 79.8911 72.359L106.799 5.56523C108.154 2.20255 111.416 7.58763e-05 115.041 0ZM101.27 48.5715H128.813L115.099 14.1715L101.27 48.5715Z" fill="#F7F7F9"/>
<path d="M68.0003 40C68.0003 23.608 55.3772 11.04 38.7203 11.04H13.9202C12.5947 11.04 11.5202 9.96548 11.5202 8.64V2.4C11.5202 1.07452 12.5947 0 13.9202 0H38.7203C60.9442 0 79.0403 17.8646 79.0403 40C79.0403 62.1354 60.9442 80 38.7203 80H16.3194C13.6684 80 11.5194 77.851 11.5194 75.2L11.5194 58.08C11.5194 56.7545 12.5939 55.68 13.9194 55.68H19.9997C21.3252 55.68 22.3997 56.7545 22.3997 58.0799L22.4 67.36C22.4 68.2437 23.1163 68.96 24 68.96H38.7203C55.3772 68.96 68.0003 56.392 68.0003 40Z" fill="#F7F7F9"/>
<path d="M0 43.9995C0 42.674 1.07452 41.5995 2.4 41.5995H9.12C10.4455 41.5995 11.52 42.674 11.52 43.9995V50.7195C11.52 52.0449 10.4455 53.1195 9.12 53.1195H2.4C1.07452 53.1195 0 52.0449 0 50.7195V43.9995Z" fill="#6495FD"/>
<path d="M11.5203 29.9194C11.5203 28.5939 12.5948 27.5194 13.9203 27.5194H20.6403C21.9658 27.5194 23.0403 28.5939 23.0403 29.9194V36.6394C23.0403 37.9649 21.9658 39.0394 20.6403 39.0394H13.9203C12.5948 39.0394 11.5203 37.9649 11.5203 36.6394V29.9194Z" fill="#6495FD"/>
<path d="M0 15.8393C0 14.5138 1.07452 13.4393 2.4 13.4393H9.12C10.4455 13.4393 11.52 14.5138 11.52 15.8393V22.5593C11.52 23.8848 10.4455 24.9593 9.12 24.9593H2.4C1.07452 24.9593 0 23.8848 0 22.5593V15.8393Z" fill="#6495FD"/>
</svg>
