<svg width="28" height="28" viewBox="0 0 28 28" fill="none" xmlns="http://www.w3.org/2000/svg">
<path d="M23.9681 14C23.9681 8.2628 19.55 3.864 13.72 3.864H5.03998C4.57606 3.864 4.19998 3.48792 4.19998 3.024V0.840001C4.19998 0.376082 4.57606 0 5.03999 0H13.72C21.4984 0 27.8321 6.25262 27.8321 14C27.8321 21.7474 21.4984 28 13.72 28H5.8797C4.95186 28 4.1997 27.2478 4.19969 26.32L4.19968 20.328C4.19968 19.8641 4.57577 19.488 5.03969 19.488H7.16782C7.63174 19.488 8.00781 19.8641 8.00782 20.328L8.0079 23.576C8.00791 23.8853 8.25863 24.136 8.5679 24.136H13.72C19.55 24.136 23.9681 19.7372 23.9681 14Z" fill="#F7F7F9"/>
<path d="M0.167931 15.4001C0.167931 14.9361 0.544013 14.5601 1.00793 14.5601H3.35994C3.82386 14.5601 4.19994 14.9361 4.19994 15.4001V17.752C4.19994 18.216 3.82386 18.5921 3.35994 18.5921H1.00793C0.544013 18.5921 0.167931 18.216 0.167931 17.7521V15.4001Z" fill="#6495FD"/>
<path d="M4.20005 10.472C4.20005 10.0081 4.57614 9.63202 5.04006 9.63202H7.39206C7.85599 9.63202 8.23207 10.0081 8.23207 10.472V12.824C8.23207 13.2879 7.85599 13.664 7.39207 13.664H5.04006C4.57614 13.664 4.20005 13.2879 4.20005 12.824V10.472Z" fill="#6495FD"/>
<path d="M0.167931 5.544C0.167931 5.08008 0.544013 4.704 1.00793 4.704H3.35994C3.82386 4.704 4.19994 5.08008 4.19994 5.544V7.896C4.19994 8.35991 3.82386 8.736 3.35994 8.736H1.00793C0.544013 8.736 0.167931 8.35991 0.167931 7.896V5.544Z" fill="#6495FD"/>
</svg>
