<svg width="36" height="36" viewBox="0 0 36 36" fill="none" xmlns="http://www.w3.org/2000/svg">
<path d="M17.5584 34.5336C18.343 34.9427 19.3008 33.9936 18.8839 33.2097C18.6418 32.5707 17.7238 32.4008 17.2549 32.8878C16.7581 33.3553 16.9201 34.2792 17.5584 34.5336ZM9.11904 33.6239C9.59568 33.8201 10.199 33.3834 10.1504 32.8639C10.201 32.3 9.51144 31.8849 9.02562 32.1529C8.38194 32.4022 8.45556 33.4471 9.11904 33.6239ZM26.4038 32.1371C25.6589 32.2271 25.541 33.3981 26.2582 33.6339C26.8144 33.9052 27.3247 33.3965 27.406 32.8693C27.2894 32.4191 26.9125 32.0069 26.4038 32.1371ZM11.0393 30.0319C11.8362 30.536 12.9732 29.7853 12.8506 28.8598C12.8092 27.9252 11.568 27.3838 10.8676 28.0156C10.1904 28.5118 10.293 29.6503 11.0393 30.0319ZM23.2039 29.4972C23.5594 30.4134 25 30.4411 25.4046 29.5492C25.8046 28.8551 25.3126 27.9956 24.6 27.7596C23.6561 27.5834 22.7595 28.6038 23.2039 29.4972ZM16.5421 27.8116C16.5343 28.5991 17.2516 29.1859 18.0001 29.2396C18.4965 29.14 19.0376 28.9285 19.2506 28.4276C19.6475 27.7366 19.295 26.7851 18.5779 26.4679C18.2499 26.2842 17.8622 26.3531 17.5051 26.3745C16.9591 26.6425 16.4994 27.1681 16.5421 27.8116ZM3.99155 26.6641C4.71947 27.1116 5.70155 26.295 5.42597 25.5042C5.27423 24.8202 4.35479 24.5419 3.82919 24.9786C3.26812 25.3878 3.35705 26.3715 3.99155 26.6641ZM30.9421 26.6656C31.5597 27.1451 32.5789 26.595 32.5053 25.8153C32.5467 25.1043 31.6656 24.568 31.0525 24.9342C30.3773 25.2376 30.3083 26.2764 30.9421 26.6656ZM20.0715 25.2499C21.0907 25.616 22.3012 25.1779 22.8821 24.2692C23.6483 23.1584 23.2406 21.4668 22.0515 20.8294C20.8194 20.0756 19.0203 20.7146 18.5653 22.0905C18.0487 23.3222 18.8013 24.8638 20.0715 25.2499ZM14.0919 25.1287C15.2214 25.6619 16.7415 25.2146 17.2871 24.0592C17.9292 22.9345 17.4327 21.3685 16.2849 20.7878C15.1356 20.1352 13.5141 20.63 12.9579 21.8374C12.3342 23.0051 12.8881 24.5911 14.0919 25.1287ZM8.10456 23.0818C8.19042 23.8095 8.87694 24.2831 9.56958 24.3321C10.3159 24.242 10.912 23.6624 10.9932 22.9072C10.9442 22.1594 10.3664 21.4286 9.57408 21.4331C8.70234 21.3581 7.93806 22.2253 8.10456 23.0818ZM25.7893 24.1738C26.6842 24.6948 27.9269 23.9364 27.8872 22.9082C27.9485 21.8189 26.5732 21.0512 25.682 21.6902C24.7562 22.2223 24.8284 23.7208 25.7893 24.1738ZM11.6585 20.3344C12.7052 20.6224 13.902 20.129 14.4154 19.1669C14.9777 18.1985 14.7478 16.8532 13.8745 16.1429C12.7543 15.1011 10.6885 15.5194 10.0923 16.9412C9.40722 18.2446 10.2394 19.9913 11.6585 20.3344ZM23.0001 20.3398C24.0177 20.6309 25.2131 20.2387 25.7601 19.3117C26.4833 18.2515 26.1381 16.6701 25.0613 15.9867C23.9334 15.1931 22.1864 15.6098 21.5657 16.8507C20.8133 18.1343 21.5704 19.9483 23.0001 20.3398ZM4.92629 19.1302C5.83043 19.4722 6.83268 18.4745 6.46637 17.5781C6.24263 16.7614 5.09171 16.4595 4.49717 17.0616C3.80147 17.627 4.05905 18.8851 4.92629 19.1302ZM29.4334 17.8293C29.4073 18.5785 29.9554 19.242 30.7236 19.2834C31.3428 19.1853 31.9449 18.6858 31.896 18.0117C31.9527 17.1214 30.8799 16.5162 30.1213 16.9346C29.7658 17.1153 29.5835 17.48 29.4334 17.8293ZM0.480636 18.6905C1.0246 18.9279 1.69744 18.4565 1.57324 17.8524C1.54408 17.1684 0.534277 16.9054 0.163295 17.4769C-0.164486 17.8738 0.031715 18.4858 0.480636 18.6905ZM34.7785 18.7042C35.1615 18.9769 35.776 18.7808 35.9278 18.3334C36.1852 17.8446 35.7132 17.175 35.1631 17.2577C34.3909 17.1873 34.1411 18.3641 34.7785 18.7042ZM14.613 15.4208C16.0444 15.793 17.583 14.5994 17.592 13.1256C17.6854 11.6362 16.17 10.3156 14.7048 10.6596C13.5723 10.8419 12.6836 11.9329 12.7203 13.0773C12.7173 14.1719 13.5433 15.1893 14.613 15.4208ZM20.2816 15.4238C21.7344 15.8299 23.3189 14.6149 23.2959 13.107C23.3726 11.6453 21.9045 10.369 20.4699 10.659C19.1199 10.8336 18.1238 12.3168 18.5007 13.6269C18.6909 14.4999 19.4203 15.2098 20.2816 15.4238ZM9.35214 14.5166C10.3574 14.6882 11.2999 13.5666 10.8922 12.612C10.5949 11.5949 9.11454 11.3189 8.46006 12.1498C7.69236 12.9477 8.26548 14.4065 9.35214 14.5166ZM25.9761 14.4718C26.8725 14.8473 27.9728 14.0718 27.9039 13.0989C27.9399 12.0279 26.5814 11.2894 25.7048 11.9145C24.712 12.4758 24.8927 14.1275 25.9761 14.4718ZM30.6226 9.81122C30.2716 10.4655 30.9092 11.3328 31.6357 11.2116C31.9973 11.2177 32.2502 10.9328 32.4817 10.6938C32.5292 10.306 32.6089 9.84344 32.2871 9.54464C31.8501 8.9915 30.86 9.14936 30.6226 9.81122ZM3.98849 11.0295C4.66745 11.4814 5.64449 10.8073 5.49185 10.0135C5.41067 9.31154 4.52633 8.91032 3.94385 9.30866C3.31871 9.67028 3.34175 10.6999 3.98849 11.0295ZM17.4021 9.55994C18.291 9.95216 19.4234 9.17834 19.3391 8.19932C19.405 7.11752 18.0044 6.36835 17.1354 7.01798C16.17 7.5758 16.3309 9.21686 17.4021 9.55994ZM11.1894 8.11058C11.9465 8.50892 12.9624 7.82096 12.8935 6.97369C12.9165 6.27799 12.2376 5.68507 11.551 5.78785C10.9824 5.80009 10.6116 6.30985 10.4293 6.79459C10.4386 7.3229 10.6561 7.91132 11.1894 8.11058ZM23.774 8.09834C24.5525 8.57948 25.6589 7.88846 25.5853 6.98234C25.6053 6.03535 24.3548 5.42875 23.63 6.05083C22.9281 6.53845 23.0138 7.71062 23.774 8.09834ZM25.9624 2.68806C25.6161 3.21204 26.0238 3.84331 26.5861 3.96283C27.0383 3.87085 27.5164 3.53082 27.4213 3.00666C27.3554 2.29728 26.3179 2.07966 25.9624 2.68806ZM8.59038 3.1431C8.72826 3.55836 9.06234 3.97111 9.55122 3.8631C10.2638 3.81252 10.4753 2.73846 9.85165 2.40744C9.29076 2.02926 8.64006 2.54712 8.59038 3.1431ZM16.9714 2.66664C17.1078 3.28098 17.9031 3.57978 18.4272 3.25344C18.7736 3.10476 18.8747 2.71722 18.9636 2.38782C18.9161 2.21628 18.8736 2.04456 18.8319 1.87302C18.6173 1.61868 18.3416 1.36434 17.9844 1.37352C17.3208 1.29576 16.7221 2.046 16.9714 2.66664Z" fill="#F7F7F9"/>
</svg>
