<svg width="37" height="36" viewBox="0 0 37 36" fill="none" xmlns="http://www.w3.org/2000/svg">
<path d="M26.2088 16.6663C28.1052 15.6882 29.2917 13.9655 29.0146 11.0957C28.6413 7.17378 25.2966 5.85867 21.0744 5.48415L21.0736 0.0441284H17.8022L17.8013 5.34108C16.9406 5.34108 16.0632 5.3582 15.1897 5.37595L15.189 0.0448504L11.9206 0.044541L11.92 5.48322C11.2116 5.49786 10.516 5.51179 9.83676 5.51179V5.4957L5.32446 5.49384L5.32507 9.02989C5.32507 9.02989 7.74093 8.98388 7.70113 9.02855C9.0257 9.02948 9.4582 9.80823 9.58259 10.4804L9.58361 16.6777V25.3829C9.52528 25.8048 9.27987 26.4789 8.35369 26.4801C8.39584 26.5177 5.97398 26.4797 5.97398 26.4797L5.32507 30.4338H9.58157C10.3747 30.4347 11.154 30.4472 11.9185 30.4534L11.9214 35.955L15.189 35.9559L15.1881 30.512C16.0871 30.5305 16.9548 30.5386 17.8024 30.5375L17.8015 35.9559H21.0728L21.0746 30.4635C26.5735 30.1437 30.4231 28.7413 30.9017 23.513C31.2875 19.3037 29.3307 17.4248 26.2088 16.6663ZM15.2679 9.26857C17.1129 9.26857 22.9155 8.67373 22.9163 12.5758C22.9155 16.3168 17.1147 15.8798 15.2679 15.8798V9.26857ZM15.2665 26.5069L15.2679 19.2174C17.4847 19.2168 24.4375 18.5716 24.4384 22.8605C24.4394 26.9736 17.4847 26.5053 15.2665 26.5069Z" fill="#F7F7F9"/>
</svg>
