<svg width="24" height="24" viewBox="0 0 24 24" fill="none" xmlns="http://www.w3.org/2000/svg">
<path d="M8.8192 17.774V16.9036C8.76901 16.0491 9.47936 15.3176 10.4096 15.2658H13.5904C14.5212 15.3169 15.2324 16.0486 15.1822 16.9036V17.774M8.8192 17.774H15.1822M8.8192 17.774L8.8178 20.9982M15.1822 17.774V20.9982M8.8178 11.1712H15.1822M15.8178 6.71792V6.59965C15.8427 4.63874 14.1353 3.02891 12 3C9.86467 3.02891 8.15728 4.63874 8.1822 6.59965V6.71921C8.45021 6.65661 8.72388 6.61659 8.9998 6.59965H15.0002C15.2766 6.61651 15.5507 6.65653 15.8192 6.71921C17.4697 7.07458 18.7177 8.31783 18.9692 9.85733C18.9899 10.007 19.0002 10.1577 19 10.3086V17.2803C18.9261 19.3984 16.9989 21.0617 14.6922 20.9982H9.3078C7.0011 21.0617 5.07386 19.3984 5.00001 17.2803V10.3086C4.99971 10.1573 5.01 10.0061 5.03081 9.85604C5.28234 8.31655 6.5303 7.0733 8.1808 6.71792" stroke="currentColor" stroke-width="1.5" stroke-linecap="round" stroke-linejoin="round"/>
</svg>
