<svg width="24" height="24" viewBox="0 0 24 24" fill="none" xmlns="http://www.w3.org/2000/svg">
<path d="M3.00653 14.8868C2.8566 18.1021 5.3303 20.8343 8.54137 21H15.4586C18.6697 20.8343 21.1434 18.1021 20.9935 14.8868M3.00653 14.8868L3.00653 13.072C2.85587 9.85622 5.32977 7.12324 8.54137 6.95756H15.4586C18.6702 7.12324 21.1441 9.85622 20.9935 13.072V14.8868M3.00653 14.8868H7.50327M20.9935 14.8868L16.4967 14.8855M7.50327 14.8868V13.5646M7.50327 14.8868V16.2064M7.50327 14.8868L16.4967 14.8855M16.4967 14.8855V13.5646M16.4967 14.8855V16.2064M8.14566 6.97299V6.95756C8.14566 4.77186 9.9156 3 12.0989 3C14.2823 3 16.0522 4.77186 16.0522 6.95756V6.99228" stroke="currentColor" stroke-width="1.5" stroke-linecap="round" stroke-linejoin="round"/>
</svg>
