<svg width="24" height="24" viewBox="0 0 24 24" fill="none" xmlns="http://www.w3.org/2000/svg">
<path d="M9.00104 9.537V4.861C8.99716 3.83745 9.82349 3.00441 10.847 3H13.155C14.1786 3.00441 15.0049 3.83745 15.001 4.861V9.538M15.001 21V19.958M9.00104 21V19.958M10.001 13.184H14.001M10.001 16.311H14.001M14.924 9.537H9.07804C7.33368 9.58389 5.95682 11.0346 6.00104 12.779V16.716C5.95682 18.4604 7.33368 19.9111 9.07804 19.958H14.924C16.6684 19.9111 18.0452 18.4604 18.001 16.716V12.779C18.0452 11.0346 16.6684 9.58389 14.924 9.537Z" stroke="currentColor" stroke-width="1.5" stroke-linecap="round" stroke-linejoin="round"/>
</svg>
