<svg width="24" height="24" viewBox="0 0 24 24" fill="none" xmlns="http://www.w3.org/2000/svg">
<path d="M11.5265 6.3V9.15C11.5265 9.67467 11.9506 10.1 12.4738 10.1H15.3159M17.2106 2.5H10.5789C9.53249 2.5 8.6842 3.35065 8.68419 4.39999V6.3M17.2106 2.5H17.7391C18.0059 2.5 18.2598 2.61268 18.4436 2.8066C18.7198 3.09801 19.1573 3.5467 19.579 3.925C19.9094 4.22149 20.4286 4.7536 20.7395 5.07698C20.9076 5.25186 21 5.48537 21 5.72829L21 6.3M17.2106 2.5V5.35C17.2106 5.87467 17.6347 6.3 18.1579 6.3H21M21 6.3L20.9998 15.8C20.9997 16.8494 20.1514 17.7 19.105 17.7H15.3156M13.8949 7.725C13.4732 7.3467 13.0357 6.89801 12.7595 6.6066C12.5757 6.41268 12.3217 6.3 12.055 6.3H4.89478C3.84837 6.3 3.00008 7.15065 3.00007 8.19999L3 19.6C2.99999 20.6493 3.84828 21.5 4.8947 21.5L13.4209 21.5C14.4673 21.5 15.3156 20.6494 15.3156 19.6L15.3159 9.52829C15.3159 9.28537 15.2235 9.05186 15.0554 8.87698C14.7445 8.5536 14.2253 8.02149 13.8949 7.725Z" stroke="currentColor" stroke-width="1.5" stroke-linecap="round" stroke-linejoin="round"/>
</svg>
