<svg width="24" height="24" viewBox="0 0 24 24" fill="none" xmlns="http://www.w3.org/2000/svg">
<path d="M14.8847 3V6.375C14.8847 6.99632 15.4013 7.5 16.0385 7.5H19.5M9.36272 12.0001L12 9.4287M12 9.4287L14.6373 12.0001M12 9.4287L12 15.8567M17.7693 4.6875C17.2557 4.23951 16.7229 3.70817 16.3865 3.36307C16.1626 3.13344 15.8533 3 15.5284 3H6.80773C5.53326 3 4.5001 4.00735 4.50009 5.24999L4.5 18.7499C4.49999 19.9926 5.53315 21 6.80763 21L17.192 21C18.4665 21 19.4997 19.9927 19.4997 18.7501L19.5 6.82297C19.5 6.53531 19.3874 6.25878 19.1827 6.05169C18.804 5.66873 18.1717 5.03861 17.7693 4.6875Z" stroke="currentColor" stroke-width="1.5" stroke-linecap="round" stroke-linejoin="round"/>
</svg>
