<svg width="24" height="24" viewBox="0 0 24 24" fill="none" xmlns="http://www.w3.org/2000/svg">
<path d="M3 6.30047V18.6334C2.9994 19.1279 3.19381 19.6023 3.54045 19.9523C3.88708 20.3024 4.35756 20.4994 4.84838 20.5H19.1516C19.6424 20.4994 20.1129 20.3024 20.4596 19.9523C20.8062 19.6023 21.0006 19.1279 21 18.6334V8.16707C21.0006 7.67261 20.8062 7.19817 20.4596 6.84812C20.1129 6.49806 19.6424 6.30107 19.1516 6.30047H12.603M3 6.30047V5.3666C2.9994 4.87215 3.19381 4.39771 3.54045 4.04765C3.88708 3.6976 4.35756 3.5006 4.84838 3.5H10.7546C11.2454 3.5006 11.7159 3.6976 12.0626 4.04765C12.4092 4.39771 12.6036 4.87215 12.603 5.3666V6.30047M3 6.30047H12.603" stroke="currentColor" stroke-width="1.5" stroke-linecap="round"/>
</svg>
