<svg width="24" height="24" viewBox="0 0 24 24" fill="none" xmlns="http://www.w3.org/2000/svg">
<path d="M3 18.6334L3.75 18.6343V18.6334H3ZM3.54045 19.9523L4.07337 19.4246L3.54045 19.9523ZM4.84838 20.5L4.84746 21.25H4.84838V20.5ZM19.1516 20.5V21.25H19.1525L19.1516 20.5ZM20.4596 19.9523L19.9266 19.4246H19.9266L20.4596 19.9523ZM21 18.6334H20.25V18.6343L21 18.6334ZM21 8.7666L20.25 8.76569V8.7666H21ZM20.4596 7.44765L19.9266 7.97537L19.9266 7.97538L20.4596 7.44765ZM19.1516 6.9L19.1525 6.15H19.1516V6.9ZM3 5.3666H3.75L3.75 5.36569L3 5.3666ZM4.84838 3.5V2.75L4.84746 2.75L4.84838 3.5ZM10.7546 3.5L10.7555 2.75H10.7546V3.5ZM12.603 5.3666L11.853 5.3657V5.3666H12.603ZM13.657 10.9055C13.3652 10.6115 12.8904 10.6098 12.5964 10.9016C12.3024 11.1934 12.3007 11.6683 12.5925 11.9623L13.1248 11.4339L13.657 10.9055ZM15.3748 13.7006L15.907 14.2289C16.1973 13.9365 16.1973 13.4646 15.907 13.1722L15.3748 13.7006ZM12.5925 15.4389C12.3007 15.7328 12.3024 16.2077 12.5964 16.4995C12.8904 16.7913 13.3652 16.7896 13.657 16.4956L13.1248 15.9672L12.5925 15.4389ZM8.62524 12.9506C8.21102 12.9506 7.87524 13.2863 7.87524 13.7006C7.87524 14.1148 8.21103 14.4506 8.62524 14.4506L8.62524 13.7006L8.62524 12.9506ZM3 6.9H2.25V18.6334H3H3.75V6.9H3ZM3 18.6334L2.25 18.6325C2.24917 19.3241 2.52102 19.9888 3.00752 20.4801L3.54045 19.9523L4.07337 19.4246C3.86659 19.2158 3.74964 18.9316 3.75 18.6343L3 18.6334ZM3.54045 19.9523L3.00752 20.4801C3.4942 20.9715 4.15594 21.2492 4.84746 21.25L4.84838 20.5L4.84929 19.75C4.55918 19.7496 4.27996 19.6333 4.07337 19.4246L3.54045 19.9523ZM4.84838 20.5V21.25H19.1516V20.5V19.75H4.84838V20.5ZM19.1516 20.5L19.1525 21.25C19.8441 21.2492 20.5058 20.9715 20.9925 20.4801L20.4596 19.9523L19.9266 19.4246C19.72 19.6333 19.4408 19.7496 19.1507 19.75L19.1516 20.5ZM20.4596 19.9523L20.9925 20.4801C21.479 19.9888 21.7508 19.3241 21.75 18.6325L21 18.6334L20.25 18.6343C20.2504 18.9316 20.1334 19.2158 19.9266 19.4246L20.4596 19.9523ZM21 18.6334H21.75V8.7666H21H20.25V18.6334H21ZM21 8.7666L21.75 8.76751C21.7508 8.07592 21.479 7.41122 20.9925 6.91993L20.4596 7.44765L19.9266 7.97538C20.1334 8.18419 20.2504 8.46838 20.25 8.76569L21 8.7666ZM20.4596 7.44765L20.9925 6.91993C20.5058 6.42845 19.8441 6.15085 19.1525 6.15L19.1516 6.9L19.1507 7.65C19.4408 7.65035 19.72 7.76674 19.9266 7.97537L20.4596 7.44765ZM19.1516 6.9V6.15H12.603V6.9V7.65H19.1516V6.9ZM3 6.9H3.75V5.3666H3H2.25V6.9H3ZM3 5.3666L3.75 5.36569C3.74964 5.06838 3.86659 4.78419 4.07337 4.57537L3.54045 4.04765L3.00752 3.51993C2.52102 4.01122 2.24917 4.67592 2.25 5.36751L3 5.3666ZM3.54045 4.04765L4.07337 4.57537C4.27996 4.36674 4.55918 4.25035 4.84929 4.25L4.84838 3.5L4.84746 2.75C4.15594 2.75085 3.4942 3.02845 3.00752 3.51993L3.54045 4.04765ZM4.84838 3.5V4.25H10.7546V3.5V2.75H4.84838V3.5ZM10.7546 3.5L10.7537 4.25C11.0438 4.25035 11.323 4.36674 11.5296 4.57537L12.0626 4.04765L12.5955 3.51993C12.1088 3.02845 11.4471 2.75085 10.7555 2.75L10.7546 3.5ZM12.0626 4.04765L11.5296 4.57537C11.7364 4.78419 11.8534 5.06838 11.853 5.3657L12.603 5.3666L13.353 5.3675C13.3538 4.67592 13.082 4.01122 12.5955 3.51993L12.0626 4.04765ZM12.603 5.3666H11.853V6.9H12.603H13.353V5.3666H12.603ZM3 6.9V7.65H12.603V6.9V6.15H3V6.9ZM13.1248 11.4339L12.5925 11.9623L14.8425 14.2289L15.3748 13.7006L15.907 13.1722L13.657 10.9055L13.1248 11.4339ZM15.3748 13.7006L14.8425 13.1722L12.5925 15.4389L13.1248 15.9672L13.657 16.4956L15.907 14.2289L15.3748 13.7006ZM8.62524 13.7006L8.62524 14.4506L15.3748 14.4506L15.3748 13.7006L15.3748 12.9506L8.62524 12.9506L8.62524 13.7006Z" fill="#202027"/>
</svg>
