<svg width="24" height="24" viewBox="0 0 24 24" fill="none" xmlns="http://www.w3.org/2000/svg">
<path d="M3.03444 8.99703L3.04085 11.3963V16.1976C3.13625 18.9372 5.4227 21.0835 8.15432 20.9975H15.8457C18.5759 21.0835 20.8617 18.9395 20.9592 16.2014V11.4015L20.9656 9.00088C21.1302 8.13165 20.693 7.25972 19.899 6.87415L14.7138 3.76763C13.0485 2.74412 10.9515 2.74412 9.28623 3.76763L4.10097 6.87029C3.30704 7.25586 2.86978 8.12779 3.03444 8.99703ZM3.03444 8.99703L9.32852 12.6873C10.9732 13.674 13.0255 13.674 14.6702 12.6873L20.9643 8.99704M14.5638 8.1394L12 7.49649L9.4362 8.1394" stroke="currentColor" stroke-width="1.5" stroke-linecap="round" stroke-linejoin="round"/>
</svg>
