<svg width="24" height="24" viewBox="0 0 24 24" fill="none" xmlns="http://www.w3.org/2000/svg">
<path d="M6.10345 5.56655C6.10345 3.24879 8.076 2.50073 10.5091 2.50073H16.5919C17.7397 2.47972 18.8491 2.91006 19.6758 3.69706C20.5024 4.48406 20.9788 5.56326 21 6.69723V11.7938C21 14.1116 20.3793 15.9903 17.8966 15.9903M6.72414 11.085H13.8807M7.61917 13.6701H12.9857M3 15.0828C3.01845 17.4692 4.98995 19.3899 7.40566 19.375H8.00276L9.768 21.2145C9.9471 21.397 10.1934 21.5 10.4508 21.5C10.7081 21.5 10.9544 21.397 11.1335 21.2145L12.8988 19.375H13.4959C15.9096 19.3872 17.8781 17.4673 17.8966 15.0828V9.85867C17.8781 7.47227 15.9066 5.55157 13.4909 5.56652H7.40814C4.99147 5.55021 3.01844 7.47131 3 9.85867V15.0828Z" stroke="currentColor" stroke-width="1.5" stroke-linecap="round" stroke-linejoin="round"/>
</svg>
