<svg width="24" height="24" viewBox="0 0 24 24" fill="none" xmlns="http://www.w3.org/2000/svg">
<path d="M6.70545 10.6937H14.1175M7.62859 13.404H13.1905M6.23874 6.22971C6.45117 6.19419 6.66621 6.17656 6.88159 6.177H13.953C16.1104 6.19327 17.8463 7.95511 17.8306 10.1126V14.8903C17.8309 15.1269 17.8103 15.3631 17.7689 15.5961M6.23874 6.22971C4.35769 6.56172 2.98978 8.20117 3.00006 10.1113V21L6.87774 18.8259H13.9491C15.8325 18.8135 17.4374 17.4554 17.7612 15.6C19.6442 15.2677 21.0127 13.6253 20.9999 11.7133V6.93557C21.0156 4.77961 19.282 3.01839 17.1261 3H10.0547C8.16859 3.01083 6.56116 4.37131 6.23874 6.22971Z" stroke="currentColor" stroke-width="1.5" stroke-linecap="round" stroke-linejoin="round"/>
</svg>
