<svg width="24" height="24" viewBox="0 0 24 24" fill="none" xmlns="http://www.w3.org/2000/svg">
<path d="M8.14286 8.83371H15.8571M8.14286 12.6337H15.8571M3 13.8421C3.01593 15.2171 3.58571 16.5296 4.58396 17.4907C5.58221 18.4518 6.92715 18.9829 8.32286 18.967H9.04286L11.1771 21.1609C11.3946 21.3779 11.6912 21.5 12.0006 21.5C12.3101 21.5 12.6067 21.3779 12.8241 21.1609L14.9571 18.967H15.6771C17.0729 18.9829 18.4178 18.4518 19.416 17.4907C20.4143 16.5296 20.9841 15.2171 21 13.8421V7.62275C20.9654 4.76036 18.5826 2.46728 15.6771 2.50035H8.32286C5.41741 2.46728 3.03459 4.76036 3 7.62275V13.8421Z" stroke="currentColor" stroke-width="1.5" stroke-linecap="round" stroke-linejoin="round"/>
</svg>
