<svg width="24" height="24" viewBox="0 0 24 24" fill="none" xmlns="http://www.w3.org/2000/svg">
<path d="M19.0209 9.74718H14.2444M14.2444 9.74718V5.24906M14.2444 9.74718L21 3M3.83173 8.81159C4.681 7.91196 4.98082 7.6665 5.3437 7.55083C5.59418 7.48491 5.85697 7.48094 6.10933 7.53926C6.44132 7.63694 6.52882 7.70891 7.61744 8.79231C8.57352 9.74334 8.66874 9.84744 8.76139 10.0325C8.93687 10.3595 8.96403 10.7458 8.83603 11.0941C8.74209 11.3588 8.60183 11.5336 8.02278 12.1222L7.64447 12.5078C7.5424 12.6096 7.5189 12.7661 7.58656 12.8933C8.42726 14.3256 9.61998 15.5199 11.0519 16.3633C11.2167 16.4512 11.4196 16.4226 11.5537 16.2926L11.9179 15.9353C12.1426 15.7049 12.3807 15.4878 12.6307 15.285C13.0196 15.0392 13.5077 15.0105 13.9227 15.2092C14.1247 15.3043 14.1916 15.3647 15.1786 16.3479C16.1964 17.3606 16.2247 17.3927 16.3367 17.6253C16.549 18.0088 16.549 18.4743 16.3367 18.8578C16.2273 19.0737 16.1604 19.1521 15.5891 19.7356C15.2429 20.0877 14.9187 20.4129 14.8672 20.4579C14.394 20.8496 13.7864 21.0414 13.1738 20.9925C12.0556 20.8907 10.9734 20.5454 10.0031 19.9811C7.85412 18.8434 6.02479 17.186 4.68229 15.1604C4.3888 14.7372 4.12769 14.2926 3.90121 13.8302C3.29757 12.7951 2.98627 11.6159 3.00046 10.4181C3.04637 9.79169 3.34669 9.2113 3.83173 8.81159Z" stroke="currentColor" stroke-width="1.5" stroke-linecap="round" stroke-linejoin="round"/>
</svg>
