<svg width="24" height="24" viewBox="0 0 24 24" fill="none" xmlns="http://www.w3.org/2000/svg">
<path d="M8.35501 15.645C9.51701 16.8079 10.8471 17.7896 12.3009 18.5572C13.4083 19.2025 14.6437 19.5975 15.9202 19.7143C16.6179 19.7684 17.3093 19.5494 17.8487 19.1036C17.9079 19.0522 18.2794 18.6806 18.6742 18.2782C19.3273 17.6109 19.4032 17.5209 19.5279 17.274C19.7743 16.8354 19.7767 16.3006 19.5343 15.8597C19.4057 15.5936 19.3723 15.5576 18.21 14.3992C17.0824 13.2755 17.0053 13.2047 16.7752 13.0967C16.3031 12.8637 15.7443 12.8904 15.2966 13.1675C15.0111 13.3991 14.7393 13.6473 14.4827 13.9106L14.0674 14.3195C13.9144 14.4686 13.6824 14.5014 13.494 14.4005C12.6853 13.9399 11.9453 13.3682 11.2954 12.702L8.35501 15.645ZM8.35501 15.645L3 21M6.22457 13.0466C5.88925 12.5623 5.59097 12.0535 5.33229 11.5243C4.64302 10.3409 4.28755 8.9928 4.30371 7.62343C4.35693 6.90721 4.70067 6.24389 5.25514 5.78743C6.22457 4.76529 6.56786 4.47857 6.98057 4.34614C7.26663 4.2709 7.56671 4.26649 7.85486 4.33329C8.23414 4.44386 8.33314 4.52743 9.57771 5.76557C10.6706 6.85329 10.7786 6.97157 10.884 7.17986C11.0871 7.55512 11.1189 7.99961 10.9714 8.4C10.8634 8.70214 10.704 8.90271 10.0419 9.56871L9.60986 10.002C9.49621 10.1173 9.46926 10.2925 9.543 10.4366M21 3L11.2967 12.7033" stroke="currentColor" stroke-width="1.5" stroke-linecap="round" stroke-linejoin="round"/>
</svg>
