<svg width="24" height="24" viewBox="0 0 24 24" fill="none" xmlns="http://www.w3.org/2000/svg">
<path d="M18.2279 3V5.57868M18.2279 5.57868V8.15607M18.2279 5.57868L15.4557 5.57739M18.2279 5.57868L21 5.57739M4.02348 7.02417C5.06858 5.9963 5.43866 5.71235 5.88358 5.57872C6.19227 5.50459 6.51583 5.50151 6.82611 5.56973C7.23499 5.68151 7.34172 5.76503 8.68343 7.00618C9.86158 8.09701 9.97801 8.21522 10.0917 8.4285C10.3079 8.80337 10.3417 9.24588 10.1845 9.64525C10.0681 9.94847 9.89624 10.1502 9.18241 10.817L8.7167 11.2513C8.59394 11.3669 8.56489 11.5424 8.64462 11.6869C9.6773 13.3294 11.1453 14.7004 12.9095 15.6699C13.1125 15.7712 13.363 15.7384 13.5277 15.5889L13.9754 15.1791C14.252 14.915 14.5449 14.6662 14.8528 14.4338C15.3351 14.1561 15.9381 14.1293 16.4468 14.3632C16.6949 14.4724 16.778 14.5418 17.9936 15.6686C19.2411 16.8249 19.2813 16.8661 19.4213 17.132C19.6808 17.573 19.6782 18.1066 19.4143 18.5453C19.2757 18.7933 19.1981 18.8833 18.494 19.5514C18.0685 19.9561 17.6623 20.3223 17.6041 20.3801C17.0235 20.8273 16.2776 21.0467 15.525 20.9917C14.1488 20.8756 12.8169 20.4808 11.6233 19.8353C8.97499 18.5292 6.72232 16.6283 5.07135 14.3067C4.70958 13.8198 4.38802 13.3082 4.10942 12.7764C3.36626 11.5892 2.98313 10.2379 3.00057 8.86535C3.05682 8.1481 3.42625 7.48316 4.02348 7.02417Z" stroke="currentColor" stroke-width="1.5" stroke-linecap="round" stroke-linejoin="round"/>
</svg>
