<svg width="24" height="24" viewBox="0 0 24 24" fill="none" xmlns="http://www.w3.org/2000/svg">
<path d="M13.2793 5.57028L15.8529 8.14055L21 3M5.6796 5.63068C5.26655 5.75919 4.92169 6.05092 3.95274 7.07132C3.39657 7.52878 3.05242 8.19391 3.00053 8.91164C2.98435 10.2804 3.34012 11.6279 4.02995 12.8107C4.28891 13.3392 4.58743 13.8474 4.92298 14.3311C6.45867 16.6446 8.55033 18.537 11.0069 19.8353C12.1153 20.4804 13.3517 20.8752 14.6292 20.9919C15.3274 21.046 16.0195 20.8271 16.5593 20.3815C16.6185 20.3301 16.9904 19.9587 17.3854 19.5564C18.0391 18.8894 18.115 18.7995 18.2399 18.5527C18.4865 18.1143 18.4889 17.5797 18.2463 17.1391C18.1176 16.8731 18.0842 16.8371 16.9209 15.6792C15.7924 14.556 15.7152 14.4853 15.4849 14.3773C15.0124 14.1444 14.4531 14.1711 14.0051 14.448C13.7193 14.6796 13.4474 14.9276 13.1905 15.1908L12.7749 15.5995C12.6218 15.7486 12.3895 15.7814 12.201 15.6805C10.5653 14.7162 9.20302 13.3512 8.24287 11.7145C8.16906 11.5705 8.19603 11.3954 8.30978 11.2801L8.74214 10.8471C9.40483 10.1826 9.56439 9.98215 9.67248 9.67886C9.81856 9.28074 9.78718 8.83922 9.58627 8.46569C9.48075 8.25364 9.37266 8.13541 8.2789 7.05204C7.03458 5.81445 6.93421 5.73092 6.55461 5.6204C6.26644 5.55278 5.96611 5.55631 5.6796 5.63068Z" stroke="currentColor" stroke-width="1.5" stroke-linecap="round" stroke-linejoin="round"/>
</svg>
