<svg width="24" height="24" viewBox="0 0 24 24" fill="none" xmlns="http://www.w3.org/2000/svg">
<path fill-rule="evenodd" clip-rule="evenodd" d="M4.11143 4.75015C5.24419 3.55893 5.64452 3.22482 6.12723 3.06933C6.46129 2.98194 6.81164 2.97709 7.148 3.05519C7.5908 3.1837 7.70794 3.28136 9.15993 4.72573C10.4356 5.99406 10.563 6.13155 10.6853 6.37957C10.9191 6.8149 10.9556 7.32918 10.7857 7.7931C10.657 8.14648 10.4742 8.38036 9.70057 9.15523L9.19597 9.66025C9.06346 9.79468 9.03232 9.99883 9.11874 10.1665C10.2398 12.0759 11.8304 13.6682 13.7399 14.7927C13.9597 14.9101 14.2303 14.8722 14.4092 14.6988L14.8945 14.2221C15.1945 13.9152 15.5121 13.626 15.8458 13.356C16.3699 13.0347 17.0229 13.0061 17.5732 13.2802C17.8423 13.4087 17.9311 13.4883 19.2466 14.7991C20.6034 16.1496 20.642 16.1921 20.7913 16.5017C21.0723 17.0144 21.0694 17.6353 20.7836 18.1453C20.6381 18.4331 20.5493 18.5372 19.786 19.316C19.3252 19.7863 18.8914 20.2155 18.8219 20.2784C18.1921 20.7989 17.3842 21.0543 16.5692 20.9904C15.078 20.8547 13.6347 20.3946 12.3407 19.6424C9.47418 18.1263 7.03395 15.9173 5.2429 13.2172C4.8528 12.6521 4.50598 12.0585 4.2054 11.4413C3.39906 10.0616 2.98266 8.4895 3.00055 6.89229C3.06211 6.05672 3.46351 5.28269 4.11143 4.75015Z" stroke="currentColor" stroke-width="1.5" stroke-linecap="round" stroke-linejoin="round"/>
</svg>
