<svg width="24" height="24" viewBox="0 0 24 24" fill="none" xmlns="http://www.w3.org/2000/svg">
<path d="M15.8529 3L18.4264 5.5701M18.4264 5.5701L21 8.1402M18.4264 5.5701L15.8529 8.1402M18.4264 5.5701L21 3M3.95266 7.07098C4.92289 6.04936 5.26647 5.76279 5.67952 5.63043C5.96582 5.55523 6.26615 5.55082 6.55454 5.61758C6.93414 5.7281 7.03322 5.81163 8.27883 7.04913C9.3726 8.13628 9.48069 8.25451 9.58621 8.46269C9.79031 8.83738 9.82312 9.28165 9.67628 9.6822C9.56819 9.98419 9.40863 10.1847 8.74594 10.8503L8.31358 11.2834C8.19983 11.3986 8.17286 11.5737 8.24666 11.7177C9.20645 13.353 10.5678 14.717 12.2022 15.6808C12.3907 15.7817 12.623 15.749 12.7761 15.5999L13.1918 15.1912C13.4486 14.928 13.7206 14.68 14.0063 14.4485C14.4544 14.1716 15.0137 14.1449 15.4861 14.3778C15.7165 14.4857 15.7937 14.5564 16.9222 15.6795C18.0803 16.8361 18.1176 16.8733 18.2476 17.1394C18.4902 17.58 18.4878 18.1145 18.2411 18.5529C18.1125 18.7996 18.0404 18.8896 17.3867 19.5565C16.9917 19.96 16.6146 20.3276 16.5606 20.3815C16.0207 20.8271 15.3287 21.046 14.6304 20.9919C13.3529 20.8752 12.1165 20.4804 11.0081 19.8354C8.55142 18.5355 6.46015 16.6415 4.92547 14.3264C4.58992 13.8428 4.2914 13.3346 4.03244 12.8062C3.34238 11.6248 2.98574 10.2788 3.00044 8.91117C3.05233 8.19349 3.39648 7.52841 3.95266 7.07098Z" stroke="currentColor" stroke-width="1.5" stroke-linecap="round" stroke-linejoin="round"/>
</svg>
