<svg width="24" height="24" viewBox="0 0 24 24" fill="none" xmlns="http://www.w3.org/2000/svg">
<path d="M21 8.1402V3M15.8529 8.1402V3M3.95264 7.07098C4.92288 6.04936 5.26645 5.76279 5.67951 5.63043C5.96581 5.55523 6.26614 5.55082 6.55453 5.61758C6.93413 5.7281 7.03321 5.81163 8.27882 7.04913C9.37259 8.13628 9.48068 8.25451 9.58619 8.46269C9.79029 8.83738 9.82311 9.28165 9.67627 9.6822C9.56818 9.98419 9.40862 10.1847 8.74592 10.8503L8.31356 11.2834C8.19981 11.3986 8.17285 11.5737 8.24665 11.7177C9.20643 13.353 10.5678 14.717 12.2022 15.6808C12.3907 15.7817 12.623 15.749 12.7761 15.5999L13.1918 15.1912C13.4486 14.928 13.7206 14.68 14.0063 14.4485C14.4543 14.1716 15.0136 14.1449 15.4861 14.3778C15.7164 14.4857 15.7936 14.5564 16.9222 15.6795C18.0803 16.8361 18.1176 16.8733 18.2475 17.1394C18.4902 17.58 18.4878 18.1145 18.2411 18.5529C18.1124 18.7996 18.0404 18.8896 17.3867 19.5565C16.9916 19.96 16.6146 20.3276 16.5606 20.3815C16.0207 20.8271 15.3287 21.046 14.6304 20.9919C13.3529 20.8752 12.1165 20.4804 11.0081 19.8354C8.5514 18.5355 6.46014 16.6415 4.92545 14.3264C4.58985 13.8424 4.29133 13.3338 4.03243 12.8049C3.34259 11.6239 2.98596 10.2783 3.00042 8.91117C3.05231 8.19349 3.39646 7.52841 3.95264 7.07098Z" stroke="currentColor" stroke-width="1.5" stroke-linecap="round" stroke-linejoin="round"/>
</svg>
