<svg width="24" height="24" viewBox="0 0 24 24" fill="none" xmlns="http://www.w3.org/2000/svg">
<path fill-rule="evenodd" clip-rule="evenodd" d="M18.8092 10.0454L5.7867 3.17172C5.44644 2.96322 5.03005 2.94341 4.67316 3.11874C4.31626 3.29408 4.06455 3.64211 4 4.04948C4.00446 4.18482 4.0356 4.31774 4.09145 4.43987L6.57088 10.7148C6.69532 11.1314 6.76305 11.5644 6.77207 12.0009C6.76308 12.4373 6.69535 12.8703 6.57088 13.287L4.09145 19.5619C4.0356 19.684 4.00446 19.8169 4 19.9522C4.06501 20.359 4.31667 20.7064 4.67319 20.8814C5.0297 21.0564 5.44554 21.0368 5.78556 20.8288L18.8092 13.9552C19.5354 13.6018 20 12.8391 20 12.0003C20 11.1614 19.5354 10.3987 18.8092 10.0454Z" stroke="currentColor" stroke-width="1.5" stroke-linecap="round" stroke-linejoin="round"/>
</svg>
