<svg width="24" height="24" viewBox="0 0 24 24" fill="none" xmlns="http://www.w3.org/2000/svg">
<path d="M3.83607 14.9162L3.05309 17.6947C2.8358 19.0473 3.28965 19.8804 4.33877 20.045C5.94391 20.0542 7.51101 19.5565 8.81682 18.623C10.8979 17.3484 12.8083 15.8142 14.5021 14.0573C16.2023 12.3635 17.672 10.4532 18.8735 8.37564C19.7447 7.12788 20.1414 5.60989 19.992 4.09541C19.7143 3.14139 18.7873 2.79553 17.3615 3.11697L15.1115 3.89998M15.1115 3.89998C11.4976 2.63397 7.47995 3.85131 5.17639 6.91028C2.87283 9.96924 2.81265 14.167 5.02758 17.2908C7.2425 20.4145 11.2236 21.7466 14.8724 20.5847C18.5211 19.4228 20.999 16.0339 21 12.2046C21.0056 8.4649 18.6423 5.13193 15.1115 3.89998Z" stroke="currentColor" stroke-width="1.5" stroke-linecap="round" stroke-linejoin="round"/>
</svg>
