<svg width="24" height="24" viewBox="0 0 24 24" fill="none" xmlns="http://www.w3.org/2000/svg">
<path d="M8.78607 11.2458H5.07143L4.53571 16.1271M4.53571 16.1271L4 21H10.4286M4.53571 16.1271L7.33964 14.2511M8.78607 11.2542L8.59536 11.0964C7.58153 10.2311 6.99871 8.97247 6.99871 7.64829C6.99871 6.32411 7.58153 5.06547 8.59536 4.2002C10.765 2.43642 12.6025 2.77223 14.4036 4.2002C15.4174 5.06547 16.0002 6.32411 16.0002 7.64829C16.0002 8.97247 15.4174 10.2311 14.4036 11.0964L14.2129 11.2542M8.785 11.2542L10.1425 12.3708M10.1425 12.3708L11.5 13.4968L14.2139 11.2447H17.9286L18.4643 16.1176M10.1425 12.3708L7.33964 14.2468L10.4286 21M10.4286 21H13.6429M13.6429 21H19L18.4643 16.1271L13.6429 21ZM13 7.49366C12.99 8.31031 12.314 8.96525 11.488 8.95866C10.662 8.95206 9.99681 8.28643 10.0001 7.46972C10.0034 6.65302 10.674 5.99266 11.5 5.9926C11.9003 5.99484 12.2833 6.15428 12.5646 6.43582C12.8459 6.71735 13.0026 7.0979 13 7.49366Z" stroke="currentColor" stroke-width="1.5" stroke-linecap="round" stroke-linejoin="round"/>
</svg>
