<svg width="24" height="24" viewBox="0 0 24 24" fill="none" xmlns="http://www.w3.org/2000/svg">
<path d="M15.4997 19.2L18.3861 19.6719C19.0378 19.7786 19.7034 19.5938 20.2067 19.1663C20.71 18.7388 21 18.1118 21 17.4514V5.81186C20.9999 4.70922 20.2008 3.76911 19.1126 3.59143L15.4997 3M15.4997 19.2L8.50029 21M15.4997 19.2V3M8.50029 21L4.88743 20.4086C3.79921 20.2309 3.00008 19.2908 3 18.1881V6.54857C2.99999 5.88824 3.29005 5.26124 3.79331 4.83373C4.29657 4.40622 4.96222 4.22136 5.61386 4.32814L8.50029 4.8M8.50029 21V4.8M8.50029 4.8L15.4997 3" stroke="currentColor" stroke-width="1.5" stroke-linecap="round" stroke-linejoin="round"/>
</svg>
