<svg width="24" height="24" viewBox="0 0 24 24" fill="none" xmlns="http://www.w3.org/2000/svg">
<path d="M21 12C21 16.9706 16.9706 21 12 21M21 12C21 7.02944 16.9706 3 12 3M21 12C21 10.136 16.9706 8.625 12.0001 8.625C7.02951 8.625 3 10.136 3 12M21 12C21 13.864 16.9706 15.375 12.0001 15.375C7.02951 15.375 3 13.864 3 12M12 21C7.02944 21 3 16.9706 3 12M12 21C13.864 21 15.375 16.9706 15.375 12C15.375 7.02944 13.864 3 12 3M12 21C10.136 21 8.625 16.9706 8.625 12C8.625 7.02944 10.136 3 12 3M3 12C3 7.02944 7.02944 3 12 3" stroke="currentColor" stroke-width="1.5" stroke-linecap="round" stroke-linejoin="round"/>
</svg>
