<svg width="24" height="24" viewBox="0 0 24 24" fill="none" xmlns="http://www.w3.org/2000/svg">
<path d="M5.00057 12C5.0012 8.66076 7.36051 5.78698 10.6357 5.13611C13.9108 4.48523 17.1897 6.23852 18.4671 9.32375C19.7444 12.409 18.6645 15.9669 15.8878 17.8217C13.1111 19.6764 9.41087 19.3115 7.05 16.95C5.73743 15.6371 5.00022 13.8565 5.00057 12ZM5.00057 12L3 12M18.9994 12H21M12 5.00057V3M12 21V18.9994M9.00043 12C9.00082 10.569 10.012 9.33757 11.4156 9.05875C12.8191 8.77993 14.2242 9.5314 14.7715 10.8536C15.3188 12.1758 14.8559 13.7005 13.6659 14.4952C12.4759 15.29 10.8902 15.1335 9.87857 14.1214C9.31609 13.5587 9.00021 12.7956 9.00043 12Z" stroke="currentColor" stroke-width="1.5" stroke-linecap="round" stroke-linejoin="round"/>
</svg>
