<svg width="24" height="24" viewBox="0 0 24 24" fill="none" xmlns="http://www.w3.org/2000/svg">
<path d="M5.38821 9.65276L6.13822 9.65365L6.13821 9.65232L5.38821 9.65276ZM6.50293 5.95674L7.12807 6.37111L7.12841 6.37059L6.50293 5.95674ZM9.46943 3.50633L9.18054 2.8142L9.17978 2.81452L9.46943 3.50633ZM14.5294 3.50633L14.8188 2.81444L14.8182 2.8142L14.5294 3.50633ZM17.4971 5.95674L16.8716 6.37067L16.8718 6.37091L17.4971 5.95674ZM20.5 18.5664L20.3592 19.3031C20.6465 19.358 20.9395 19.2408 21.1098 19.003C21.2801 18.7653 21.2966 18.4502 21.1521 18.1959L20.5 18.5664ZM17.3599 17.9664L17.5006 17.2297C17.1309 17.1591 16.7661 17.3734 16.6479 17.7307L17.3599 17.9664ZM16.3556 21L15.7029 21.3694C15.849 21.6276 16.1335 21.7753 16.4288 21.7464C16.724 21.7175 16.9744 21.5173 17.0676 21.2357L16.3556 21ZM13.5883 16.11L14.241 15.7406C14.0751 15.4474 13.7339 15.3008 13.407 15.3822L13.5883 16.11ZM10.4117 16.11L10.593 15.3822C10.2661 15.3008 9.92494 15.4474 9.75899 15.7406L10.4117 16.11ZM7.64436 21L6.93233 21.2356C7.02552 21.5172 7.27595 21.7175 7.57119 21.7464C7.86643 21.7754 8.15098 21.6276 8.29708 21.3694L7.64436 21ZM6.64014 17.9652L7.35217 17.7296C7.23389 17.3721 6.86891 17.1578 6.49911 17.2286L6.64014 17.9652ZM3.5 18.5664L2.84792 18.1959C2.7034 18.4502 2.71995 18.7654 2.8903 19.0032C3.06065 19.241 3.35372 19.358 3.64103 19.303L3.5 18.5664ZM11.6891 6.99231L12.3559 7.33581L12.3602 7.32722L11.6891 6.99231ZM12.3121 6.99231L11.641 7.32724L11.6449 7.33501L12.3121 6.99231ZM12.9569 8.24752L13.6258 7.90845L13.624 7.90482L12.9569 8.24752ZM13.1997 8.43232L13.0481 9.16686L13.0539 9.16801L13.1997 8.43232ZM14.55 8.69992L14.7205 7.96955C14.7123 7.96763 14.704 7.96586 14.6958 7.96423L14.55 8.69992ZM14.8126 8.93855L15.5247 8.70328V8.70328L14.8126 8.93855ZM14.7431 9.28432L15.3026 9.78385L15.3101 9.77522L14.7431 9.28432ZM13.7789 10.3643L13.2194 9.86485L13.2171 9.86746L13.7789 10.3643ZM13.6915 10.6439L12.9469 10.7339L12.947 10.7348L13.6915 10.6439ZM13.87 12.1055L13.1255 12.1965C13.1261 12.2012 13.1267 12.2059 13.1274 12.2106L13.87 12.1055ZM13.7272 12.436L14.1625 13.0468L13.7272 12.436ZM13.3649 12.4655L13.0283 13.1358L13.0349 13.1391L13.3649 12.4655ZM12.1506 11.8559L11.8119 12.5251L11.8141 12.5262L12.1506 11.8559ZM11.8373 11.8559L12.1738 12.5262L12.176 12.5251L11.8373 11.8559ZM10.623 12.4655L10.953 13.1391L10.9595 13.1358L10.623 12.4655ZM10.2606 12.436L10.6959 11.8252L10.2606 12.436ZM10.1179 12.1055L10.8606 12.2106L10.8623 12.1967L10.1179 12.1055ZM10.2964 10.6475L11.0408 10.7387L11.0409 10.7375L10.2964 10.6475ZM10.2089 10.3679L10.7707 9.87105L10.7684 9.86845L10.2089 10.3679ZM9.24478 9.28792L8.67923 9.7806L8.68529 9.78739L9.24478 9.28792ZM9.45 8.69992L9.59423 9.43592L9.59643 9.43548L9.45 8.69992ZM10.8003 8.43112L10.9467 9.1667L10.9519 9.16563L10.8003 8.43112ZM11.0431 8.24632L10.3764 7.90284L10.3742 7.90725L11.0431 8.24632ZM7.33107 14.3615L7.86362 13.8334L7.86125 13.8311L7.33107 14.3615ZM10.0353 16.0079L10.2618 15.293L10.2608 15.2927L10.0353 16.0079ZM10.2368 16.8438C10.6388 16.9437 11.0457 16.6989 11.1456 16.2969C11.2456 15.8949 11.0007 15.488 10.5987 15.3881L10.4178 16.1159L10.2368 16.8438ZM16.6689 14.3615L16.1387 13.8311L16.1364 13.8334L16.6689 14.3615ZM13.9647 16.0079L13.7392 15.2927L13.7382 15.293L13.9647 16.0079ZM13.4013 15.3881C12.9993 15.488 12.7544 15.8949 12.8544 16.2969C12.9543 16.6989 13.3612 16.9437 13.7632 16.8438L13.5822 16.1159L13.4013 15.3881ZM5.38821 9.65276L6.13821 9.65232C6.13753 8.4874 6.48123 7.34696 7.12807 6.37111L6.50293 5.95674L5.87779 5.54237C5.06855 6.76324 4.63736 8.19207 4.63821 9.65319L5.38821 9.65276ZM6.50293 5.95674L7.12841 6.37059C7.76681 5.40573 8.68218 4.64903 9.75908 4.19814L9.46943 3.50633L9.17978 2.81452C7.83078 3.37933 6.68088 4.3286 5.87744 5.5429L6.50293 5.95674ZM9.46943 3.50633L9.75832 4.19846C11.1909 3.60051 12.8079 3.60051 14.2405 4.19846L14.5294 3.50633L14.8182 2.8142C13.0159 2.06193 10.9829 2.06193 9.18054 2.8142L9.46943 3.50633ZM14.5294 3.50633L14.2399 4.19822C15.3172 4.64893 16.233 5.40565 16.8716 6.37067L17.4971 5.95674L18.1225 5.54282C17.3187 4.32831 16.1683 3.37902 14.8188 2.81444L14.5294 3.50633ZM17.4971 5.95674L16.8718 6.37091C18.1863 8.35543 18.1939 10.9175 16.8912 12.9095L17.5189 13.32L18.1466 13.7304C19.7772 11.237 19.7677 8.02651 18.1223 5.54257L17.4971 5.95674ZM17.5189 13.32L16.8668 13.6905L19.8479 18.9369L20.5 18.5664L21.1521 18.1959L18.171 12.9494L17.5189 13.32ZM20.5 18.5664L20.6408 17.8297L17.5006 17.2297L17.3599 17.9664L17.2191 18.7031L20.3592 19.3031L20.5 18.5664ZM17.3599 17.9664L16.6479 17.7307L15.6436 20.7643L16.3556 21L17.0676 21.2357L18.0719 18.2021L17.3599 17.9664ZM16.3556 21L17.0084 20.6306L14.241 15.7406L13.5883 16.11L12.9356 16.4794L15.7029 21.3694L16.3556 21ZM13.5883 16.11L13.407 15.3822C12.4835 15.6123 11.5165 15.6123 10.593 15.3822L10.4117 16.11L10.2304 16.8377C11.392 17.1271 12.608 17.1271 13.7696 16.8377L13.5883 16.11ZM10.4117 16.11L9.75899 15.7406L6.99163 20.6306L7.64436 21L8.29708 21.3694L11.0644 16.4794L10.4117 16.11ZM7.64436 21L8.35639 20.7644L7.35217 17.7296L6.64014 17.9652L5.92811 18.2008L6.93233 21.2356L7.64436 21ZM6.64014 17.9652L6.49911 17.2286L3.35897 17.8298L3.5 18.5664L3.64103 19.303L6.78117 18.7018L6.64014 17.9652ZM3.5 18.5664L4.15208 18.9369L7.13316 13.6905L6.48107 13.32L5.82899 12.9494L2.84792 18.1959L3.5 18.5664ZM6.48107 13.32L7.10867 12.9093C6.47355 11.9387 6.13684 10.808 6.13821 9.65365L5.38821 9.65276L4.63821 9.65186C4.63649 11.0996 5.0589 12.5162 5.85348 13.7306L6.48107 13.32ZM11.6891 6.99231L12.3602 7.32722C12.2902 7.46747 12.1492 7.55092 12.0006 7.55092V6.80092V6.05092C11.5876 6.05092 11.205 6.28276 11.0181 6.6574L11.6891 6.99231ZM12.0006 6.80092V7.55092C11.852 7.55092 11.711 7.46748 11.641 7.32722L12.3121 6.99231L12.9831 6.6574C12.7962 6.28276 12.4136 6.05092 12.0006 6.05092V6.80092ZM12.3121 6.99231L11.6449 7.33501L12.2897 8.59021L12.9569 8.24752L13.624 7.90482L12.9792 6.64961L12.3121 6.99231ZM12.9569 8.24752L12.2879 8.58658C12.4404 8.88744 12.7215 9.09942 13.0481 9.16683L13.1997 8.43232L13.3513 7.6978C13.4674 7.72176 13.5697 7.79762 13.6258 7.90845L12.9569 8.24752ZM13.1997 8.43232L13.0539 9.16801L14.4042 9.43561L14.55 8.69992L14.6958 7.96423L13.3455 7.69662L13.1997 8.43232ZM14.55 8.69992L14.3795 9.43029C14.2519 9.40049 14.144 9.30567 14.1004 9.17382L14.8126 8.93855L15.5247 8.70328C15.4023 8.33273 15.0954 8.05706 14.7205 7.96955L14.55 8.69992ZM14.8126 8.93855L14.1004 9.17382C14.0566 9.04124 14.0866 8.8967 14.176 8.79342L14.7431 9.28432L15.3101 9.77522C15.5647 9.48115 15.6474 9.07455 15.5247 8.70328L14.8126 8.93855ZM14.7431 9.28432L14.1836 8.78485L13.2194 9.86485L13.7789 10.3643L14.3384 10.8638L15.3026 9.78379L14.7431 9.28432ZM13.7789 10.3643L13.2171 9.86746C13.0081 10.1038 12.9088 10.4187 12.9469 10.7339L13.6915 10.6439L14.4361 10.5539C14.4497 10.6667 14.414 10.7784 14.3407 10.8612L13.7789 10.3643ZM13.6915 10.6439L12.947 10.7348L13.1255 12.1965L13.87 12.1055L14.6145 12.0146L14.436 10.553L13.6915 10.6439ZM13.87 12.1055L13.1274 12.2106C13.1059 12.0585 13.172 11.9107 13.292 11.8252L13.7272 12.436L14.1625 13.0468C14.4943 12.8103 14.6703 12.4082 14.6126 12.0004L13.87 12.1055ZM13.7272 12.436L13.292 11.8252C13.4107 11.7406 13.5651 11.7284 13.6948 11.792L13.3649 12.4655L13.0349 13.1391C13.3986 13.3172 13.8319 13.2824 14.1625 13.0468L13.7272 12.436ZM13.3649 12.4655L13.7014 11.7953L12.4871 11.1857L12.1506 11.8559L11.8141 12.5262L13.0284 13.1358L13.3649 12.4655ZM12.1506 11.8559L12.4892 11.1868C12.178 11.0292 11.8099 11.0292 11.4986 11.1868L11.8373 11.8559L12.176 12.5251C12.0614 12.5831 11.9265 12.5831 11.8119 12.5251L12.1506 11.8559ZM11.8373 11.8559L11.5008 11.1857L10.2865 11.7953L10.623 12.4655L10.9595 13.1358L12.1738 12.5262L11.8373 11.8559ZM10.623 12.4655L10.2931 11.792C10.4228 11.7285 10.5771 11.7406 10.6959 11.8252L10.2606 12.436L9.82535 13.0468C10.156 13.2824 10.5892 13.3172 10.9529 13.1391L10.623 12.4655ZM10.2606 12.436L10.6959 11.8252C10.8159 11.9107 10.882 12.0585 10.8605 12.2106L10.1179 12.1055L9.37526 12.0004C9.31755 12.4082 9.49359 12.8103 9.82535 13.0468L10.2606 12.436ZM10.1179 12.1055L10.8623 12.1967L11.0408 10.7387L10.2964 10.6475L9.55191 10.5564L9.37341 12.0144L10.1179 12.1055ZM10.2964 10.6475L11.0409 10.7375C11.079 10.4223 10.9798 10.1074 10.7707 9.87106L10.2089 10.3679L9.64712 10.8648C9.57386 10.782 9.53815 10.6703 9.55177 10.5575L10.2964 10.6475ZM10.2089 10.3679L10.7684 9.86845L9.80428 8.78845L9.24478 9.28792L8.68529 9.78739L9.64944 10.8674L10.2089 10.3679ZM9.24478 9.28792L9.8103 8.79528C9.90183 8.90035 9.93151 9.04835 9.88459 9.1828L9.17648 8.93566L8.46836 8.68853C8.33694 9.06511 8.41864 9.48138 8.67927 9.78056L9.24478 9.28792ZM9.17648 8.93566L9.88459 9.1828C9.83796 9.31642 9.72528 9.41024 9.59423 9.43592L9.45 8.69992L9.30577 7.96392C8.92049 8.03942 8.59951 8.31277 8.46836 8.68853L9.17648 8.93566ZM9.45 8.69992L9.59643 9.43548L10.9467 9.16668L10.8003 8.43112L10.6539 7.69555L9.30357 7.96435L9.45 8.69992ZM10.8003 8.43112L10.9519 9.16563C11.2785 9.09822 11.5596 8.88624 11.7121 8.58538L11.0431 8.24632L10.3742 7.90725C10.4303 7.79642 10.5326 7.72056 10.6487 7.6966L10.8003 8.43112ZM11.0431 8.24632L11.7099 8.58978L12.3559 7.33578L11.6891 6.99231L11.0224 6.64884L10.3764 7.90285L11.0431 8.24632ZM6.48107 13.32L5.85495 13.7329C6.13001 14.15 6.44696 14.5383 6.80089 14.892L7.33107 14.3615L7.86125 13.8311C7.57886 13.5488 7.32625 13.2393 7.10719 12.9071L6.48107 13.32ZM7.33107 14.3615L6.79853 14.8896C7.63674 15.7349 8.67063 16.3641 9.80978 16.7232L10.0353 16.0079L10.2608 15.2927C9.35248 15.0063 8.52965 14.5051 7.86362 13.8334L7.33107 14.3615ZM10.0353 16.0079L9.80882 16.7229C9.95016 16.7677 10.0928 16.808 10.2368 16.8438L10.4178 16.1159L10.5987 15.3881C10.4853 15.3599 10.373 15.3282 10.2618 15.293L10.0353 16.0079ZM17.5189 13.32L16.8928 12.9071C16.6738 13.2393 16.4211 13.5488 16.1388 13.8311L16.6689 14.3615L17.1991 14.892C17.553 14.5383 17.87 14.15 18.145 13.7329L17.5189 13.32ZM16.6689 14.3615L16.1364 13.8334C15.4704 14.5051 14.6475 15.0063 13.7392 15.2927L13.9647 16.0079L14.1902 16.7232C15.3294 16.3641 16.3633 15.7349 17.2015 14.8896L16.6689 14.3615ZM13.9647 16.0079L13.7382 15.293C13.627 15.3282 13.5147 15.3599 13.4013 15.3881L13.5822 16.1159L13.7632 16.8438C13.9072 16.808 14.0498 16.7677 14.1912 16.7229L13.9647 16.0079Z" fill="#202027"/>
</svg>
