<svg width="24" height="24" viewBox="0 0 24 24" fill="none" xmlns="http://www.w3.org/2000/svg">
<path d="M16.86 16.8263C15.4614 17.8849 13.7584 18.4715 12 18.5C6.27273 18.5 3 12 3 12C4.01773 10.1166 5.42929 8.47101 7.14 7.17377M10.2818 5.69502C10.845 5.56411 11.4216 5.49867 12 5.50002C17.7273 5.50002 21 12 21 12C20.5033 12.9227 19.911 13.7914 19.2327 14.5919M13.7345 13.7225C13.5098 13.962 13.2389 14.1541 12.9378 14.2873C12.6367 14.4205 12.3116 14.4922 11.9821 14.4979C11.6525 14.5037 11.3251 14.4435 11.0195 14.3209C10.7139 14.1983 10.4362 14.0158 10.2031 13.7844C9.97007 13.5529 9.78632 13.2772 9.66287 12.9737C9.53942 12.6702 9.47879 12.3451 9.48461 12.0178C9.49042 11.6905 9.56256 11.3678 9.69672 11.0688C9.83087 10.7698 10.0243 10.5007 10.2655 10.2775M3 3L21 21" stroke="currentColor" stroke-width="1.5" stroke-linecap="round" stroke-linejoin="round"/>
</svg>
