<svg width="24" height="24" viewBox="0 0 24 24" fill="none" xmlns="http://www.w3.org/2000/svg">
<path d="M4.125 7.42857C5.54812 9.97486 8.69813 13.7931 12 7.42857M4.125 7.42857L5.7 16.5714H18.3L19.875 7.42857M4.125 7.42857C3.50368 7.42857 3 6.9169 3 6.28571C3 5.65453 3.50368 5.14286 4.125 5.14286C4.74632 5.14286 5.25 5.65453 5.25 6.28571C5.25 6.58882 5.13147 6.87951 4.9205 7.09384C4.70952 7.30816 4.42337 7.42857 4.125 7.42857ZM12 7.42857C15.3019 13.7931 18.4519 9.97486 19.875 7.42857M12 7.42857C11.068 7.42857 10.3125 6.66106 10.3125 5.71429C10.3125 4.76751 11.068 4 12 4C12.932 4 13.6875 4.76751 13.6875 5.71429C13.6875 6.16894 13.5097 6.60498 13.1932 6.92647C12.8768 7.24796 12.4476 7.42857 12 7.42857ZM19.875 7.42857C19.2537 7.42857 18.75 6.9169 18.75 6.28571C18.75 5.65453 19.2537 5.14286 19.875 5.14286C20.4963 5.14286 21 5.65453 21 6.28571C21 6.58882 20.8815 6.87951 20.6705 7.09384C20.4595 7.30816 20.1734 7.42857 19.875 7.42857ZM5.8125 20C5.20961 20 4.65253 19.6733 4.35108 19.1429C4.04964 18.6125 4.04964 17.959 4.35108 17.4286C4.65253 16.8982 5.20961 16.5714 5.8125 16.5714H18.1875C19.1195 16.5714 19.875 17.3389 19.875 18.2857C19.875 19.2325 19.1195 20 18.1875 20H5.8125Z" stroke="currentColor" stroke-width="1.5" stroke-linecap="round" stroke-linejoin="round"/>
</svg>
