<svg width="24" height="24" viewBox="0 0 24 24" fill="none" xmlns="http://www.w3.org/2000/svg">
<path d="M16.3346 12.1666C16.7319 13.0554 17.6067 13.6239 18.5678 13.6177C19.8933 13.6355 20.9821 12.5588 21 11.2125V6.39974C20.979 5.05571 19.8911 3.98241 18.5678 4.00022C17.5239 3.99186 16.5916 4.66223 16.2525 5.66503C15.725 4.74357 14.7527 4.17879 13.7033 4.18418H5.91937C5.15553 4.1735 4.4188 4.47149 3.8713 5.01257C3.32379 5.55366 3.01037 6.2935 3 7.06932V10.9165C3.01008 11.6926 3.32337 12.4327 3.8709 12.974C4.41844 13.5154 5.15534 13.8135 5.91937 13.8028H9.89288C10.1906 13.7975 10.4736 13.9338 10.658 14.1712C10.8424 14.4087 10.9068 14.7201 10.8323 15.0129L10.137 17.5758C10.007 18.0736 10.0796 18.6036 10.3384 19.0465C10.5971 19.4894 11.0204 19.8081 11.5129 19.9307C12.5395 20.2128 13.5996 19.6082 13.8968 18.571L15.1129 13.772C15.1849 13.5261 15.3343 13.311 15.5381 13.1595C15.8729 12.8927 16.145 12.5535 16.3346 12.1666ZM16.3346 12.1666C16.203 11.8663 16.1352 11.5412 16.1355 11.2125V6.39974C16.1338 6.14878 16.1718 5.89918 16.248 5.66046" stroke="currentColor" stroke-width="1.5" stroke-linecap="round" stroke-linejoin="round"/>
</svg>
