<svg width="24" height="24" viewBox="0 0 24 24" fill="none" xmlns="http://www.w3.org/2000/svg">
<path d="M7.66537 11.8334C7.26809 10.9446 6.39332 10.3761 5.43225 10.3823C4.10674 10.3645 3.0179 11.4412 3 12.7875V17.6003C3.02097 18.9443 4.1089 20.0176 5.43225 19.9998C6.47614 20.0081 7.40843 19.3378 7.7475 18.335C8.27504 19.2564 9.24729 19.8212 10.2968 19.8158H18.0806C18.8445 19.8265 19.5812 19.5285 20.1287 18.9874C20.6762 18.4463 20.9896 17.7065 21 16.9307V13.0835C20.9899 12.3074 20.6766 11.5673 20.1291 11.026C19.5816 10.4846 18.8447 10.1865 18.0806 10.1972H14.1071C13.8094 10.2025 13.5264 10.0662 13.342 9.82875C13.1576 9.59127 13.0932 9.27992 13.1678 8.98713L13.863 6.42422C13.993 5.9264 13.9204 5.3964 13.6616 4.95349C13.4029 4.51057 12.9796 4.19193 12.4871 4.06926C11.4605 3.78715 10.4004 4.39179 10.1033 5.42899L8.88712 10.228C8.81509 10.4739 8.66572 10.689 8.46188 10.8405C8.12707 11.1073 7.85498 11.4465 7.66537 11.8334ZM7.66537 11.8334C7.79696 12.1337 7.8648 12.4588 7.8645 12.7875V17.6003C7.86621 17.8512 7.82823 18.1008 7.752 18.3395" stroke="currentColor" stroke-width="1.5" stroke-linecap="round"/>
</svg>
