<svg width="24" height="24" viewBox="0 0 24 24" fill="none" xmlns="http://www.w3.org/2000/svg">
<path d="M19 18.5034C20.5021 18.6399 21.8358 17.5315 22 16.0101C21.8352 14.4892 20.5018 13.3814 19 13.5179M5 18.5034C3.49786 18.6399 2.16424 17.5315 2 16.0101C2.16477 14.4892 3.49822 13.3814 5 13.5179M14.5 7.03704C14.5 8.4382 13.3807 9.57407 12 9.57407C10.6193 9.57407 9.5 8.4382 9.5 7.03704C9.5 5.63587 10.6193 4.5 12 4.5C13.3807 4.5 14.5 5.63587 14.5 7.03704ZM17 16.0101C17 17.9329 14.7611 19.5 12 19.5C9.23895 19.5 7 17.9372 7 16.0101C7 14.083 9.23895 12.5213 12 12.5213C14.7611 12.5213 17 14.083 17 16.0101ZM19.7895 9.36364C19.8002 9.98164 19.4415 10.5448 18.882 10.7889C18.3224 11.0329 17.6729 10.9094 17.2385 10.4762C16.804 10.043 16.6708 9.38625 16.9013 8.81415C17.1319 8.24205 17.6804 7.86822 18.2895 7.86812C19.1105 7.86101 19.7819 8.53043 19.7895 9.36364ZM4.21054 9.36364C4.19985 9.98164 4.55847 10.5448 5.11805 10.7889C5.67763 11.0329 6.32707 10.9094 6.76154 10.4762C7.19601 10.043 7.32924 9.38625 7.0987 8.81415C6.86815 8.24205 6.31961 7.86822 5.71054 7.86812C4.88949 7.86101 4.21806 8.53043 4.21054 9.36364Z" stroke="currentColor" stroke-width="1.5" stroke-linecap="round" stroke-linejoin="round"/>
</svg>
