<svg width="24" height="24" viewBox="0 0 24 24" fill="none" xmlns="http://www.w3.org/2000/svg">
<path d="M5.57143 18.4286V5.57143C5.57143 4.15127 6.7227 3 8.14286 3H18.4286C19.8487 3 21 4.15127 21 5.57143V18.4286M5.57143 18.4286C5.57143 19.8487 6.7227 21 8.14286 21H18.4286C19.8487 21 21 19.8487 21 18.4286M5.57143 18.4286C10.1463 15.0103 16.4252 15.0103 21 18.4286M3 8.14286H5.57143M3 12H5.57143M3 15.8571H5.57143M15.8571 9.42857C15.8571 10.8487 14.7059 12 13.2857 12C11.8656 12 10.7143 10.8487 10.7143 9.42857C10.7143 8.00841 11.8656 6.85714 13.2857 6.85714C14.7059 6.85714 15.8571 8.00841 15.8571 9.42857Z" stroke="currentColor" stroke-width="1.5" stroke-linecap="round" stroke-linejoin="round"/>
</svg>
