<svg width="24" height="24" viewBox="0 0 24 24" fill="none" xmlns="http://www.w3.org/2000/svg">
<path d="M14.4286 4H15.6429C18.3254 4 20.5 6.23858 20.5 9V16.5C20.5 19.2614 18.3254 21.5 15.6429 21.5H8.35714C5.67462 21.5 3.5 19.2614 3.5 16.5V9C3.5 6.23858 5.67462 4 8.35714 4H9.57143M14.4286 4V5.25M14.4286 4V1.5M14.4286 4H9.57143M9.57143 4V5.25M9.57143 4V1.5M4.71429 19.625C9.03497 16.3016 14.965 16.3016 19.2857 19.625M14.4286 10.875C14.4286 12.2557 13.3413 13.375 12 13.375C10.6587 13.375 9.57143 12.2557 9.57143 10.875C9.57143 9.49429 10.6587 8.375 12 8.375C13.3413 8.375 14.4286 9.49429 14.4286 10.875Z" stroke="currentColor" stroke-width="1.5" stroke-linecap="round" stroke-linejoin="round"/>
</svg>
