<svg width="24" height="24" viewBox="0 0 24 24" fill="none" xmlns="http://www.w3.org/2000/svg">
<path d="M17.4 19.8004C19.2177 19.9497 20.8195 18.6144 21 16.7996C20.8189 14.9852 19.2172 13.6507 17.4 13.8M12 5.99958C12 7.6562 10.657 8.99915 9.0004 8.99915C7.34379 8.99915 6.00083 7.6562 6.00083 5.99958C6.00083 4.34296 7.34379 3 9.0004 3C10.657 3 12 4.34296 12 5.99958ZM14.9996 16.7996C14.9996 19.1139 12.3137 21 8.99914 21C5.68457 21 3 19.119 3 16.7996C3 14.4801 5.68585 12.6004 9.00042 12.6004C12.315 12.6004 14.9996 14.4801 14.9996 16.7996ZM18.3501 8.7999C18.3501 9.79401 17.5442 10.5999 16.5501 10.5999C15.556 10.5999 14.7501 9.79401 14.7501 8.7999C14.7501 7.80578 15.556 6.99989 16.5501 6.99989C17.0275 6.99989 17.4853 7.18954 17.8229 7.5271C18.1605 7.86467 18.3501 8.3225 18.3501 8.7999Z" stroke="currentColor" stroke-width="1.5" stroke-linecap="round" stroke-linejoin="round"/>
</svg>
