<svg width="24" height="24" viewBox="0 0 24 24" fill="none" xmlns="http://www.w3.org/2000/svg">
<path d="M4.8425 10.2857H4.01625C2.92888 10.2613 2.02661 11.097 2 12.1533V14.4896C2.02661 15.5458 2.92888 16.3816 4.01625 16.3571H4.8425M4.8425 10.2857C5.5526 8.15174 7.57683 6.68937 9.88499 6.64286H14.115C16.4231 6.68937 18.4474 8.15174 19.1575 10.2857M4.8425 10.2857C4.61471 10.9209 4.49895 11.5888 4.50003 12.2614V14.3815C4.49895 15.0541 4.61471 15.722 4.8425 16.3571M19.1575 10.2857C19.3853 10.9209 19.5011 11.5888 19.5 12.2614V14.3815C19.6061 17.3761 17.1974 19.8893 14.115 20H9.88499C7.57683 19.9535 5.5526 18.4911 4.8425 16.3571M19.1575 10.2857H19.9838C21.0711 10.2613 21.9734 11.097 22 12.1533V14.4896C21.9734 15.5458 21.0711 16.3816 19.9838 16.3571H19.1575M12 3V6.64286M9.50002 16.9643H14.5M14.5 12.1071C14.5 13.4484 13.3807 14.5357 12 14.5357C10.6193 14.5357 9.49999 13.4484 9.49999 12.1071C9.49999 10.7659 10.6193 9.67857 12 9.67857C13.3807 9.67857 14.5 10.7659 14.5 12.1071Z" stroke="currentColor" stroke-width="1.5" stroke-linecap="round" stroke-linejoin="round"/>
</svg>
