<svg width="24" height="24" viewBox="0 0 24 24" fill="none" xmlns="http://www.w3.org/2000/svg">
<path fill-rule="evenodd" clip-rule="evenodd" d="M15.7716 6.85714C15.7716 8.98738 14.0447 10.7143 11.9145 10.7143C9.78424 10.7143 8.05734 8.98738 8.05734 6.85714C8.05734 4.7269 9.78424 3 11.9145 3C12.9375 3 13.9185 3.40638 14.6419 4.12973C15.3652 4.85309 15.7716 5.83417 15.7716 6.85714Z" stroke="currentColor" stroke-width="1.5" stroke-linecap="round" stroke-linejoin="round"/>
<path fill-rule="evenodd" clip-rule="evenodd" d="M16.4145 14.5714H7.41448C5.63928 14.5714 4.2002 16.0105 4.2002 17.7857C4.2002 19.5609 5.63928 21 7.41448 21H16.4145C18.1897 21 19.6288 19.5609 19.6288 17.7857C19.6288 16.0105 18.1897 14.5714 16.4145 14.5714Z" stroke="currentColor" stroke-width="1.5" stroke-linecap="round" stroke-linejoin="round"/>
</svg>
