<svg width="24" height="24" viewBox="0 0 24 24" fill="none" xmlns="http://www.w3.org/2000/svg">
<path d="M15.3333 9.71429H18.6667M15.3333 13.1429H18.6667M4.22222 16.5714C7.31444 12.9863 10.9467 14.1131 13.1111 16.5714M2 6.28571V17.7143C2 18.9767 2.99492 20 4.22222 20H19.7778C21.0051 20 22 18.9767 22 17.7143V6.28571C22 5.02335 21.0051 4 19.7778 4H4.22222C2.99492 4 2 5.02335 2 6.28571ZM10.8889 9.71429C10.8889 10.9767 9.89397 12 8.66667 12C7.43937 12 6.44444 10.9767 6.44444 9.71429C6.44444 8.45192 7.43937 7.42857 8.66667 7.42857C9.25604 7.42857 9.82127 7.66939 10.238 8.09804C10.6548 8.5267 10.8889 9.10808 10.8889 9.71429Z" stroke="currentColor" stroke-width="1.5" stroke-linecap="round" stroke-linejoin="round"/>
</svg>
