<svg width="24" height="24" viewBox="0 0 24 24" fill="none" xmlns="http://www.w3.org/2000/svg">
<path d="M17 3L19.5 5.57143M19.5 5.57143L22 8.14286M19.5 5.57143L17 8.14286M19.5 5.57143L22 3M14.5 16.5C14.5 18.9853 11.7012 21 8.25 21C4.79875 21 2 18.9853 2 16.5C2 14.0147 4.79875 12 8.25 12C11.7012 12 14.5 14.0147 14.5 16.5ZM11.2496 5.99958C11.2496 7.6562 9.90662 8.99915 8.25 8.99915C6.59338 8.99915 5.25043 7.6562 5.25043 5.99958C5.25043 4.34296 6.59338 3 8.25 3C9.90662 3 11.2496 4.34296 11.2496 5.99958Z" stroke="currentColor" stroke-width="1.5" stroke-linecap="round" stroke-linejoin="round"/>
</svg>
