<svg width="24" height="24" viewBox="0 0 24 24" fill="none" xmlns="http://www.w3.org/2000/svg">
<path d="M3.52722 13.5534L2.93522 14.0138C2.93958 14.0194 2.94401 14.025 2.94853 14.0304L3.52722 13.5534ZM6.67207 17.368L7.26205 16.9049C7.25834 16.9002 7.25458 16.8955 7.25076 16.8909L6.67207 17.368ZM7.92563 18L7.9121 18.7499C7.91709 18.75 7.92209 18.75 7.92709 18.75L7.92563 18ZM12.7072 17.9907V17.2407L12.7057 17.2407L12.7072 17.9907ZM16.8073 17.9907L16.8119 17.2407H16.8073V17.9907ZM21 13.696L21.75 13.7007V13.696H21ZM21 10.296H21.75L21.75 10.2916L21 10.296ZM16.8073 6.00008L16.8081 6.75009L16.8119 6.75006L16.8073 6.00008ZM7.92563 6.00941L7.92484 5.25931L7.91259 5.25952L7.92563 6.00941ZM6.67207 6.64007L7.25084 7.11706C7.25447 7.11265 7.25805 7.10821 7.26158 7.10373L6.67207 6.64007ZM3.52722 10.456L2.94844 9.97906C2.94396 9.9845 2.93955 9.99001 2.93522 9.99557L3.52722 10.456ZM11.423 9.47326C11.1321 9.17842 10.6572 9.17527 10.3624 9.46621C10.0676 9.75714 10.0644 10.232 10.3553 10.5268L10.8892 10.0001L11.423 9.47326ZM14.2937 14.5258C14.5841 14.8212 15.0589 14.8253 15.3543 14.5349C15.6497 14.2445 15.6538 13.7697 15.3635 13.4743L14.8286 14L14.2937 14.5258ZM10.3553 13.4732C10.0644 13.7681 10.0676 14.2429 10.3624 14.5339C10.6572 14.8248 11.1321 14.8217 11.423 14.5268L10.8892 14L10.3553 13.4732ZM15.3635 10.5258C15.6538 10.2304 15.6497 9.75554 15.3543 9.46518C15.0589 9.17481 14.5841 9.1789 14.2937 9.47431L14.8286 10.0001L15.3635 10.5258ZM3.52722 13.5534L2.94853 14.0304L6.09337 17.8451L6.67207 17.368L7.25076 16.8909L4.10592 13.0763L3.52722 13.5534ZM6.67207 17.368L6.08208 17.8311C6.52534 18.3958 7.19355 18.7369 7.9121 18.7499L7.92563 18L7.93917 17.2501C7.68322 17.2455 7.43405 17.1241 7.26205 16.9049L6.67207 17.368ZM7.92563 18L7.92709 18.75L12.7086 18.7407L12.7072 17.9907L12.7057 17.2407L7.92417 17.25L7.92563 18ZM12.7072 17.9907V18.7407H16.8073V17.9907V17.2407H12.7072V17.9907ZM16.8073 17.9907L16.8027 18.7407C19.5435 18.7574 21.7327 16.4752 21.75 13.7007L21 13.696L20.25 13.6914C20.2376 15.6894 18.6733 17.252 16.8119 17.2407L16.8073 17.9907ZM21 13.696H21.75V10.296H21H20.25V13.696H21ZM21 10.296L21.75 10.2916C21.7335 7.51647 19.5441 5.23338 16.8027 5.25009L16.8073 6.00008L16.8119 6.75006C18.6737 6.73871 20.2382 8.30198 20.25 10.3005L21 10.296ZM16.8073 6.00008L16.8065 5.25008L7.92484 5.25941L7.92563 6.00941L7.92642 6.75941L16.8081 6.75008L16.8073 6.00008ZM7.92563 6.00941L7.91259 5.25952C7.19436 5.27201 6.52618 5.61237 6.08255 6.17642L6.67207 6.64007L7.26158 7.10373C7.4337 6.88488 7.68283 6.76374 7.93867 6.7593L7.92563 6.00941ZM6.67207 6.64007L6.09329 6.16309L2.94844 9.97906L3.52722 10.456L4.106 10.933L7.25084 7.11706L6.67207 6.64007ZM3.52722 10.456L2.93522 9.99557C2.02159 11.1702 2.02159 12.8392 2.93522 14.0138L3.52722 13.5534L4.11922 13.0929C3.62693 12.46 3.62693 11.5494 4.11922 10.9165L3.52722 10.456ZM10.8892 10.0001L10.3553 10.5268L12.3289 12.5268L12.8628 12L13.3966 11.4732L11.423 9.47326L10.8892 10.0001ZM12.8628 12L12.3279 12.5258L14.2937 14.5258L14.8286 14L15.3635 13.4743L13.3976 11.4743L12.8628 12ZM12.8628 12L12.3289 11.4732L10.3553 13.4732L10.8892 14L11.423 14.5268L13.3966 12.5268L12.8628 12ZM12.8628 12L13.3976 12.5258L15.3635 10.5258L14.8286 10.0001L14.2937 9.47431L12.3279 11.4743L12.8628 12Z" fill="#202027"/>
</svg>
