<svg width="24" height="24" viewBox="0 0 24 24" fill="none" xmlns="http://www.w3.org/2000/svg">
<path fill-rule="evenodd" clip-rule="evenodd" d="M18.234 19.8128V5.15715C18.2388 4.58981 18.018 4.04381 17.6202 3.63926C17.2225 3.23471 16.6803 3.00476 16.1129 3H7.62856C7.06123 3.00476 6.51902 3.23471 6.12124 3.63926C5.72345 4.04381 5.50267 4.58981 5.50748 5.15715V19.8128C5.45706 20.236 5.66482 20.6482 6.03495 20.8594C6.40509 21.0706 6.86569 21.0398 7.20435 20.7811L11.2344 17.3014C11.5977 16.9736 12.1501 16.9736 12.5134 17.3014L16.5371 20.7821C16.8759 21.041 17.3369 21.0718 17.7071 20.8603C18.0774 20.6488 18.2849 20.2362 18.234 19.8128Z" stroke="currentColor" stroke-width="1.5" stroke-linecap="round" stroke-linejoin="round"/>
</svg>
