<svg width="24" height="24" viewBox="0 0 24 24" fill="none" xmlns="http://www.w3.org/2000/svg">
<path d="M5.63625 15.8584C3.71393 15.9376 2.08984 14.4064 2 12.4302C2.04956 10.8062 3.17981 9.43096 4.72875 9.11002C4.72875 9.07403 4.72875 9.03804 4.72875 9.00205C4.81926 7.02688 6.44237 5.4967 8.36375 5.57516C8.81838 5.57427 9.2697 5.65474 9.6975 5.81296C10.5766 4.05593 12.3513 2.96641 14.2725 3.00436C16.9172 2.89111 19.1529 4.99873 19.2725 7.71793C19.2729 8.17625 19.2029 8.63176 19.065 9.0676C20.706 9.30994 21.9424 10.7265 22 12.4302C21.9102 14.4064 20.2861 15.9376 18.3637 15.8584M12 13.2876V21M12 13.2876L9.5 15.8584M12 13.2876L14.5 15.8584" stroke="currentColor" stroke-width="1.5" stroke-linecap="round" stroke-linejoin="round"/>
</svg>
