<svg width="24" height="24" viewBox="0 0 24 24" fill="none" xmlns="http://www.w3.org/2000/svg">
<path d="M5.63625 15.8584C3.71393 15.9375 2.08984 14.4064 2 12.4302C2.04956 10.8062 3.17981 9.43095 4.72875 9.11001C4.72875 9.07402 4.72875 9.03803 4.72875 9.00204C4.81926 7.02688 6.44237 5.4967 8.36375 5.57516C8.81838 5.57427 9.2697 5.65473 9.6975 5.81296C10.5766 4.05593 12.3513 2.96641 14.2725 3.00436C16.9172 2.89111 19.1529 4.99872 19.2725 7.71792C19.2729 8.17624 19.2029 8.63175 19.065 9.06759C20.706 9.30992 21.9424 10.7264 22 12.4302C21.9102 14.4064 20.2861 15.9375 18.3637 15.8584M12 18.4292L9.5 21M9.5 21V10.7168M9.5 21L7 18.4292M12 13.2876L14.5 10.7168M14.5 10.7168V21M14.5 10.7168L17 13.2876" stroke="currentColor" stroke-width="1.5" stroke-linecap="round" stroke-linejoin="round"/>
</svg>
