<svg width="24" height="24" viewBox="0 0 24 24" fill="none" xmlns="http://www.w3.org/2000/svg">
<path d="M7.50003 7.5V7.20043C7.49388 6.09254 7.92809 5.02758 8.70714 4.23984C9.48619 3.45211 10.5463 3.00612 11.6541 3H16.8458C17.9537 3.00612 19.0138 3.45211 19.7928 4.23984C20.5719 5.02758 21.0061 6.09254 20.9999 7.20043V12.2996C21.0061 13.4075 20.5719 14.4724 19.7928 15.2602C19.0138 16.0479 17.9537 16.4939 16.8458 16.5H16.5M7.50003 7.5H7.15418C6.0463 7.50612 4.98622 7.95211 4.20717 8.73984C3.42812 9.52758 2.99391 10.5925 3.00006 11.7004V16.8009C2.98796 19.1074 4.84763 20.9873 7.15418 21H12.3459C13.4537 20.9939 14.5138 20.5479 15.2929 19.7602C16.0719 18.9724 16.5061 17.9075 16.5 16.7996L16.5 16.5M7.50003 7.5H12.3459C13.4537 7.50612 14.5138 7.95211 15.2929 8.73984C16.0719 9.52758 16.5061 10.5925 16.5 11.7004V16.5" stroke="currentColor" stroke-width="1.5" stroke-linecap="round" stroke-linejoin="round"/>
</svg>
