<svg width="24" height="24" viewBox="0 0 24 24" fill="none" xmlns="http://www.w3.org/2000/svg">
<path d="M13.9478 10.0522C14.7226 10.8269 15.1578 11.8776 15.1578 12.9733C15.1578 14.0689 14.7226 15.1197 13.9478 15.8944L10.0522 19.79C8.43889 21.4033 5.82324 21.4033 4.20996 19.79C2.59668 18.1768 2.59668 15.5611 4.20996 13.9478L6.15779 12M10.0522 13.9478C9.27741 13.1731 8.84216 12.1224 8.84216 11.0267C8.84216 9.93109 9.27741 8.88033 10.0522 8.10562L13.9478 4.20996C15.5611 2.59668 18.1768 2.59668 19.79 4.20996C21.4033 5.82324 21.4033 8.43889 19.79 10.0522L17.8422 12" stroke="currentColor" stroke-width="1.5" stroke-linecap="round" stroke-linejoin="round"/>
</svg>
