<svg width="24" height="24" viewBox="0 0 24 24" fill="none" xmlns="http://www.w3.org/2000/svg">
<path d="M5.88644 9.09558C6.17592 8.79931 6.17042 8.32447 5.87415 8.03499C5.57788 7.74551 5.10304 7.75101 4.81356 8.04728L5.35 8.57143L5.88644 9.09558ZM2 12L1.46356 11.4759L0.951423 12L1.46356 12.5241L2 12ZM4.81356 15.9527C5.10304 16.249 5.57788 16.2545 5.87415 15.965C6.17042 15.6755 6.17592 15.2007 5.88644 14.9044L5.35 15.4286L4.81356 15.9527ZM17.5556 12.75C17.9698 12.75 18.3056 12.4142 18.3056 12C18.3056 11.5858 17.9698 11.25 17.5556 11.25V12V12.75ZM9.41667 15.4286C9.41667 15.0144 9.08088 14.6786 8.66667 14.6786C8.25245 14.6786 7.91667 15.0144 7.91667 15.4286H8.66667H9.41667ZM7.91667 8.57143C7.91667 8.98564 8.25245 9.32143 8.66667 9.32143C9.08088 9.32143 9.41667 8.98564 9.41667 8.57143H8.66667H7.91667ZM5.35 8.57143L4.81356 8.04728L1.46356 11.4759L2 12L2.53644 12.5241L5.88644 9.09558L5.35 8.57143ZM2 12L1.46356 12.5241L4.81356 15.9527L5.35 15.4286L5.88644 14.9044L2.53644 11.4759L2 12ZM2 12V12.75H17.5556V12V11.25H2V12ZM8.66667 15.4286H7.91667C7.91667 18.3475 10.2225 20.75 13.1111 20.75V20V19.25C11.0905 19.25 9.41667 17.5591 9.41667 15.4286H8.66667ZM13.1111 20V20.75H17.5556V20V19.25H13.1111V20ZM17.5556 20V20.75C20.4441 20.75 22.75 18.3475 22.75 15.4286H22H21.25C21.25 17.5591 19.5762 19.25 17.5556 19.25V20ZM22 15.4286H22.75V8.57143H22H21.25V15.4286H22ZM22 8.57143H22.75C22.75 5.65254 20.4441 3.25 17.5556 3.25V4V4.75C19.5762 4.75 21.25 6.44086 21.25 8.57143H22ZM17.5556 4V3.25H13.1111V4V4.75H17.5556V4ZM13.1111 4V3.25C10.2225 3.25 7.91667 5.65254 7.91667 8.57143H8.66667H9.41667C9.41667 6.44086 11.0905 4.75 13.1111 4.75V4Z" fill="#202027"/>
</svg>
