<svg width="24" height="24" viewBox="0 0 24 24" fill="none" xmlns="http://www.w3.org/2000/svg">
<path d="M14.742 8.04728C14.4525 7.75101 13.9777 7.74551 13.6814 8.03499C13.3851 8.32447 13.3796 8.79931 13.6691 9.09558L14.2056 8.57143L14.742 8.04728ZM17.5556 12L18.092 12.5241L18.6041 12L18.092 11.4759L17.5556 12ZM13.6691 14.9044C13.3796 15.2007 13.3851 15.6755 13.6814 15.965C13.9777 16.2545 14.4525 16.249 14.742 15.9527L14.2056 15.4286L13.6691 14.9044ZM2 11.25C1.58579 11.25 1.25 11.5858 1.25 12C1.25 12.4142 1.58579 12.75 2 12.75V12V11.25ZM9.41667 15.4286C9.41667 15.0144 9.08088 14.6786 8.66667 14.6786C8.25245 14.6786 7.91667 15.0144 7.91667 15.4286H8.66667H9.41667ZM7.91667 8.57143C7.91667 8.98564 8.25245 9.32143 8.66667 9.32143C9.08088 9.32143 9.41667 8.98564 9.41667 8.57143H8.66667H7.91667ZM14.2056 8.57143L13.6691 9.09558L17.0191 12.5241L17.5556 12L18.092 11.4759L14.742 8.04728L14.2056 8.57143ZM17.5556 12L17.0191 11.4759L13.6691 14.9044L14.2056 15.4286L14.742 15.9527L18.092 12.5241L17.5556 12ZM17.5556 12V11.25H2V12V12.75H17.5556V12ZM8.66667 15.4286H7.91667C7.91667 18.3475 10.2225 20.75 13.1111 20.75V20V19.25C11.0905 19.25 9.41667 17.5591 9.41667 15.4286H8.66667ZM13.1111 20V20.75H17.5556V20V19.25H13.1111V20ZM17.5556 20V20.75C20.4441 20.75 22.75 18.3475 22.75 15.4286H22H21.25C21.25 17.5591 19.5762 19.25 17.5556 19.25V20ZM22 15.4286H22.75V8.57143H22H21.25V15.4286H22ZM22 8.57143H22.75C22.75 5.65254 20.4441 3.25 17.5556 3.25V4V4.75C19.5762 4.75 21.25 6.44086 21.25 8.57143H22ZM17.5556 4V3.25H13.1111V4V4.75H17.5556V4ZM13.1111 4V3.25C10.2225 3.25 7.91667 5.65254 7.91667 8.57143H8.66667H9.41667C9.41667 6.44086 11.0905 4.75 13.1111 4.75V4Z" fill="#202027"/>
</svg>
