<svg width="24" height="24" viewBox="0 0 24 24" fill="none" xmlns="http://www.w3.org/2000/svg">
<path d="M14.1202 5.17016L7.93276 12.6035C7.82097 12.7288 7.75412 12.8869 7.74249 13.0534L7.58565 16.3144C7.63647 16.7505 8.02011 17.074 8.46498 17.0558L11.8178 16.2954C11.9857 16.2548 12.1365 16.163 12.2484 16.033L20.6149 5.97369C20.859 5.74453 20.998 5.42731 21 5.09501C21.0019 4.7627 20.8666 4.44392 20.6252 4.21201L18.1248 2.20572C17.5189 1.83123 16.7226 1.98105 16.2993 2.54918L14.1202 5.17016ZM14.1202 5.17016C14.6344 6.42615 16.2735 8.80256 18.7148 8.25885M3 21H20.6123" stroke="currentColor" stroke-width="1.5" stroke-linecap="round" stroke-linejoin="round"/>
</svg>
