<svg width="24" height="24" viewBox="0 0 24 24" fill="none" xmlns="http://www.w3.org/2000/svg">
<path d="M12.496 6.20635L4.90051 15.6834C4.77055 15.8341 4.69325 16.0231 4.68029 16.2217L4.5 20.1147C4.55315 20.63 4.99578 21.0164 5.51351 20.9995L9.37695 20.0838C9.57141 20.0344 9.74508 19.9244 9.87276 19.7696L17.6512 10.0698M17.6512 10.0698L19.512 7.75173C19.795 7.47444 19.9554 7.09558 19.9575 6.69942C19.9597 6.30327 19.8035 5.92267 19.5236 5.64229L16.6428 3.24438C15.946 2.79784 15.0211 2.97953 14.5449 3.65648L12.4999 6.20635C12.8715 8.68619 15.1665 10.4074 17.6512 10.0698Z" stroke="currentColor" stroke-width="1.5" stroke-linecap="round" stroke-linejoin="round"/>
</svg>
