<svg width="24" height="24" viewBox="0 0 24 24" fill="none" xmlns="http://www.w3.org/2000/svg">
<path d="M15.4612 4.49714L10.3523 10.1907C10.2623 10.2887 10.2085 10.4137 10.1993 10.5455V13.2802C10.2451 13.6268 10.5534 13.8805 10.9076 13.8631L13.6074 13.2599C13.7421 13.2283 13.8634 13.1561 13.9545 13.0533L19.1599 6.93398L20.6897 5.12947C20.8861 4.95122 20.9985 4.7005 21 4.43733C21.0014 4.17417 20.8918 3.92225 20.6974 3.74188L18.6842 2.16167C18.1963 1.86751 17.5617 1.98462 17.2148 2.43286L15.4612 4.49714ZM15.4612 4.49714C15.8752 5.48556 17.1942 7.35724 19.1599 6.92892M11.3988 4.36789H7.79912C5.14276 4.37419 2.99432 6.50154 3.00001 9.11993V16.248C2.99432 18.8664 5.14276 20.9937 7.79912 21H14.9984C17.6548 20.9937 19.8032 18.8664 19.7975 16.248V11.4959M6.59967 17.4366H16.1992" stroke="currentColor" stroke-width="1.5" stroke-linecap="round" stroke-linejoin="round"/>
</svg>
