<svg width="24" height="24" viewBox="0 0 24 24" fill="none" xmlns="http://www.w3.org/2000/svg">
<path d="M11.9562 15.7901V22M8.28456 15.7901H15.6292C16.5138 15.652 17.2234 14.9556 17.4095 14.0429C17.6388 13.1864 17.4257 12.2671 16.8466 11.6144C15.988 10.7958 14.854 10.0001 14.854 8.80868V4.44586C14.8486 4.05674 14.6952 3.6858 14.4276 3.41467C14.16 3.14354 13.8 2.99443 13.427 3.00016H10.573C10.2 2.99443 9.84003 3.14354 9.5724 3.41467C9.30478 3.6858 9.15138 4.05674 9.14597 4.44586V8.80868C9.14597 10.0058 8.0134 10.7958 7.15336 11.6187C6.5743 12.2714 6.36123 13.1907 6.5905 14.0472C6.74234 14.9449 7.42199 15.6441 8.28456 15.7901Z" stroke="currentColor" stroke-width="1.5" stroke-linecap="round" stroke-linejoin="round"/>
</svg>
