<svg width="24" height="24" viewBox="0 0 24 24" fill="none" xmlns="http://www.w3.org/2000/svg">
<path d="M14.6993 14.6993L11.7418 17.6568C11.0534 18.3232 9.99602 18.4261 9.19197 17.9049C8.3192 17.4008 7.7543 16.4956 7.68495 15.4901C7.71066 14.1335 7.98455 12.5815 7.0163 11.6132L3.48791 8.08099C2.84497 7.44653 2.83634 6.41154 3.46862 5.76645L5.77031 3.46862C6.4154 2.83634 7.45039 2.84497 8.08485 3.48791L11.612 7.0163C12.5802 7.98455 14.1322 7.71195 15.4888 7.68495C16.4948 7.75389 17.4006 8.31884 17.9049 9.19197C18.4261 9.99602 18.3232 11.0534 17.6568 11.7418L14.6993 14.6993ZM14.6993 14.6993L21 21" stroke="currentColor" stroke-width="1.5" stroke-linecap="round" stroke-linejoin="round"/>
</svg>
