<svg width="24" height="24" viewBox="0 0 24 24" fill="none" xmlns="http://www.w3.org/2000/svg">
<path d="M7.12875 5.07054C5.8933 5.88763 4.877 6.99511 4.16883 8.29601C3.33822 9.82588 2.98873 11.5708 3.1661 13.3025C3.34551 15.0218 4.04572 16.6452 5.17305 17.9556C6.31425 19.2793 7.82414 20.2328 9.50987 20.6942C9.64127 20.7302 9.77291 20.7631 9.90471 20.7931M7.12875 5.07054L3.69845 5.07586M7.12875 5.07054L7.13002 8.50742M11.9582 9.5003L11.9388 2.00977M17.5634 5.1508L18.9871 6.5555M20.7787 10.0033L20.9927 11.9918M20.2995 15.6487L19.2767 17.2491M20.237 15.728L19.2141 17.3285M14.7639 20.6058L16.5448 19.9453M14.8617 20.5802L16.6425 19.9197" stroke="currentColor" stroke-width="1.5" stroke-linecap="round"/>
</svg>
