<svg width="24" height="24" viewBox="0 0 24 24" fill="none" xmlns="http://www.w3.org/2000/svg">
<path d="M4.93172 9.87453C5.11016 9.91441 5.29254 9.93447 5.47547 9.93434C6.82964 9.90389 7.91138 8.80827 7.91138 7.46717C7.91138 6.12607 6.82964 5.03045 5.47547 5C4.21122 5.00928 3.15402 5.95378 3.01523 7.19797C2.87644 8.44215 3.69999 9.59231 4.93172 9.87453ZM4.93172 9.87453L9.4874 12M21 17.7272L9.4874 12M9.4874 12L4.93172 14.1267M9.4874 12L21 6.27272M5.47544 14.0669C5.29165 14.0666 5.1084 14.0867 4.92912 14.1267C3.69959 14.4113 2.87891 15.5609 3.0182 16.8034C3.1575 18.0459 4.21281 18.9893 5.47544 19C6.82961 18.9695 7.91135 17.8739 7.91135 16.5328C7.91135 15.1917 6.82961 14.0961 5.47544 14.0657V14.0669Z" stroke="currentColor" stroke-width="1.5" stroke-linecap="round" stroke-linejoin="round"/>
</svg>
