<svg width="24" height="24" viewBox="0 0 24 24" fill="none" xmlns="http://www.w3.org/2000/svg">
<path d="M15.2301 17.2569L10.7758 14.0634M14.1483 6.72655L10.7809 9.91487M18.9997 18.7474C18.96 17.5541 17.9782 16.6154 16.7979 16.6422C15.6177 16.669 14.6786 17.6514 14.6918 18.8453C14.7051 20.0392 15.6658 21 16.8464 21C18.0558 20.9789 19.0195 19.9707 18.9997 18.7474ZM11.4617 11.9898C11.4915 13.8251 10.0451 15.3376 8.23046 15.3686C6.41634 15.3369 4.97068 13.8246 5.00045 11.9898C4.97068 10.155 6.41634 8.64269 8.23046 8.61097C10.0451 8.64199 11.4915 10.1545 11.4617 11.9898ZM17.923 5.23214C17.942 6.02308 17.5357 6.76231 16.8614 7.16344C16.1872 7.56456 15.3509 7.56456 14.6767 7.16344C14.0024 6.76231 13.5961 6.02308 13.6151 5.23214C13.5961 4.4412 14.0024 3.70197 14.6767 3.30084C15.3509 2.89972 16.1872 2.89972 16.8614 3.30084C17.5357 3.70197 17.942 4.4412 17.923 5.23214Z" stroke="currentColor" stroke-width="1.5" stroke-linecap="round" stroke-linejoin="round"/>
</svg>
