<svg width="24" height="24" viewBox="0 0 24 24" fill="none" xmlns="http://www.w3.org/2000/svg">
<path d="M16.2 4.85724L16.0516 4.55581C15.2843 2.98947 13.7154 2 11.9993 2C10.2832 2 8.71434 2.98947 7.947 4.55581L7.8 4.85724M16.2 4.85724H7.8M16.2 4.85724L19 4.85729M7.8 4.85724L5 4.85729M9.6662 12.4758V17.2372M14.3338 12.4758V17.2372M17.8338 7.71441H6.1662C5.52213 7.71441 5 8.24719 5 8.9044V18.4286C5 20.401 6.567 22 8.5 22H15.5C16.4283 22 17.3185 21.6237 17.9749 20.954C18.6313 20.2842 19 19.3758 19 18.4286V8.9044C19 8.24719 18.4779 7.71441 17.8338 7.71441Z" stroke="currentColor" stroke-width="1.5" stroke-linecap="round" stroke-linejoin="round"/>
</svg>
