<svg width="24" height="24" viewBox="0 0 24 24" fill="none" xmlns="http://www.w3.org/2000/svg">
<path d="M19.9663 9.47878L19.9588 16.9269C19.9525 19.1808 18.1726 21.0036 15.9812 21H8.0225C5.82973 21.0036 4.04914 19.1784 4.045 16.923V9.46593M19.9663 9.47878L14.8125 4.19453C13.2572 2.60182 10.7428 2.60182 9.1875 4.19453L4.045 9.46593M19.9663 9.47878L19.975 3.97982M19.9663 9.47878L22 11.5629M4.045 9.46593L2 11.5629M9.5 17.0747H14.5M13.875 11.1836C13.8558 12.2438 13.008 13.0892 11.9771 13.076C10.9462 13.0629 10.1191 12.1962 10.1254 11.1359C10.1317 10.0755 10.9691 9.21925 12 9.21907C12.5019 9.22382 12.9815 9.43348 13.3331 9.80191C13.6847 10.1703 13.8797 10.6674 13.875 11.1836Z" stroke="currentColor" stroke-width="1.5" stroke-linecap="round" stroke-linejoin="round"/>
</svg>
