<svg width="24" height="24" viewBox="0 0 24 24" fill="none" xmlns="http://www.w3.org/2000/svg">
<path d="M19.9663 9.47878L19.9588 16.9269C19.9525 19.1808 18.1726 21.0036 15.9812 21H8.0225C5.82973 21.0036 4.04914 19.1784 4.045 16.923V9.46593M19.9663 9.47878L14.8125 4.19453C13.2572 2.60182 10.7428 2.60182 9.1875 4.19453L4.045 9.46593M19.9663 9.47878L19.9675 4.30896M19.9663 9.47878L22 11.5629M4.045 9.46593L2 11.5629M14.5 21V18.7114C14.5 17.2913 13.3807 16.14 12 16.14C10.6193 16.14 9.5 17.2913 9.5 18.7114V21" stroke="currentColor" stroke-width="1.5" stroke-linecap="round" stroke-linejoin="round"/>
</svg>
