<svg width="24" height="24" viewBox="0 0 24 24" fill="none" xmlns="http://www.w3.org/2000/svg">
<path d="M9.33333 19.9975V17.4482C9.38757 15.9882 10.5802 14.8486 12 14.9C13.4198 14.8486 14.6124 15.9882 14.6667 17.4482V19.9975M9.33333 19.9975H14.6667M9.33333 19.9975H8.66667C6.53654 20.0746 4.74742 18.3645 4.66667 16.1741V8.51135M14.6667 19.9975H15.3333C17.4635 20.0746 19.2526 18.3645 19.3333 16.1741L19.3333 8.51135M4.66667 8.51135L2 10.3728M4.66667 8.51135L10.4622 4.46629C11.3983 3.84457 12.6017 3.84457 13.5378 4.46629L19.3333 8.51135M19.3333 8.51135L22 10.3716" stroke="currentColor" stroke-width="1.5" stroke-linecap="round" stroke-linejoin="round"/>
</svg>
